SplineFontDB: 3.2
FontName: tigger
FullName: tigger
FamilyName: tigger
Weight: Medium
Copyright: (c) 2025 Tadhg O'Brien
Version: 2025.4
ItalicAngle: 0
UnderlinePosition: -150
UnderlineWidth: 50
Ascent: 800
Descent: 200
InvalidEm: 0
sfntRevision: 0x00040000
LayerCount: 2
Layer: 0 1 "Back" 1
Layer: 1 1 "Fore" 0
XUID: [1021 796 -163880829 1938445]
StyleMap: 0x0040
FSType: 0
OS2Version: 1
OS2_WeightWidthSlopeOnly: 0
OS2_UseTypoMetrics: 0
CreationTime: 1280473793
ModificationTime: 1736367752
PfmFamily: 17
TTFWeight: 500
TTFWidth: 5
LineGap: 90
VLineGap: 0
Panose: 2 0 6 3 0 0 0 0 0 0
OS2TypoAscent: 800
OS2TypoAOffset: 0
OS2TypoDescent: -200
OS2TypoDOffset: 0
OS2TypoLinegap: 90
OS2WinAscent: 843
OS2WinAOffset: 0
OS2WinDescent: 347
OS2WinDOffset: 0
HheadAscent: 843
HheadAOffset: 0
HheadDescent: -347
HheadDOffset: 0
OS2SubXSize: 650
OS2SubYSize: 700
OS2SubXOff: 0
OS2SubYOff: 140
OS2SupXSize: 650
OS2SupYSize: 700
OS2SupXOff: 0
OS2SupYOff: 480
OS2StrikeYSize: 49
OS2StrikeYPos: 258
OS2Vendor: '2ttf'
OS2CodePages: 00000001.00000000
OS2UnicodeRanges: a00000af.00010042.00000000.00000000
Lookup: 1 0 0 "'rtla' Right to Left Alternates lookup 0" { "'rtla' Right to Left Alternates lookup 0 subtable"  } ['rtla' ('DFLT' <'dflt' > ) ]
Lookup: 258 0 0 "'kern' Horizontal Kerning in Latin lookup 0" { "'kern' Horizontal Kerning in Latin lookup 0 subtable" [150,15,0] } ['kern' ('DFLT' <'dflt' > 'latn' <'dflt' > ) ]
MarkAttachClasses: 1
DEI: 91125
ShortTable: maxp 16
  1
  0
  1132
  181
  5
  409
  10
  2
  0
  1
  1
  0
  64
  0
  6
  3
EndShort

StartChar: .notdef
Encoding: 65536 -1 0
Width: 500
GlyphClass: 1
Flags: W
LayerCount: 2
Fore
SplineSet
100 50 m 1,0,-1
 400 50 l 1,1,-1
 400 483 l 1,2,-1
 100 483 l 1,3,-1
 100 50 l 1,0,-1
50 0 m 1,4,-1
 50 533 l 1,5,-1
 450 533 l 1,6,-1
 450 0 l 1,7,-1
 50 0 l 1,4,-1
EndSplineSet
Validated: 1
EndChar

StartChar: exclam
Encoding: 33 33 4
AltUni2: 00ff01.ffffffff.0 00fe57.ffffffff.0 00fe15.ffffffff.0 002762.ffffffff.0 00ff01.ffffffff.0 00fe57.ffffffff.0 00fe15.ffffffff.0 002762.ffffffff.0
Width: 176
GlyphClass: 1
Flags: W
LayerCount: 2
UndoRedoHistory
Layer: 0
Undoes
UndoOperation
Index: 0
Type: 1
WasModified: 1
WasOrder2: 1
Layer: 2
Width: 176
VWidth: 1000
LBearingChange: 0
UnicodeEnc: 0
InstructionsLength: 0
EndUndoOperation
UndoOperation
Index: 1
Type: 1
WasModified: 1
WasOrder2: 1
Layer: 2
Width: 176
VWidth: 1000
LBearingChange: 0
UnicodeEnc: 0
InstructionsLength: 0
EndUndoOperation
UndoOperation
Index: 2
Type: 1
WasModified: 1
WasOrder2: 1
Layer: 2
Width: 176
VWidth: 1000
LBearingChange: 0
UnicodeEnc: 0
InstructionsLength: 0
EndUndoOperation
UndoOperation
Index: 3
Type: 1
WasModified: 1
WasOrder2: 1
Layer: 2
Width: 176
VWidth: 1000
LBearingChange: 0
UnicodeEnc: 0
InstructionsLength: 0
EndUndoOperation
UndoOperation
Index: 4
Type: 1
WasModified: 0
WasOrder2: 1
Layer: 2
Width: 176
VWidth: 1000
LBearingChange: 0
UnicodeEnc: 0
InstructionsLength: 0
EndUndoOperation
EndUndoes
Redoes
EndRedoes
EndUndoRedoHistory
UndoRedoHistory
Layer: 1
Undoes
UndoOperation
Index: 0
Type: 3
WasModified: 1
WasOrder2: 1
Layer: 2
EndUndoOperation
UndoOperation
Index: 1
Type: 3
WasModified: 1
WasOrder2: 1
Layer: 2
EndUndoOperation
UndoOperation
Index: 2
Type: 3
WasModified: 1
WasOrder2: 1
Layer: 2
EndUndoOperation
UndoOperation
Index: 3
Type: 3
WasModified: 1
WasOrder2: 1
Layer: 2
EndUndoOperation
UndoOperation
Index: 4
Type: 3
WasModified: 0
WasOrder2: 1
Layer: 2
EndUndoOperation
EndUndoes
Redoes
EndRedoes
EndUndoRedoHistory
Fore
SplineSet
76.744140625 115 m 0,0,1
 86.744140625 115 86.744140625 115 91.744140625 113 c 0,2,3
 113.744140625 102 113.744140625 102 127.744140625 89 c 0,4,5
 143.744140625 69 143.744140625 69 142.744140625 50 c 0,6,7
 140.744140625 12 140.744140625 12 102.744140625 -2 c 0,8,9
 85.744140625 -9 85.744140625 -9 70.744140625 -6 c 0,10,11
 48.744140625 -3 48.744140625 -3 36.744140625 14 c 0,12,13
 24.744140625 32 24.744140625 32 27.744140625 55 c 0,14,15
 28.744140625 73 28.744140625 73 41.744140625 98 c 0,16,17
 53.744140625 120 53.744140625 120 76.744140625 115 c 0,0,1
148.744140625 637 m 0,18,19
 123.744140625 383 123.744140625 383 123.744140625 207 c 0,20,21
 123.744140625 194 123.744140625 194 114.244140625 184.5 c 128,-1,22
 104.744140625 175 104.744140625 175 90.744140625 175 c 0,23,24
 77.744140625 175 77.744140625 175 68.244140625 184.5 c 128,-1,25
 58.744140625 194 58.744140625 194 58.744140625 207 c 0,26,27
 58.744140625 390 58.744140625 390 84.744140625 644 c 0,28,29
 85.744140625 657 85.744140625 657 95.744140625 666 c 128,-1,30
 105.744140625 675 105.744140625 675 119.744140625 673 c 128,-1,31
 133.744140625 671 133.744140625 671 141.744140625 660.5 c 128,-1,32
 149.744140625 650 149.744140625 650 148.744140625 637 c 0,18,19
EndSplineSet
EndChar

StartChar: quotedbl
Encoding: 34 34 5
AltUni2: 00ff02.ffffffff.0 00201d.ffffffff.0 00201c.ffffffff.0 00030e.ffffffff.0 00030b.ffffffff.0 0002ba.ffffffff.0 00ff02.ffffffff.0 00201d.ffffffff.0 00201c.ffffffff.0 00030e.ffffffff.0 00030b.ffffffff.0 0002ba.ffffffff.0
Width: 292
GlyphClass: 1
Flags: W
LayerCount: 2
UndoRedoHistory
Layer: 0
Undoes
UndoOperation
Index: 0
Type: 1
WasModified: 1
WasOrder2: 1
Layer: 2
Width: 292
VWidth: 1000
LBearingChange: 0
UnicodeEnc: 0
InstructionsLength: 0
EndUndoOperation
UndoOperation
Index: 1
Type: 1
WasModified: 1
WasOrder2: 1
Layer: 2
Width: 292
VWidth: 1000
LBearingChange: 0
UnicodeEnc: 0
InstructionsLength: 0
EndUndoOperation
UndoOperation
Index: 2
Type: 1
WasModified: 1
WasOrder2: 1
Layer: 2
Width: 292
VWidth: 1000
LBearingChange: 0
UnicodeEnc: 0
InstructionsLength: 0
EndUndoOperation
UndoOperation
Index: 3
Type: 1
WasModified: 1
WasOrder2: 1
Layer: 2
Width: 292
VWidth: 1000
LBearingChange: 0
UnicodeEnc: 0
InstructionsLength: 0
EndUndoOperation
UndoOperation
Index: 4
Type: 1
WasModified: 1
WasOrder2: 1
Layer: 2
Width: 292
VWidth: 1000
LBearingChange: 0
UnicodeEnc: 0
InstructionsLength: 0
EndUndoOperation
UndoOperation
Index: 5
Type: 1
WasModified: 1
WasOrder2: 1
Layer: 2
Width: 292
VWidth: 1000
LBearingChange: 0
UnicodeEnc: 0
InstructionsLength: 0
EndUndoOperation
UndoOperation
Index: 6
Type: 1
WasModified: 0
WasOrder2: 1
Layer: 2
Width: 292
VWidth: 1000
LBearingChange: 0
UnicodeEnc: 0
InstructionsLength: 0
EndUndoOperation
EndUndoes
Redoes
EndRedoes
EndUndoRedoHistory
UndoRedoHistory
Layer: 1
Undoes
UndoOperation
Index: 0
Type: 3
WasModified: 1
WasOrder2: 1
Layer: 2
EndUndoOperation
UndoOperation
Index: 1
Type: 3
WasModified: 1
WasOrder2: 1
Layer: 2
EndUndoOperation
UndoOperation
Index: 2
Type: 3
WasModified: 1
WasOrder2: 1
Layer: 2
EndUndoOperation
UndoOperation
Index: 3
Type: 3
WasModified: 1
WasOrder2: 1
Layer: 2
EndUndoOperation
UndoOperation
Index: 4
Type: 3
WasModified: 1
WasOrder2: 1
Layer: 2
EndUndoOperation
UndoOperation
Index: 5
Type: 3
WasModified: 1
WasOrder2: 1
Layer: 2
EndUndoOperation
UndoOperation
Index: 6
Type: 3
WasModified: 0
WasOrder2: 1
Layer: 2
EndUndoOperation
EndUndoes
Redoes
EndRedoes
EndUndoRedoHistory
Fore
SplineSet
127.459960938 747 m 0,0,1
 98.4599609375 645 98.4599609375 645 108.459960938 542 c 0,2,3
 110.459960938 526 110.459960938 526 100.459960938 513.5 c 128,-1,4
 90.4599609375 501 90.4599609375 501 74.4599609375 500 c 0,5,6
 58.4599609375 498 58.4599609375 498 46.4599609375 508 c 128,-1,7
 34.4599609375 518 34.4599609375 518 32.4599609375 534 c 0,8,9
 20.4599609375 647 20.4599609375 647 53.4599609375 768 c 0,10,11
 57.4599609375 784 57.4599609375 784 71.4599609375 791.5 c 128,-1,12
 85.4599609375 799 85.4599609375 799 101.459960938 795 c 0,13,14
 116.459960938 790 116.459960938 790 123.959960938 776.5 c 128,-1,15
 131.459960938 763 131.459960938 763 127.459960938 747 c 0,0,1
261.459960938 751 m 0,16,17
 228.459960938 628 228.459960938 628 249.459960938 533 c 0,18,19
 252.459960938 517 252.459960938 517 243.959960938 504 c 128,-1,20
 235.459960938 491 235.459960938 491 219.459960938 487 c 0,21,22
 203.459960938 484 203.459960938 484 190.459960938 493 c 128,-1,23
 177.459960938 502 177.459960938 502 174.459960938 517 c 0,24,25
 150.459960938 629 150.459960938 629 186.459960938 770 c 0,26,27
 190.459960938 786 190.459960938 786 203.959960938 794 c 128,-1,28
 217.459960938 802 217.459960938 802 233.459960938 798 c 0,29,30
 248.459960938 793 248.459960938 793 256.959960938 780 c 128,-1,31
 265.459960938 767 265.459960938 767 261.459960938 751 c 0,16,17
EndSplineSet
EndChar

StartChar: numbersign
Encoding: 35 35 6
AltUni2: 00ff03.ffffffff.0 00fe5f.ffffffff.0 00ff03.ffffffff.0 00fe5f.ffffffff.0
Width: 731
GlyphClass: 1
Flags: W
LayerCount: 2
UndoRedoHistory
Layer: 0
Undoes
UndoOperation
Index: 0
Type: 1
WasModified: 1
WasOrder2: 1
Layer: 2
Width: 731
VWidth: 1000
LBearingChange: 0
UnicodeEnc: 0
InstructionsLength: 0
EndUndoOperation
UndoOperation
Index: 1
Type: 1
WasModified: 1
WasOrder2: 1
Layer: 2
Width: 731
VWidth: 1000
LBearingChange: 0
UnicodeEnc: 0
InstructionsLength: 0
EndUndoOperation
UndoOperation
Index: 2
Type: 1
WasModified: 0
WasOrder2: 1
Layer: 2
Width: 731
VWidth: 1000
LBearingChange: 0
UnicodeEnc: 0
InstructionsLength: 0
EndUndoOperation
EndUndoes
Redoes
EndRedoes
EndUndoRedoHistory
UndoRedoHistory
Layer: 1
Undoes
UndoOperation
Index: 0
Type: 3
WasModified: 1
WasOrder2: 1
Layer: 2
EndUndoOperation
UndoOperation
Index: 1
Type: 3
WasModified: 1
WasOrder2: 1
Layer: 2
EndUndoOperation
UndoOperation
Index: 2
Type: 3
WasModified: 0
WasOrder2: 1
Layer: 2
EndUndoOperation
EndUndoes
Redoes
EndRedoes
EndUndoRedoHistory
Fore
SplineSet
456.944335938 420 m 1,0,1
 359.944335938 414 359.944335938 414 326.944335938 413 c 0,2,3
 317.944335938 412 317.944335938 412 300.944335938 412 c 1,4,5
 300.944335938 406 300.944335938 406 300.444335938 400 c 128,-1,6
 299.944335938 394 299.944335938 394 298.944335938 387 c 128,-1,7
 297.944335938 380 297.944335938 380 297.944335938 376 c 0,8,9
 292.944335938 326 292.944335938 326 292.944335938 266 c 1,10,-1
 294.944335938 266 l 2,11,12
 354.944335938 266 354.944335938 266 460.944335938 270 c 1,13,14
 458.944335938 305 458.944335938 305 456.944335938 374 c 2,15,-1
 456.944335938 420 l 1,0,1
44.9443359375 264 m 0,16,17
 82.9443359375 265 82.9443359375 265 175.944335938 265 c 2,18,-1
 227.944335938 265 l 1,19,20
 227.944335938 328 227.944335938 328 232.944335938 382 c 2,21,-1
 235.944335938 409 l 1,22,23
 149.944335938 407 149.944335938 407 52.9443359375 406 c 0,24,25
 39.9443359375 405 39.9443359375 405 30.4443359375 414.5 c 128,-1,26
 20.9443359375 424 20.9443359375 424 19.9443359375 438 c 0,27,28
 19.9443359375 451 19.9443359375 451 28.9443359375 460.5 c 128,-1,29
 37.9443359375 470 37.9443359375 470 51.9443359375 471 c 0,30,31
 182.944335938 472 182.944335938 472 242.944335938 475 c 1,32,33
 243.944335938 483 243.944335938 483 245.944335938 501 c 0,34,35
 255.944335938 586 255.944335938 586 257.944335938 607 c 0,36,37
 263.944335938 661 263.944335938 661 263.944335938 696 c 0,38,39
 263.944335938 710 263.944335938 710 272.944335938 719 c 128,-1,40
 281.944335938 728 281.944335938 728 295.944335938 728 c 128,-1,41
 309.944335938 728 309.944335938 728 319.444335938 718.5 c 128,-1,42
 328.944335938 709 328.944335938 709 328.944335938 696 c 0,43,44
 328.944335938 657 328.944335938 657 322.944335938 600 c 0,45,46
 321.944335938 594 321.944335938 594 320.444335938 576.5 c 128,-1,47
 318.944335938 559 318.944335938 559 316.944335938 548 c 0,48,49
 314.944335938 532 314.944335938 532 313.944335938 521 c 0,50,51
 313.944335938 517 313.944335938 517 309.944335938 493 c 0,52,53
 309.944335938 491 309.944335938 491 309.444335938 485.5 c 128,-1,54
 308.944335938 480 308.944335938 480 308.944335938 477 c 1,55,56
 318.944335938 477 318.944335938 477 324.944335938 478 c 0,57,58
 355.944335938 479 355.944335938 479 457.944335938 485 c 1,59,60
 458.944335938 495 458.944335938 495 459.444335938 517 c 128,-1,61
 459.944335938 539 459.944335938 539 459.944335938 550 c 0,62,63
 462.944335938 676 462.944335938 676 461.944335938 697 c 0,64,65
 461.944335938 711 461.944335938 711 471.444335938 720.5 c 128,-1,66
 480.944335938 730 480.944335938 730 493.944335938 730 c 0,67,68
 507.944335938 731 507.944335938 731 517.444335938 721.5 c 128,-1,69
 526.944335938 712 526.944335938 712 526.944335938 699 c 0,70,71
 527.944335938 677 527.944335938 677 524.944335938 548 c 0,72,73
 524.944335938 538 524.944335938 538 524.444335938 518 c 128,-1,74
 523.944335938 498 523.944335938 498 522.944335938 489 c 1,75,76
 587.944335938 493 587.944335938 493 677.944335938 501 c 0,77,78
 690.944335938 502 690.944335938 502 700.944335938 493.5 c 128,-1,79
 710.944335938 485 710.944335938 485 712.944335938 471 c 0,80,81
 713.944335938 457 713.944335938 457 704.944335938 447 c 128,-1,82
 695.944335938 437 695.944335938 437 682.944335938 436 c 0,83,84
 589.944335938 428 589.944335938 428 521.944335938 424 c 1,85,-1
 521.944335938 374 l 2,86,87
 523.944335938 306 523.944335938 306 525.944335938 273 c 1,88,89
 627.944335938 281 627.944335938 281 682.944335938 287 c 0,90,91
 696.944335938 289 696.944335938 289 706.944335938 280 c 128,-1,92
 716.944335938 271 716.944335938 271 717.944335938 258 c 128,-1,93
 718.944335938 245 718.944335938 245 710.944335938 234.5 c 128,-1,94
 702.944335938 224 702.944335938 224 689.944335938 222 c 0,95,96
 615.944335938 214 615.944335938 214 530.944335938 209 c 1,97,98
 531.944335938 203 531.944335938 203 533.444335938 192 c 128,-1,99
 534.944335938 181 534.944335938 181 535.944335938 175 c 0,100,101
 550.944335938 81 550.944335938 81 580.944335938 41 c 0,102,103
 588.944335938 31 588.944335938 31 586.944335938 17.5 c 128,-1,104
 584.944335938 4 584.944335938 4 573.944335938 -4 c 128,-1,105
 562.944335938 -12 562.944335938 -12 549.944335938 -10.5 c 128,-1,106
 536.944335938 -9 536.944335938 -9 528.944335938 2 c 0,107,108
 488.944335938 55 488.944335938 55 471.944335938 165 c 0,109,110
 467.944335938 191 467.944335938 191 465.944335938 205 c 1,111,112
 357.944335938 201 357.944335938 201 295.944335938 201 c 1,113,114
 295.944335938 198 295.944335938 198 296.444335938 193.5 c 128,-1,115
 296.944335938 189 296.944335938 189 296.944335938 187 c 0,116,117
 308.944335938 96 308.944335938 96 348.944335938 46 c 0,118,119
 356.944335938 36 356.944335938 36 355.444335938 22 c 128,-1,120
 353.944335938 8 353.944335938 8 343.944335938 0 c 128,-1,121
 333.944335938 -8 333.944335938 -8 319.944335938 -6.5 c 128,-1,122
 305.944335938 -5 305.944335938 -5 297.944335938 5 c 0,123,124
 246.944335938 69 246.944335938 69 232.944335938 179 c 0,125,126
 230.944335938 193 230.944335938 193 230.944335938 200 c 1,127,-1
 175.944335938 200 l 2,128,129
 83.9443359375 200 83.9443359375 200 45.9443359375 199 c 0,130,131
 32.9443359375 199 32.9443359375 199 22.9443359375 208.5 c 128,-1,132
 12.9443359375 218 12.9443359375 218 12.9443359375 231 c 0,133,134
 12.9443359375 245 12.9443359375 245 22.4443359375 254.5 c 128,-1,135
 31.9443359375 264 31.9443359375 264 44.9443359375 264 c 0,16,17
EndSplineSet
EndChar

StartChar: dollar
Encoding: 36 36 7
AltUni2: 00ff04.ffffffff.0 00fe69.ffffffff.0 00ff04.ffffffff.0 00fe69.ffffffff.0
Width: 535
GlyphClass: 1
Flags: W
LayerCount: 2
UndoRedoHistory
Layer: 0
Undoes
UndoOperation
Index: 0
Type: 1
WasModified: 0
WasOrder2: 1
Layer: 2
Width: 535
VWidth: 1000
LBearingChange: 0
UnicodeEnc: 0
InstructionsLength: 0
EndUndoOperation
EndUndoes
Redoes
EndRedoes
EndUndoRedoHistory
UndoRedoHistory
Layer: 1
Undoes
UndoOperation
Index: 0
Type: 3
WasModified: 0
WasOrder2: 1
Layer: 2
EndUndoOperation
UndoOperation
Index: 1
Type: 1
WasModified: 1
WasOrder2: 1
Layer: 2
Width: 595
VWidth: 1000
LBearingChange: 0
UnicodeEnc: 0
InstructionsLength: 0
SplineSet
364 119 m 5,0,1
 393 131 393 131 420 152 c 4,2,3
 482 197 482 197 480 244 c 4,4,5
 479 276 479 276 467 296 c 4,6,7
 457 311 457 311 440 319 c 4,8,9
 416 331 416 331 365 334 c 5,10,-1
 365 274 l 6,11,12
 365 237 365 237 364 223 c 6,13,-1
 364 119 l 5,0,1
160 440 m 4,14,15
 161 440 161 440 161 439 c 4,16,17
 163 438 163 438 167 437.5 c 132,-1,18
 171 437 171 437 173 437 c 4,19,20
 195 433 195 433 261 436 c 5,21,22
 262 446 262 446 262 466.5 c 132,-1,23
 262 487 262 487 263 497 c 4,24,25
 263 500 263 500 265 550 c 5,26,27
 259 549 259 549 254 545 c 4,28,29
 202 520 202 520 177 491 c 4,30,31
 157 465 157 465 160 440 c 4,14,15
437 580 m 4,32,33
 415 586 415 586 371 580 c 5,34,35
 370 557 370 557 369 541 c 132,-1,36
 368 525 368 525 367.5 512.5 c 132,-1,37
 367 500 367 500 367 494 c 4,38,39
 366 475 366 475 366 438 c 5,40,41
 380 438 380 438 402 436 c 4,42,43
 451 430 451 430 485 413 c 4,44,45
 580 367 580 367 584 249 c 4,46,47
 587 194 587 194 554 144 c 4,48,49
 529 103 529 103 483 68 c 4,50,51
 428 26 428 26 360 7 c 5,52,53
 357 -75 357 -75 348 -149 c 4,54,55
 346 -171 346 -171 329 -184.5 c 132,-1,56
 312 -198 312 -198 291 -195 c 4,57,58
 269 -193 269 -193 256 -176 c 132,-1,59
 243 -159 243 -159 245 -138 c 4,60,61
 252 -79 252 -79 255 -6 c 5,62,63
 189 -6 189 -6 89 14 c 4,64,65
 68 18 68 18 56 36 c 132,-1,66
 44 54 44 54 48 75 c 4,67,68
 53 96 53 96 70.5 108 c 132,-1,69
 88 120 88 120 109 116 c 4,70,71
 202 98 202 98 259 99 c 5,72,73
 260 136 260 136 260 223 c 6,74,-1
 260 274 l 5,75,-1
 260 332 l 5,76,77
 218 330 218 330 215 330 c 4,78,79
 179 330 179 330 156 334 c 4,80,81
 121 339 121 339 98 356 c 4,82,83
 66 378 66 378 58 417 c 4,84,85
 44 494 44 494 96 556 c 4,86,87
 135 606 135 606 209 640 c 4,88,89
 238 653 238 653 271 664 c 5,90,91
 274 730 274 730 272 764 c 4,92,93
 270 785 270 785 284 802 c 132,-1,94
 298 819 298 819 320 820 c 132,-1,95
 342 821 342 821 358 807 c 132,-1,96
 374 793 374 793 376 772 c 4,97,98
 377 741 377 741 376 686 c 5,99,100
 429 689 429 689 462 681 c 4,101,102
 483 677 483 677 494 658 c 132,-1,103
 505 639 505 639 500 618 c 4,104,105
 496 597 496 597 477 586 c 132,-1,106
 458 575 458 575 437 580 c 4,32,33
EndSplineSet
EndUndoOperation
EndUndoes
Redoes
EndRedoes
EndUndoRedoHistory
Fore
SplineSet
315.52734375 105.1328125 m 2,0,-1
 297.12890625 96.556640625 l 1,1,-1
 297.12890625 223.54296875 l 1,2,3
 298.016601562 237.54296875 298.016601562 237.54296875 298.016601562 274 c 2,4,-1
 298.016601562 349.908203125 l 1,5,-1
 312.125 348.973632812 l 2,6,7
 359.990234375 345.801757812 359.990234375 345.801757812 383.71484375 332.50390625 c 0,8,9
 404.0859375 322.72265625 404.0859375 322.72265625 416.563476562 304.0078125 c 1,10,11
 431.936523438 278.385742188 431.936523438 278.385742188 431.9375 241.064453125 c 0,12,13
 431.9375 188.029296875 431.9375 188.029296875 368.1484375 140 c 0,14,15
 342.8359375 117.862304688 342.8359375 117.862304688 315.52734375 105.1328125 c 2,0,-1
112.875 430.758789062 m 2,16,17
 111.483398438 442.353515625 111.483398438 442.353515625 111.483398438 446.5390625 c 0,18,19
 111.483398438 473.490234375 111.483398438 473.490234375 131.979492188 500.133789062 c 2,20,-1
 132.510742188 500.786132812 l 1,21,22
 158.072265625 531.787109375 158.072265625 531.787109375 205.8203125 557.866210938 c 0,23,24
 212.485351562 563.318359375 212.485351562 563.318359375 220.35546875 564.795898438 c 2,25,-1
 236.518554688 567.830078125 l 1,26,27
 234.098632812 499.6953125 234.098632812 499.6953125 234.098632812 497 c 2,28,-1
 234.098632812 496 l 2,29,30
 233.2109375 489.228515625 233.2109375 489.228515625 233.2109375 467.235351562 c 128,-1,31
 233.2109375 445.2421875 233.2109375 445.2421875 231.112304688 421.604492188 c 1,32,33
 194.204101562 419.713867188 194.204101562 419.713867188 173.00390625 419.713867188 c 0,34,35
 154.50390625 419.713867188 154.50390625 419.713867188 140.685546875 421.530273438 c 0,36,37
 126.154296875 423.346679688 126.154296875 423.346679688 122.403320312 425 c 1,38,-1
 113.56640625 425 l 1,39,-1
 113.006835938 429.662109375 l 1,40,-1
 112.875 430.758789062 l 2,16,17
300.689453125 525.640625 m 128,-1,42
 302.473632812 557.8046875 302.473632812 557.8046875 303.838867188 593.170898438 c 1,43,44
 335.275390625 598 335.275390625 598 351.198242188 598 c 128,-1,45
 367.120117188 598 367.120117188 598 378.525390625 594.543945312 c 0,46,47
 382.736328125 593.4375 382.736328125 593.4375 386.8046875 593.4375 c 0,48,49
 396.783203125 593.4375 396.783203125 593.4375 406.375976562 598.991210938 c 0,50,51
 419.03515625 606.3203125 419.03515625 606.3203125 422.282226562 621.482421875 c 0,52,53
 423.4375 626.334960938 423.4375 626.334960938 423.4375 633.622070312 c 128,-1,54
 423.4375 640.908203125 423.4375 640.908203125 417.883789062 650.500976562 c 0,55,56
 410.575195312 663.124023438 410.575195312 663.124023438 395.333984375 666.420898438 c 0,57,58
 374.537109375 671.818359375 374.537109375 671.818359375 345.44140625 671.818359375 c 0,59,60
 334.3125 671.818359375 334.3125 671.818359375 307.5234375 670.110351562 c 1,61,62
 308.225585938 713.638671875 308.225585938 713.638671875 308.225585938 734.770507812 c 128,-1,63
 308.225585938 755.90234375 308.225585938 755.90234375 307.802734375 771.005859375 c 0,64,65
 306.436523438 785.772460938 306.436523438 785.772460938 296.649414062 795.419921875 c 128,-1,66
 286.861328125 805.06640625 286.861328125 805.06640625 273.963867188 805.06640625 c 0,67,68
 258.915039062 805.06640625 258.915039062 805.06640625 250.390625 793.407226562 c 128,-1,69
 241.866210938 781.747070312 241.866210938 781.747070312 241.866210938 769.1875 c 0,70,71
 241.866210938 767.799804688 241.866210938 767.799804688 242.333007812 759.32421875 c 128,-1,72
 242.797851562 750.84765625 242.797851562 750.84765625 242.797851562 727.05078125 c 128,-1,73
 242.797851562 703.25390625 242.797851562 703.25390625 240.771484375 653.024414062 c 1,74,75
 203.422851562 639.000976562 203.422851562 639.000976562 178.280273438 626.3046875 c 0,76,77
 111.450195312 593.890625 111.450195312 593.890625 74.708984375 546.786132812 c 1,78,-1
 74.3720703125 546.370117188 l 1,79,80
 36.9052734375 501.698242188 36.9052734375 501.698242188 36.9052734375 448.9921875 c 0,81,82
 36.9052734375 434.77734375 36.9052734375 434.77734375 39.6025390625 419.86328125 c 0,83,84
 46.4189453125 386.889648438 46.4189453125 386.889648438 73.5703125 368.223632812 c 0,85,86
 92.9052734375 353.932617188 92.9052734375 353.932617188 125.458984375 348.778320312 c 0,87,88
 147.181640625 345 147.181640625 345 178.170898438 345 c 0,89,90
 180.51171875 345 180.51171875 345 231.435546875 347.731445312 c 1,91,-1
 231.435546875 223 l 2,92,93
 231.435546875 135.793945312 231.435546875 135.793945312 230.19921875 84.25390625 c 1,94,95
 214.68359375 83.947265625 214.68359375 83.947265625 211.81640625 83.947265625 c 0,96,97
 160.997070312 83.947265625 160.997070312 83.947265625 73.0126953125 101.2734375 c 0,98,99
 69.197265625 102 69.197265625 102 65.59375 102 c 0,100,101
 55.146484375 102 55.146484375 102 45.8427734375 95.6201171875 c 0,102,103
 33.251953125 86.986328125 33.251953125 86.986328125 29.548828125 71.8515625 c 0,104,105
 28.890625 66.58984375 28.890625 66.58984375 28.875 64.6875 c 0,106,107
 28.875 54.0400390625 28.875 54.0400390625 35.3642578125 44.3056640625 c 0,108,109
 43.861328125 31.560546875 43.861328125 31.560546875 58.6943359375 28.7353515625 c 0,110,111
 156.416015625 9 156.416015625 9 213.680664062 9 c 2,112,-1
 227.5546875 9 l 1,113,114
 224.3046875 -80.0927734375 224.3046875 -80.0927734375 218.045898438 -139.59765625 c 0,115,116
 217.883789062 -142.51953125 217.883789062 -142.51953125 217.8828125 -143.529296875 c 0,117,118
 217.8828125 -156.192382812 217.8828125 -156.192382812 225.5078125 -167.423828125 c 0,119,120
 234.415039062 -180.545898438 234.415039062 -180.545898438 252.30078125 -180.545898438 c 0,121,122
 262.384765625 -180.545898438 262.384765625 -180.545898438 272.051757812 -171.8984375 c 128,-1,123
 281.71875 -163.250976562 281.71875 -163.250976562 282.998046875 -147.399414062 c 0,124,125
 290.943359375 -73.8046875 290.943359375 -73.8046875 293.94140625 18.5009765625 c 1,126,-1
 303.307617188 21.44921875 l 2,127,128
 361.22265625 39.6767578125 361.22265625 39.6767578125 410.783203125 79.9287109375 c 0,129,130
 454.538085938 113.219726562 454.538085938 113.219726562 478.05859375 151.79296875 c 2,131,-1
 478.346679688 152.247070312 l 2,132,133
 506.125 194.3359375 506.125 194.3359375 506.125 239.868164062 c 0,134,135
 506.125 243.99609375 506.125 243.99609375 505.897460938 248.171875 c 2,136,-1
 505.883789062 248.483398438 l 1,137,138
 502.190429688 357.443359375 502.190429688 357.443359375 415.266601562 399.532226562 c 0,139,140
 383.849609375 415.384765625 383.849609375 415.384765625 342.751953125 421.083007812 c 0,141,142
 318.421875 422.979492188 318.421875 422.979492188 312.219726562 423 c 2,143,-1
 298.904296875 423 l 1,144,-1
 298.904296875 438 l 2,145,41
 298.904296875 493.475585938 298.904296875 493.475585938 300.689453125 525.640625 c 128,-1,42
EndSplineSet
EndChar

StartChar: percent
Encoding: 37 37 8
AltUni2: 00ff05.ffffffff.0 00fe6a.ffffffff.0 00066a.ffffffff.0 00ff05.ffffffff.0 00fe6a.ffffffff.0 00066a.ffffffff.0
Width: 671
GlyphClass: 1
Flags: W
LayerCount: 2
UndoRedoHistory
Layer: 0
Undoes
UndoOperation
Index: 0
Type: 1
WasModified: 0
WasOrder2: 1
Layer: 2
Width: 671
VWidth: 1000
LBearingChange: 0
UnicodeEnc: 0
InstructionsLength: 0
EndUndoOperation
EndUndoes
Redoes
EndRedoes
EndUndoRedoHistory
UndoRedoHistory
Layer: 1
Undoes
UndoOperation
Index: 0
Type: 3
WasModified: 0
WasOrder2: 1
Layer: 2
EndUndoOperation
UndoOperation
Index: 1
Type: 1
WasModified: 1
WasOrder2: 1
Layer: 2
Width: 731
VWidth: 1000
LBearingChange: 0
UnicodeEnc: 0
InstructionsLength: 0
SplineSet
563 158 m 5,0,1
 548 155 548 155 536 159 c 5,2,3
 515 149 515 149 501 125 c 132,-1,4
 487 101 487 101 488 78 c 4,5,6
 488 62 488 62 494 57 c 4,7,8
 500 53 500 53 505 52 c 4,9,10
 517 50 517 50 534 53 c 4,11,12
 552 56 552 56 561 73 c 4,13,14
 571 95 571 95 568 131 c 4,15,16
 567 143 567 143 563 158 c 5,0,1
528 256 m 5,17,18
 554 275 554 275 584 270.5 c 132,-1,19
 614 266 614 266 635 240 c 4,20,21
 666 203 666 203 672 142 c 4,22,23
 678 80 678 80 655 29 c 4,24,25
 623 -40 623 -40 550 -50 c 4,26,27
 475 -62 475 -62 428 -23 c 4,28,29
 384 13 384 13 384 77 c 4,30,31
 383 130 383 130 413 180 c 132,-1,32
 443 230 443 230 492 253 c 4,33,34
 507 261 507 261 528 256 c 5,17,18
218 584 m 5,35,36
 203 581 203 581 191 585 c 5,37,38
 170 575 170 575 156 551 c 132,-1,39
 142 527 142 527 143 504 c 4,40,41
 143 488 143 488 150 483 c 4,42,43
 152 481 152 481 160 478 c 4,44,45
 172 476 172 476 189 479 c 4,46,47
 208 482 208 482 216 500 c 4,48,49
 226 521 226 521 223 558 c 4,50,51
 222 569 222 569 218 584 c 5,35,36
183 683 m 5,52,53
 210 702 210 702 239.5 697 c 132,-1,54
 269 692 269 692 290 666 c 4,55,56
 321 629 321 629 327 568 c 4,57,58
 333 508 333 508 310 455 c 4,59,60
 278 388 278 388 205 376 c 4,61,62
 130 364 130 364 83 403 c 4,63,64
 39 439 39 439 39 503 c 4,65,66
 38 556 38 556 68 606 c 132,-1,67
 98 656 98 656 147 679 c 4,68,69
 163 688 163 688 183 683 c 5,52,53
109 -18 m 4,70,71
 162 145 162 145 331 368 c 4,72,73
 490 574 490 574 635 694 c 4,74,75
 651 708 651 708 673 706 c 132,-1,76
 695 704 695 704 708 687 c 4,77,78
 722 671 722 671 719.5 649.5 c 132,-1,79
 717 628 717 628 701 614 c 4,80,81
 562 498 562 498 414 305 c 4,82,83
 256 97 256 97 208 -50 c 4,84,85
 202 -70 202 -70 182.5 -80 c 132,-1,86
 163 -90 163 -90 143 -84 c 4,87,88
 123 -77 123 -77 112.5 -58 c 132,-1,89
 102 -39 102 -39 109 -18 c 4,70,71
EndSplineSet
EndUndoOperation
EndUndoes
Redoes
EndRedoes
EndUndoRedoHistory
Fore
SplineSet
516.3125 59.376953125 m 1,0,1
 504.547851562 28.78515625 504.547851562 28.78515625 481.219726562 23.4326171875 c 0,2,3
 470.564453125 21.2001953125 470.564453125 21.2001953125 462.879882812 21.2001953125 c 128,-1,4
 455.196289062 21.2001953125 455.196289062 21.2001953125 448.526367188 22.7861328125 c 128,-1,5
 441.856445312 24.5283203125 441.856445312 24.5283203125 433.392578125 32.4755859375 c 1,6,7
 422.18359375 46.056640625 422.18359375 46.056640625 422.18359375 80.84375 c 0,8,9
 422.18359375 106.655273438 422.18359375 106.655273438 436.755859375 133.60546875 c 128,-1,10
 451.330078125 160.556640625 451.330078125 160.556640625 474.6796875 172.55078125 c 2,11,-1
 479.727539062 175.14453125 l 1,12,13
 489.266601562 171.713867188 489.266601562 171.713867188 493.796875 171.713867188 c 128,-1,14
 498.327148438 171.713867188 498.327148438 171.713867188 515.749023438 175.47265625 c 1,15,-1
 519.111328125 161.870117188 l 2,16,17
 524.85546875 138.630859375 524.85546875 138.630859375 524.85546875 112.650390625 c 0,18,19
 524.85546875 82.7275390625 524.85546875 82.7275390625 516.3125 59.376953125 c 1,0,1
476.247070312 239.802734375 m 1,20,21
 464.098632812 242.922851562 464.098632812 242.922851562 457.995117188 242.922851562 c 0,22,23
 452.248046875 242.922851562 452.248046875 242.922851562 445.75390625 239.413085938 c 0,24,25
 404.176757812 218.360351562 404.176757812 218.360351562 378.897460938 172.909179688 c 128,-1,26
 353.6171875 127.458007812 353.6171875 127.458007812 353.6171875 80.416015625 c 0,27,28
 353.6171875 78.712890625 353.6171875 78.712890625 353.64453125 77.0048828125 c 2,29,-1
 353.64453125 77 l 2,30,31
 353.64453125 12.6318359375 353.64453125 12.6318359375 389.326171875 -22.9951171875 c 0,32,33
 418.861328125 -52.8232421875 418.861328125 -52.8232421875 462.342773438 -52.8232421875 c 0,34,35
 474.962890625 -52.8232421875 474.962890625 -52.8232421875 491.721679688 -50.0009765625 c 0,36,37
 553.880859375 -40.037109375 553.880859375 -40.037109375 582.427734375 28.9091796875 c 0,38,39
 599.318359375 69.306640625 599.318359375 69.306640625 599.318359375 116.815429688 c 0,40,41
 599.318359375 128.438476562 599.318359375 128.438476562 598.146484375 140.540039062 c 0,42,43
 592.669921875 196.223632812 592.669921875 196.223632812 564.401367188 230.584960938 c 0,44,45
 543.58203125 256.361328125 543.58203125 256.361328125 514.625976562 256.361328125 c 0,46,47
 497.251953125 256.361328125 497.251953125 256.361328125 481.420898438 243.881835938 c 2,48,-1
 476.247070312 239.802734375 l 1,20,21
205.043945312 541.775390625 m 0,49,50
 205.043945312 512.88671875 205.043945312 512.88671875 196.645507812 493.737304688 c 0,51,52
 186.155273438 468.514648438 186.155273438 468.514648438 161.291992188 464.206054688 c 0,53,54
 143.103515625 460.786132812 143.103515625 460.786132812 127.169921875 463.442382812 c 1,55,56
 115.291015625 467.897460938 115.291015625 467.897460938 111.350585938 471.547851562 c 0,57,58
 99.1474609375 481.081054688 99.1474609375 481.081054688 99.0771484375 503.671875 c 0,59,60
 99.009765625 505.369140625 99.009765625 505.369140625 99.009765625 507.071289062 c 0,61,62
 99.009765625 536.3359375 99.009765625 536.3359375 114.73046875 567.1640625 c 0,63,64
 130.452148438 598.255859375 130.452148438 598.255859375 154.8671875 612.09375 c 2,65,66
 157.391601562 631.301757812 157.391601562 631.301757812 159.915039062 615.375 c 1,67,68
 169.455078125 612.713867188 169.455078125 612.713867188 173.984375 612.713867188 c 128,-1,69
 178.514648438 612.713867188 178.514648438 612.713867188 195.936523438 616.181640625 c 1,70,71
 203.309570312 576.891601562 203.309570312 576.891601562 204.34375 560.73046875 c 2,72,73
 204.350585938 562.600585938 204.350585938 562.600585938 204.35546875 560.51171875 c 2,74,75
 205.043945312 550.688476562 205.043945312 550.688476562 205.043945312 541.775390625 c 0,49,50
156.211914062 681.333984375 m 1,76,77
 145.073242188 684.786132812 145.073242188 684.786132812 138.68359375 684.786132812 c 0,78,79
 132.924804688 684.786132812 132.924804688 684.786132812 124.436523438 678.9921875 c 0,80,81
 79.5859375 656.083984375 79.5859375 656.083984375 52.314453125 606.626953125 c 0,82,83
 25.044921875 557.383789062 25.044921875 557.383789062 25.044921875 506.416015625 c 0,84,85
 25.044921875 504.854492188 25.044921875 504.854492188 25.07421875 503.288085938 c 2,86,-1
 25.07421875 503 l 2,87,88
 25.07421875 446.10546875 25.07421875 446.10546875 63.564453125 414.614257812 c 0,89,90
 95.42578125 388.176757812 95.42578125 388.176757812 142.33203125 388.176757812 c 0,91,92
 226.01953125 388.176757812 226.01953125 388.176757812 258.482421875 461.208007812 c 0,93,94
 274.149414062 500.290039062 274.149414062 500.290039062 274.149414062 543.471679688 c 0,95,96
 274.149414062 555.564453125 274.149414062 555.564453125 273.068359375 567.984375 c 0,97,98
 267.986328125 628.688476562 267.986328125 628.688476562 241.783203125 666.115234375 c 0,99,100
 221.974609375 698.041992188 221.974609375 698.041992188 194.498046875 698.041992188 c 0,101,102
 177.630859375 698.041992188 177.630859375 698.041992188 161.40625 682.9921875 c 2,103,104
 158.80859375 687.80078125 158.80859375 687.80078125 156.211914062 681.333984375 c 1,76,77
94.345703125 -27.3798828125 m 0,105,106
 92.2763671875 -31.3466796875 92.2763671875 -31.3466796875 92.2763671875 -35.7861328125 c 0,107,108
 92.2763671875 -46.09375 92.2763671875 -46.09375 96.7138671875 -58.015625 c 0,109,110
 104.361328125 -77.2919921875 104.361328125 -77.2919921875 118.706054688 -84.4365234375 c 0,111,112
 126.10546875 -86.1904296875 126.10546875 -86.1904296875 131.935546875 -86.22265625 c 128,-1,113
 137.764648438 -86.259765625 137.764648438 -86.259765625 146.622070312 -79.9912109375 c 0,114,115
 159.208007812 -70.1875 159.208007812 -70.1875 163.37109375 -50.001953125 c 0,116,117
 208.590820312 101.326171875 208.590820312 101.326171875 356.473632812 314.061523438 c 0,118,119
 494.58203125 515.532226562 494.58203125 515.532226562 632.330078125 636.915039062 c 0,120,121
 645.955078125 644.3828125 645.955078125 644.3828125 645.955078125 655.888671875 c 0,122,123
 645.955078125 673.231445312 645.955078125 673.231445312 637.45703125 687.381835938 c 0,124,125
 626.9453125 706.25 626.9453125 706.25 608.669921875 706.25 c 0,126,127
 595.983398438 706.25 595.983398438 706.25 585.630859375 693.995117188 c 0,128,129
 448.0625 570.822265625 448.0625 570.822265625 301.625 358.846679688 c 0,130,131
 146.456054688 135.223632812 146.456054688 135.223632812 94.345703125 -27.3798828125 c 0,105,106
EndSplineSet
EndChar

StartChar: ampersand
Encoding: 38 38 9
AltUni2: 00ff06.ffffffff.0 00fe60.ffffffff.0 00ff06.ffffffff.0 00fe60.ffffffff.0
Width: 650
GlyphClass: 1
Flags: W
LayerCount: 2
UndoRedoHistory
Layer: 0
Undoes
UndoOperation
Index: 0
Type: 1
WasModified: 0
WasOrder2: 1
Layer: 2
Width: 650
VWidth: 1000
LBearingChange: 0
UnicodeEnc: 0
InstructionsLength: 0
EndUndoOperation
EndUndoes
Redoes
EndRedoes
EndUndoRedoHistory
UndoRedoHistory
Layer: 1
Undoes
UndoOperation
Index: 0
Type: 3
WasModified: 0
WasOrder2: 1
Layer: 2
EndUndoOperation
EndUndoes
Redoes
EndRedoes
EndUndoRedoHistory
Fore
SplineSet
355 738 m 0,0,1
 310 731 310 731 253.5 678.5 c 128,-1,2
 197 626 197 626 167 566 c 0,3,4
 153 536 153 536 149 517 c 128,-1,5
 145 498 145 498 145 457 c 128,-1,6
 145 416 145 416 156 367 c 128,-1,7
 167 318 167 318 175 303 c 128,-1,8
 183 288 183 288 183 281 c 2,9,-1
 153 228 l 1,10,11
 63 101 63 101 63 18 c 0,12,13
 63 -12 63 -12 66.5 -19.5 c 128,-1,14
 70 -27 70 -27 93 -42 c 0,15,16
 160 -87 160 -87 261.5 -75.5 c 128,-1,17
 363 -64 363 -64 437 -4 c 1,18,-1
 467 18 l 1,19,-1
 497 -4 l 1,20,21
 527 -34 527 -34 557 -34 c 2,22,-1
 587 -34 l 1,23,-1
 587 33 l 1,24,25
 580 41 580 41 568.5 41 c 128,-1,26
 557 41 557 41 543 56 c 2,27,-1
 527 71 l 1,28,-1
 557 108 l 1,29,-1
 505 161 l 1,30,-1
 490 146 l 1,31,32
 467 131 467 131 463.5 131 c 128,-1,33
 460 131 460 131 396.5 187 c 128,-1,34
 333 243 333 243 310 266 c 2,35,-1
 287 288 l 1,36,-1
 303 318 l 1,37,38
 385 423 385 423 430 509.5 c 128,-1,39
 475 596 475 596 475 641 c 128,-1,40
 475 686 475 686 467.5 704.5 c 128,-1,41
 460 723 460 723 437.5 734.5 c 128,-1,42
 415 746 415 746 400 746 c 128,-1,43
 385 746 385 746 355 738 c 0,0,1
340 641 m 0,44,45
 377 663 377 663 388.5 663 c 128,-1,46
 400 663 400 663 393 633 c 0,47,48
 377 566 377 566 303 453 c 2,49,-1
 257 386 l 2,50,51
 243 371 243 371 239 371 c 128,-1,52
 235 371 235 371 227 393 c 0,53,54
 205 476 205 476 242.5 539.5 c 128,-1,55
 280 603 280 603 340 641 c 0,44,45
213 176 m 2,56,-1
 243 221 l 1,57,-1
 347 123 l 1,58,-1
 407 71 l 1,59,60
 415 71 415 71 389 52 c 128,-1,61
 363 33 363 33 329 18 c 128,-1,62
 295 3 295 3 246 3 c 128,-1,63
 197 3 197 3 167 10.5 c 128,-1,64
 137 18 137 18 137 29.5 c 128,-1,65
 137 41 137 41 160 89.5 c 128,-1,66
 183 138 183 138 213 176 c 2,56,-1
EndSplineSet
EndChar

StartChar: quotesingle
Encoding: 39 39 10
AltUni2: 000374.ffffffff.0 00ff07.ffffffff.0 002032.ffffffff.0 002019.ffffffff.0 0002c8.ffffffff.0 0002bc.ffffffff.0 0002b9.ffffffff.0 00ff07.ffffffff.0 002032.ffffffff.0 002019.ffffffff.0 0002c8.ffffffff.0 0002bc.ffffffff.0 0002b9.ffffffff.0
Width: 166
GlyphClass: 1
Flags: W
LayerCount: 2
UndoRedoHistory
Layer: 0
Undoes
UndoOperation
Index: 0
Type: 1
WasModified: 0
WasOrder2: 1
Layer: 2
Width: 166
VWidth: 1000
LBearingChange: 0
UnicodeEnc: 0
InstructionsLength: 0
EndUndoOperation
EndUndoes
Redoes
EndRedoes
EndUndoRedoHistory
UndoRedoHistory
Layer: 1
Undoes
UndoOperation
Index: 0
Type: 3
WasModified: 0
WasOrder2: 1
Layer: 2
EndUndoOperation
UndoOperation
Index: 1
Type: 1
WasModified: 1
WasOrder2: 1
Layer: 2
Width: 166
VWidth: 1000
LBearingChange: 0
UnicodeEnc: 0
InstructionsLength: 0
SplineSet
136.849609375 710.400390625 m 4,0,1
 136.849609375 676.099609375 136.849609375 676.099609375 137.549804688 652.299804688 c 4,2,3
 137.549804688 642.5 137.549804688 642.5 138.25 632.700195312 c 4,4,5
 138.950195312 593.5 138.950195312 593.5 138.950195312 553.599609375 c 4,6,7
 138.950195312 538.200195312 138.950195312 538.200195312 128.450195312 527.700195312 c 132,-1,8
 117.950195312 517.200195312 117.950195312 517.200195312 102.549804688 517.200195312 c 132,-1,9
 87.150390625 517.200195312 87.150390625 517.200195312 76.650390625 527.700195312 c 132,-1,10
 66.150390625 538.200195312 66.150390625 538.200195312 66.150390625 553.599609375 c 4,11,12
 66.150390625 592.099609375 66.150390625 592.099609375 65.4501953125 631.299804688 c 4,13,14
 64.75 641.099609375 64.75 641.099609375 64.75 650.900390625 c 4,15,16
 64.0498046875 674.700195312 64.0498046875 674.700195312 64.0498046875 710.400390625 c 4,17,18
 64.0498046875 725.799804688 64.0498046875 725.799804688 74.5498046875 736.299804688 c 132,-1,19
 85.0498046875 746.799804688 85.0498046875 746.799804688 100.450195312 746.799804688 c 132,-1,20
 115.849609375 746.799804688 115.849609375 746.799804688 126.349609375 736.299804688 c 132,-1,21
 136.849609375 725.799804688 136.849609375 725.799804688 136.849609375 710.400390625 c 4,0,1
EndSplineSet
EndUndoOperation
UndoOperation
Index: 2
Type: 3
WasModified: 1
WasOrder2: 1
Layer: 2
EndUndoOperation
UndoOperation
Index: 3
Type: 3
WasModified: 1
WasOrder2: 1
Layer: 2
EndUndoOperation
UndoOperation
Index: 4
Type: 3
WasModified: 1
WasOrder2: 1
Layer: 2
EndUndoOperation
UndoOperation
Index: 5
Type: 3
WasModified: 1
WasOrder2: 1
Layer: 2
EndUndoOperation
UndoOperation
Index: 6
Type: 1
WasModified: 0
WasOrder2: 1
Layer: 2
Width: 166
VWidth: 1000
LBearingChange: 0
UnicodeEnc: 0
InstructionsLength: 0
SplineSet
152 744 m 4,0,1
 152 695 152 695 153 661 c 4,2,3
 153 647 153 647 154 633 c 4,4,5
 155 577 155 577 155 520 c 4,6,7
 155 498 155 498 140 483 c 132,-1,8
 125 468 125 468 103 468 c 132,-1,9
 81 468 81 468 66 483 c 132,-1,10
 51 498 51 498 51 520 c 4,11,12
 51 575 51 575 50 631 c 4,13,14
 49 645 49 645 49 659 c 4,15,16
 48 693 48 693 48 744 c 4,17,18
 48 766 48 766 63 781 c 132,-1,19
 78 796 78 796 100 796 c 132,-1,20
 122 796 122 796 137 781 c 132,-1,21
 152 766 152 766 152 744 c 4,0,1
EndSplineSet
EndUndoOperation
UndoOperation
Index: 7
Type: 3
WasModified: 0
WasOrder2: 1
Layer: 2
EndUndoOperation
UndoOperation
Index: 8
Type: 1
WasModified: 1
WasOrder2: 1
Layer: 2
Width: 166
VWidth: 1000
LBearingChange: 0
UnicodeEnc: 0
InstructionsLength: 0
EndUndoOperation
EndUndoes
Redoes
EndRedoes
EndUndoRedoHistory
Fore
SplineSet
125.047851562 707.021484375 m 4,0,1
 122.05859375 672.850585938 122.05859375 672.850585938 120.681640625 649.081054688 c 4,2,3
 119.828125 639.318359375 119.828125 639.318359375 119.670898438 629.494140625 c 4,4,5
 116.952148438 590.3828125 116.952148438 590.3828125 113.474609375 550.633789062 c 4,6,7
 112.1328125 535.29296875 112.1328125 535.29296875 100.756835938 525.748046875 c 132,-1,8
 89.3818359375 516.203125 89.3818359375 516.203125 74.0400390625 517.545898438 c 132,-1,9
 58.69921875 518.887695312 58.69921875 518.887695312 49.154296875 530.262695312 c 132,-1,10
 39.609375 541.637695312 39.609375 541.637695312 40.9521484375 556.978515625 c 4,11,12
 44.3076171875 595.33203125 44.3076171875 595.33203125 47.0263671875 634.444335938 c 4,13,14
 47.1826171875 644.267578125 47.1826171875 644.267578125 48.037109375 654.03125 c 4,15,16
 49.4140625 677.801757812 49.4140625 677.801757812 52.525390625 713.366210938 c 4,17,18
 53.8671875 728.70703125 53.8671875 728.70703125 65.2431640625 738.251953125 c 132,-1,19
 76.6181640625 747.796875 76.6181640625 747.796875 91.9599609375 746.454101562 c 132,-1,20
 107.30078125 745.112304688 107.30078125 745.112304688 116.845703125 733.737304688 c 132,-1,21
 126.390625 722.362304688 126.390625 722.362304688 125.047851562 707.021484375 c 4,0,1
EndSplineSet
EndChar

StartChar: parenleft
Encoding: 40 40 11
AltUni2: 00ff08.ffffffff.0 00fe59.ffffffff.0 00fe35.ffffffff.0 00208d.ffffffff.0 00207d.ffffffff.0 00ff08.ffffffff.0 00fe59.ffffffff.0 00fe35.ffffffff.0 00208d.ffffffff.0 00207d.ffffffff.0
Width: 360
GlyphClass: 1
Flags: W
LayerCount: 2
UndoRedoHistory
Layer: 0
Undoes
UndoOperation
Index: 0
Type: 1
WasModified: 0
WasOrder2: 1
Layer: 2
Width: 360
VWidth: 1000
LBearingChange: 0
UnicodeEnc: 0
InstructionsLength: 0
EndUndoOperation
EndUndoes
Redoes
EndRedoes
EndUndoRedoHistory
UndoRedoHistory
Layer: 1
Undoes
UndoOperation
Index: 0
Type: 3
WasModified: 0
WasOrder2: 1
Layer: 2
EndUndoOperation
UndoOperation
Index: 1
Type: 1
WasModified: 0
WasOrder2: 1
Layer: 2
Width: 360
VWidth: 1000
LBearingChange: 0
UnicodeEnc: 0
InstructionsLength: 0
SplineSet
316 676 m 0,0,1
 266 656 266 656 229.5 578.5 c 128,-1,2
 193 501 193 501 176 382 c 0,3,4
 162 276 162 276 165 171 c 0,5,6
 168 73 168 73 182 29 c 0,7,8
 213 -78 213 -78 303 -148 c 0,9,10
 320 -161 320 -161 323 -182.5 c 128,-1,11
 326 -204 326 -204 313 -220 c 0,12,13
 300 -237 300 -237 278.5 -240 c 128,-1,14
 257 -243 257 -243 240 -230 c 0,15,16
 122 -140 122 -140 82 0 c 0,17,18
 64 62 64 62 61 174 c 128,-1,19
 58 286 58 286 73 396 c 0,20,21
 92 531 92 531 134 620 c 0,22,23
 189 737 189 737 278 773 c 0,24,25
 298 780 298 780 318 772 c 128,-1,26
 338 764 338 764 346 744 c 128,-1,27
 354 724 354 724 345 704 c 128,-1,28
 336 684 336 684 316 676 c 0,0,1
EndSplineSet
EndUndoOperation
EndUndoes
Redoes
EndRedoes
EndUndoRedoHistory
Fore
SplineSet
310.743164062 708.095703125 m 0,0,1
 314.6328125 716.737304688 314.6328125 716.737304688 314.6328125 724.698242188 c 128,-1,2
 314.6328125 732.658203125 314.6328125 732.658203125 311.579101562 740.291992188 c 0,3,4
 305.172851562 756.305664062 305.172851562 756.305664062 289.159179688 762.7109375 c 0,5,6
 280.270507812 766.266601562 280.270507812 766.266601562 272.141601562 766.266601562 c 128,-1,7
 264.01171875 766.266601562 264.01171875 766.266601562 256.385742188 763.633789062 c 0,8,9
 171.180664062 729.047851562 171.180664062 729.047851562 117.922851562 615.754882812 c 0,10,11
 76.5595703125 528.103515625 76.5595703125 528.103515625 57.76953125 394.595703125 c 0,12,13
 45.3671875 303.647460938 45.3671875 303.647460938 45.3671875 211.27734375 c 0,14,15
 45.3671875 75.484375 45.3671875 75.484375 66.47265625 2.7890625 c 0,16,17
 105.57421875 -134.065429688 105.57421875 -134.065429688 220.923828125 -222.043945312 c 0,18,19
 232.063476562 -230.5625 232.063476562 -230.5625 245.462890625 -230.5625 c 0,20,21
 266.810546875 -230.5625 266.810546875 -230.5625 280.103515625 -213.701171875 c 0,22,23
 288.4296875 -203.452148438 288.4296875 -203.452148438 288.4296875 -190.369140625 c 0,24,25
 288.4296875 -168.6640625 288.4296875 -168.6640625 271.80078125 -155.948242188 c 0,26,27
 179.21484375 -83.9365234375 179.21484375 -83.9365234375 147.296875 26.0927734375 c 0,28,29
 132.911132812 71.4228515625 132.911132812 71.4228515625 129.872070312 170.689453125 c 0,30,31
 129.337890625 189.384765625 129.337890625 189.384765625 129.337890625 208.08984375 c 0,32,33
 129.337890625 295.37109375 129.337890625 295.37109375 140.954101562 383.319335938 c 2,34,-1
 140.96875 383.424804688 l 2,35,36
 158.1796875 503.90234375 158.1796875 503.90234375 195.838867188 583.86328125 c 128,-1,37
 233.498046875 663.82421875 233.498046875 663.82421875 287.159179688 685.2890625 c 0,38,39
 303.404296875 691.787109375 303.404296875 691.787109375 310.743164062 708.095703125 c 0,0,1
EndSplineSet
Substitution2: "'rtla' Right to Left Alternates lookup 0 subtable" parenright
EndChar

StartChar: parenright
Encoding: 41 41 12
AltUni2: 00ff09.ffffffff.0 00fe5a.ffffffff.0 00fe36.ffffffff.0 00208e.ffffffff.0 00207e.ffffffff.0 00ff09.ffffffff.0 00fe5a.ffffffff.0 00fe36.ffffffff.0 00208e.ffffffff.0 00207e.ffffffff.0
Width: 323
GlyphClass: 1
Flags: W
LayerCount: 2
UndoRedoHistory
Layer: 0
Undoes
UndoOperation
Index: 0
Type: 1
WasModified: 0
WasOrder2: 1
Layer: 2
Width: 323
VWidth: 1000
LBearingChange: 0
UnicodeEnc: 0
InstructionsLength: 0
EndUndoOperation
EndUndoes
Redoes
EndRedoes
EndUndoRedoHistory
UndoRedoHistory
Layer: 1
Undoes
UndoOperation
Index: 0
Type: 3
WasModified: 0
WasOrder2: 1
Layer: 2
EndUndoOperation
UndoOperation
Index: 1
Type: 1
WasModified: 0
WasOrder2: 1
Layer: 2
Width: 323
VWidth: 1000
LBearingChange: 0
UnicodeEnc: 0
InstructionsLength: 0
SplineSet
149 755 m 0,0,1
 206 672 206 672 242 601 c 0,2,3
 285 514 285 514 303 425 c 0,4,5
 315 366 315 366 311.5 270 c 128,-1,6
 308 174 308 174 290 82 c 0,7,8
 268 -31 268 -31 229 -115 c 0,9,10
 183 -216 183 -216 112 -271 c 0,11,12
 96 -284 96 -284 74 -281 c 128,-1,13
 52 -278 52 -278 39 -261 c 128,-1,14
 26 -244 26 -244 29 -222.5 c 128,-1,15
 32 -201 32 -201 49 -188 c 0,16,17
 147 -113 147 -113 188 102 c 0,18,19
 205 182 205 182 208 278 c 0,20,21
 211 356 211 356 201 404 c 0,22,23
 186 478 186 478 149 554 c 0,24,25
 120 612 120 612 63 697 c 0,26,27
 51 714 51 714 55 735.5 c 128,-1,28
 59 757 59 757 77 769 c 128,-1,29
 95 781 95 781 116 777 c 128,-1,30
 137 773 137 773 149 755 c 0,0,1
EndSplineSet
EndUndoOperation
EndUndoes
Redoes
EndRedoes
EndUndoRedoHistory
Fore
SplineSet
96.8232421875 768 m 0,0,1
 84.6630859375 768 84.6630859375 768 73.6728515625 760.673828125 c 0,2,3
 55.1357421875 748.315429688 55.1357421875 748.315429688 55.1357421875 725.03125 c 0,4,5
 55.1357421875 713.184570312 55.1357421875 713.184570312 62.447265625 702.559570312 c 0,6,7
 119.801757812 617.030273438 119.801757812 617.030273438 149.0859375 558.462890625 c 0,8,9
 186.686523438 481.229492188 186.686523438 481.229492188 201.936523438 405.994140625 c 0,10,11
 209.828125 368.115234375 209.828125 368.115234375 209.828125 312.40234375 c 0,12,13
 209.828125 198.379882812 209.828125 198.379882812 188.939453125 100.016601562 c 0,14,15
 147.22265625 -118.63671875 147.22265625 -118.63671875 46.2060546875 -195.9453125 c 0,16,17
 29.5732421875 -208.6640625 29.5732421875 -208.6640625 29.5732421875 -230.404296875 c 0,18,19
 29.5732421875 -243.8046875 29.5732421875 -243.8046875 39.072265625 -256.225585938 c 0,20,21
 50.80078125 -271.5625 50.80078125 -271.5625 73.1748046875 -271.5625 c 0,22,23
 86.341796875 -271.5625 86.341796875 -271.5625 97.01953125 -263.08984375 c 0,24,25
 166.055664062 -209.611328125 166.055664062 -209.611328125 211.030273438 -110.86328125 c 0,26,27
 249.55078125 -27.8955078125 249.55078125 -27.8955078125 271.3203125 83.9189453125 c 0,28,29
 293.426757812 196.905273438 293.426757812 196.905273438 293.426757812 311.46875 c 0,30,31
 293.426757812 378.307617188 293.426757812 378.307617188 284.336914062 422.999023438 c 0,32,33
 266.590820312 510.741210938 266.590820312 510.741210938 224.166015625 596.579101562 c 0,34,35
 188.513671875 666.892578125 188.513671875 666.892578125 131.88671875 749.348632812 c 0,36,37
 119.266601562 768 119.266601562 768 96.8232421875 768 c 0,0,1
EndSplineSet
Substitution2: "'rtla' Right to Left Alternates lookup 0 subtable" parenleft
EndChar

StartChar: asterisk
Encoding: 42 42 13
AltUni2: 00ff0a.ffffffff.0 00fe61.ffffffff.0 002731.ffffffff.0 002217.ffffffff.0 00ff0a.ffffffff.0 00fe61.ffffffff.0 002731.ffffffff.0 002217.ffffffff.0
Width: 503
GlyphClass: 1
Flags: W
LayerCount: 2
UndoRedoHistory
Layer: 0
Undoes
UndoOperation
Index: 0
Type: 1
WasModified: 0
WasOrder2: 1
Layer: 2
Width: 503
VWidth: 1000
LBearingChange: 0
UnicodeEnc: 0
InstructionsLength: 0
EndUndoOperation
EndUndoes
Redoes
EndRedoes
EndUndoRedoHistory
UndoRedoHistory
Layer: 1
Undoes
UndoOperation
Index: 0
Type: 3
WasModified: 0
WasOrder2: 1
Layer: 2
EndUndoOperation
UndoOperation
Index: 1
Type: 1
WasModified: 0
WasOrder2: 1
Layer: 2
Width: 503
VWidth: 1000
LBearingChange: 0
UnicodeEnc: 0
InstructionsLength: 0
SplineSet
249 430 m 1,0,1
 242 420 242 420 222 394 c 128,-1,2
 202 368 202 368 190 352 c 0,3,4
 177 335 177 335 155.5 331.5 c 128,-1,5
 134 328 134 328 117 341 c 128,-1,6
 100 354 100 354 97 375.5 c 128,-1,7
 94 397 94 397 107 414 c 0,8,9
 118 429 118 429 138 455 c 1,10,11
 110 453 110 453 100 453 c 0,12,13
 78 452 78 452 62.5 467 c 128,-1,14
 47 482 47 482 47 504 c 0,15,16
 46 525 46 525 61 540.5 c 128,-1,17
 76 556 76 556 98 557 c 0,18,19
 106 557 106 557 134 559 c 1,20,21
 91 616 91 616 80 634 c 128,-1,22
 69 652 69 652 73.5 673 c 128,-1,23
 78 694 78 694 97 705 c 0,24,25
 115 717 115 717 136 712 c 128,-1,26
 157 707 157 707 168 689 c 0,27,28
 194 648 194 648 244 590 c 1,29,30
 245 591 245 591 251 598 c 128,-1,31
 257 605 257 605 260 609 c 0,32,33
 267 616 267 616 270 620 c 0,34,35
 273 623 273 623 301 656 c 0,36,37
 305 660 305 660 319.5 676.5 c 128,-1,38
 334 693 334 693 337 696 c 0,39,40
 351 712 351 712 372 713 c 128,-1,41
 393 714 393 714 410 700 c 0,42,43
 426 686 426 686 427.5 664.5 c 128,-1,44
 429 643 429 643 415 627 c 0,45,46
 412 624 412 624 397.5 607.5 c 128,-1,47
 383 591 383 591 379 587 c 0,48,49
 377 584 377 584 372 579 c 1,50,51
 427 572 427 572 463 554 c 0,52,53
 483 544 483 544 490 524 c 128,-1,54
 497 504 497 504 487 485 c 0,55,56
 477 465 477 465 457 458 c 128,-1,57
 437 451 437 451 417 461 c 0,58,59
 395 473 395 473 352 476 c 1,60,61
 393 438 393 438 417 426 c 0,62,63
 436 416 436 416 443 396 c 128,-1,64
 450 376 450 376 440 357 c 0,65,66
 430 337 430 337 410 330 c 128,-1,67
 390 323 390 323 370 333 c 0,68,69
 320 358 320 358 249 430 c 1,0,1
EndSplineSet
EndUndoOperation
EndUndoes
Redoes
EndRedoes
EndUndoRedoHistory
Fore
SplineSet
356.052734375 341.950195312 m 0,0,1
 365.717773438 337.1171875 365.717773438 337.1171875 373.68359375 337.1171875 c 128,-1,2
 381.649414062 337.1171875 381.649414062 337.1171875 388.2890625 339.44140625 c 0,3,4
 404.458984375 345.100585938 404.458984375 345.100585938 412.686523438 361.555664062 c 0,5,6
 417.47265625 370.6484375 417.47265625 370.6484375 417.47265625 378.354492188 c 128,-1,7
 417.47265625 386.059570312 417.47265625 386.059570312 415.1484375 392.69921875 c 0,8,9
 409.463867188 408.942382812 409.463867188 408.942382812 394.029296875 417.099609375 c 0,10,11
 368.771484375 429.760742188 368.771484375 429.760742188 326.795898438 468.665039062 c 2,12,-1
 305.98828125 487.950195312 l 1,13,-1
 334.294921875 485.975585938 l 2,14,15
 379.3125 482.834960938 379.3125 482.834960938 403.200195312 469.876953125 c 0,16,17
 419.34765625 461.861328125 419.34765625 461.861328125 435.403320312 467.481445312 c 128,-1,18
 451.458984375 473.100585938 451.458984375 473.100585938 459.686523438 489.555664062 c 0,19,20
 464.47265625 498.6484375 464.47265625 498.6484375 464.47265625 506.354492188 c 128,-1,21
 464.47265625 514.059570312 464.47265625 514.059570312 462.1484375 520.69921875 c 0,22,23
 456.489257812 536.869140625 456.489257812 536.869140625 440.127929688 545.049804688 c 0,24,25
 405.639648438 562.293945312 405.639648438 562.293945312 352.317382812 569.080078125 c 2,26,-1
 332.103515625 571.653320312 l 1,27,28
 350.041015625 589.58984375 350.041015625 589.58984375 367.956054688 609.9765625 c 128,-1,29
 385.87109375 630.362304688 385.87109375 630.362304688 389.2578125 633.805664062 c 0,30,31
 399.235351562 645.341796875 399.235351562 645.341796875 399.235351562 660.390625 c 0,32,33
 399.235351562 679.953125 399.235351562 679.953125 385.122070312 692.374023438 c 0,34,35
 372.072265625 703.06640625 372.072265625 703.06640625 356.372070312 703.06640625 c 0,36,37
 338.05859375 703.06640625 338.05859375 703.06640625 325.896484375 689.16796875 c 0,38,39
 322.889648438 686.16015625 322.889648438 686.16015625 308.603515625 669.903320312 c 128,-1,40
 294.311523438 653.640625 294.311523438 653.640625 289.962890625 649.235351562 c 0,41,42
 256.53125 609.834960938 256.53125 609.834960938 249.15625 602.427734375 c 0,43,44
 246.006835938 598.290039062 246.006835938 598.290039062 239.970703125 591.247070312 c 128,-1,45
 233.93359375 584.204101562 233.93359375 584.204101562 225.046875 575.317382812 c 1,46,47
 165.798828125 644.045898438 165.798828125 644.045898438 141.05078125 683.795898438 c 0,48,49
 132.228515625 698.233398438 132.228515625 698.233398438 115.268554688 702.271484375 c 0,50,51
 110.231445312 703.470703125 110.231445312 703.470703125 105.497070312 703.470703125 c 0,52,53
 94.322265625 703.470703125 94.322265625 703.470703125 83.86328125 696.498046875 c 0,54,55
 63.783203125 684.873046875 63.783203125 684.873046875 63.783203125 661.059570312 c 0,56,57
 63.783203125 649.587890625 63.783203125 649.587890625 70.12890625 639.204101562 c 0,58,59
 80.8740234375 621.622070312 80.8740234375 621.622070312 134.651367188 550.3359375 c 1,60,61
 88.3125 547.025390625 88.3125 547.025390625 79.837890625 547 c 0,62,63
 61.943359375 546.12109375 61.943359375 546.12109375 50.2353515625 534.0234375 c 128,-1,64
 38.52734375 521.924804688 38.52734375 521.924804688 38.52734375 506.603515625 c 0,65,66
 38.52734375 505.559570312 38.52734375 505.559570312 38.578125 504.482421875 c 2,67,-1
 38.58984375 504 l 2,68,69
 38.58984375 486.235351562 38.58984375 486.235351562 50.6279296875 474.586914062 c 128,-1,70
 62.6650390625 462.9375 62.6650390625 462.9375 78.865234375 462.9375 c 0,71,72
 79.978515625 462.9375 79.978515625 462.9375 81.12890625 462.989257812 c 2,73,-1
 81.58984375 463 l 2,74,75
 91.228515625 463 91.228515625 463 141.098632812 466.5625 c 1,76,77
 116.374023438 434.420898438 116.374023438 434.420898438 96.5380859375 407.93359375 c 0,78,79
 88.02734375 396.8046875 88.02734375 396.8046875 88.02734375 383.404296875 c 0,80,81
 88.02734375 361.6640625 88.02734375 361.6640625 104.65625 348.948242188 c 0,82,83
 115.3671875 340.7578125 115.3671875 340.7578125 128.170898438 340.7578125 c 0,84,85
 150.40625 340.7578125 150.40625 340.7578125 163.025390625 357.413085938 c 128,-1,86
 175.643554688 374.069335938 175.643554688 374.069335938 195.659179688 400.088867188 c 128,-1,87
 215.521484375 425.91015625 215.521484375 425.91015625 229.28125 445.56640625 c 1,88,-1
 237.708984375 437.01953125 l 2,89,90
 307.538085938 366.20703125 307.538085938 366.20703125 356.052734375 341.950195312 c 0,0,1
EndSplineSet
EndChar

StartChar: plus
Encoding: 43 43 14
AltUni2: 00ff0b.ffffffff.0 00fe62.ffffffff.0 00fb29.ffffffff.0 00208a.ffffffff.0 00207a.ffffffff.0 00ff0b.ffffffff.0 00fe62.ffffffff.0 00fb29.ffffffff.0 00208a.ffffffff.0 00207a.ffffffff.0
Width: 638
GlyphClass: 1
Flags: W
LayerCount: 2
UndoRedoHistory
Layer: 0
Undoes
UndoOperation
Index: 0
Type: 1
WasModified: 0
WasOrder2: 1
Layer: 2
Width: 638
VWidth: 1000
LBearingChange: 0
UnicodeEnc: 0
InstructionsLength: 0
EndUndoOperation
EndUndoes
Redoes
EndRedoes
EndUndoRedoHistory
UndoRedoHistory
Layer: 1
Undoes
UndoOperation
Index: 0
Type: 3
WasModified: 0
WasOrder2: 1
Layer: 2
EndUndoOperation
UndoOperation
Index: 1
Type: 1
WasModified: 0
WasOrder2: 1
Layer: 2
Width: 638
VWidth: 1000
LBearingChange: 0
UnicodeEnc: 0
InstructionsLength: 0
SplineSet
93 325 m 0,0,1
 126 321 126 321 177 324 c 0,2,3
 219 327 219 327 272 333 c 1,4,-1
 274 333 l 2,5,6
 275 334 275 334 278 334 c 1,7,-1
 278 343 l 2,8,9
 279 407 279 407 278 442 c 0,10,11
 277 487 277 487 270 534 c 0,12,13
 267 556 267 556 279.5 573 c 128,-1,14
 292 590 292 590 313 594 c 0,15,16
 335 597 335 597 352 584.5 c 128,-1,17
 369 572 369 572 373 550 c 0,18,19
 381 502 381 502 382 445 c 0,20,21
 383 408 383 408 382 344 c 1,22,23
 404 345 404 345 443 345 c 0,24,25
 543 340 543 340 604 300 c 0,26,27
 622 288 622 288 626.5 267 c 128,-1,28
 631 246 631 246 619 228 c 128,-1,29
 607 210 607 210 586 205.5 c 128,-1,30
 565 201 565 201 547 213 c 0,31,32
 509 238 509 238 439 241 c 0,33,34
 403 241 403 241 382 239 c 1,35,36
 384 205 384 205 386 186 c 0,37,38
 392 112 392 112 415 58 c 0,39,40
 422 38 422 38 414 18 c 128,-1,41
 406 -2 406 -2 386 -10 c 128,-1,42
 366 -18 366 -18 346 -9.5 c 128,-1,43
 326 -1 326 -1 318 19 c 0,44,45
 291 87 291 87 282 176 c 0,46,47
 279 203 279 203 279 229 c 1,48,49
 224 223 224 223 183 220 c 0,50,51
 125 217 125 217 83 221 c 0,52,53
 61 223 61 223 47.5 240 c 128,-1,54
 34 257 34 257 36 278 c 0,55,56
 38 300 38 300 55 313.5 c 128,-1,57
 72 327 72 327 93 325 c 0,0,1
EndSplineSet
EndUndoOperation
EndUndoes
Redoes
EndRedoes
EndUndoRedoHistory
Fore
SplineSet
165.158203125 309.026367188 m 2,0,1
 142.85546875 307.713867188 142.85546875 307.713867188 120.59765625 307.713867188 c 128,-1,2
 98.33984375 307.713867188 98.33984375 307.713867188 87.1064453125 308.985351562 c 128,-1,3
 75.873046875 310.255859375 75.873046875 310.255859375 74.9130859375 310.2578125 c 0,4,5
 62.2998046875 310.2578125 62.2998046875 310.2578125 50.9619140625 301.25390625 c 0,6,7
 38.0078125 290.966796875 38.0078125 290.966796875 38.0078125 272.647460938 c 0,8,9
 38.0078125 260.034179688 38.0078125 260.034179688 47.0107421875 248.696289062 c 128,-1,10
 56.0146484375 237.358398438 56.0146484375 237.358398438 71.638671875 235.9375 c 0,11,12
 94.986328125 233.713867188 94.986328125 233.713867188 119.96484375 233.713867188 c 128,-1,13
 144.943359375 233.713867188 144.943359375 233.713867188 169.318359375 234.971679688 c 0,14,15
 209.998046875 237.952148438 209.998046875 237.952148438 281.265625 245.7265625 c 1,16,-1
 281.265625 229 l 2,17,18
 281.265625 203.840820312 281.265625 203.840820312 284.172851562 177.671875 c 2,19,-1
 284.188476562 177.524414062 l 2,20,21
 292.979492188 90.5966796875 292.979492188 90.5966796875 319.212890625 24.52734375 c 0,22,23
 324.876953125 10.3662109375 324.876953125 10.3662109375 339.122070312 4.3115234375 c 0,24,25
 346.62890625 1.12109375 346.62890625 1.12109375 353.651367188 1.12109375 c 128,-1,26
 360.672851562 1.12109375 360.672851562 1.12109375 367.703125 3.93359375 c 0,27,28
 381.723632812 9.5419921875 381.723632812 9.5419921875 387.33203125 23.5625 c 0,29,30
 390.532226562 31.5625 390.532226562 31.5625 390.532226562 38.7333984375 c 128,-1,31
 390.532226562 45.904296875 390.532226562 45.904296875 388.250976562 52.62109375 c 0,32,33
 364.51171875 108.62109375 364.51171875 108.62109375 358.329101562 184.59375 c 0,34,35
 356.302734375 203.916015625 356.302734375 203.916015625 353.44140625 252.561523438 c 1,36,37
 389.54296875 256 389.54296875 256 426.265625 256 c 2,38,-1
 426.916992188 255.986328125 l 1,39,40
 501.045898438 252.809570312 501.045898438 252.809570312 542.494140625 225.540039062 c 0,41,42
 551.895507812 219.272460938 551.895507812 219.272460938 562.034179688 219.272460938 c 0,43,44
 582.420898438 219.272460938 582.420898438 219.272460938 593.775390625 236.305664062 c 0,45,46
 599.9921875 245.630859375 599.9921875 245.630859375 599.9921875 255.768554688 c 0,47,48
 599.9921875 276.155273438 599.9921875 276.155273438 582.959960938 287.510742188 c 0,49,50
 525.563476562 325.147460938 525.563476562 325.147460938 429.8828125 330 c 0,51,52
 391.611328125 330 391.611328125 330 354.018554688 328.291015625 c 1,53,54
 354.765625 376.119140625 354.765625 376.119140625 354.765625 401.25 c 128,-1,55
 354.765625 426.293945312 354.765625 426.293945312 354.270507812 444.587890625 c 2,56,-1
 354.270507812 444.732421875 l 2,57,58
 353.291992188 500.546875 353.291992188 500.546875 345.48828125 547.40625 c 0,59,60
 342.537109375 563.477539062 342.537109375 563.477539062 331.587890625 571.529296875 c 128,-1,61
 320.637695312 579.581054688 320.637695312 579.581054688 308.59375 579.581054688 c 0,62,63
 290.220703125 579.581054688 290.220703125 579.581054688 278.857421875 564.126953125 c 0,64,65
 271.684570312 554.372070312 271.684570312 554.372070312 271.684570312 542.329101562 c 0,66,67
 271.684570312 539.327148438 271.684570312 539.327148438 272.116210938 536.126953125 c 0,68,69
 279.241210938 488.243164062 279.241210938 488.243164062 280.26171875 442.338867188 c 0,70,71
 280.765625 424.70703125 280.765625 424.70703125 280.765625 399.75 c 128,-1,72
 280.765625 374.926757812 280.765625 374.926757812 280.265625 342.880859375 c 2,73,-1
 280.265625 334 l 1,74,-1
 280.265625 319 l 1,75,-1
 268.474609375 319 l 1,76,-1
 267.474609375 318 l 1,77,-1
 261.265625 318 l 1,78,-1
 260.12109375 318 l 1,79,80
 207.323242188 312.037109375 207.323242188 312.037109375 165.34765625 309.038085938 c 2,81,-1
 165.158203125 309.026367188 l 2,0,1
EndSplineSet
EndChar

StartChar: comma
Encoding: 44 44 15
AltUni2: 00ff64.ffffffff.0 00fe51.ffffffff.0 00fe11.ffffffff.0 00ff0c.ffffffff.0 00fe50.ffffffff.0 00fe10.ffffffff.0 003001.ffffffff.0 00066c.ffffffff.0 00ff0c.ffffffff.0 00fe50.ffffffff.0 00fe10.ffffffff.0 003001.ffffffff.0 00066c.ffffffff.0
Width: 230
GlyphClass: 1
Flags: W
LayerCount: 2
UndoRedoHistory
Layer: 0
Undoes
UndoOperation
Index: 0
Type: 1
WasModified: 0
WasOrder2: 1
Layer: 2
Width: 230
VWidth: 1000
LBearingChange: 0
UnicodeEnc: 0
InstructionsLength: 0
EndUndoOperation
EndUndoes
Redoes
EndRedoes
EndUndoRedoHistory
UndoRedoHistory
Layer: 1
Undoes
UndoOperation
Index: 0
Type: 3
WasModified: 0
WasOrder2: 1
Layer: 2
EndUndoOperation
UndoOperation
Index: 1
Type: 1
WasModified: 0
WasOrder2: 1
Layer: 2
Width: 230
VWidth: 1000
LBearingChange: 0
UnicodeEnc: 0
InstructionsLength: 0
SplineSet
152 102 m 0,0,1
 188 63 188 63 203 34 c 0,2,3
 223 -5 223 -5 219 -40 c 0,4,5
 216 -75 216 -75 193 -107 c 0,6,7
 175 -132 175 -132 144 -162 c 0,8,9
 129 -178 129 -178 107.5 -178 c 128,-1,10
 86 -178 86 -178 71 -162 c 0,11,12
 56 -147 56 -147 56 -125.5 c 128,-1,13
 56 -104 56 -104 71 -89 c 0,14,15
 92 -68 92 -68 108 -48 c 0,16,17
 116 -35 116 -35 116 -31 c 0,18,19
 116 -24 116 -24 111 -14 c 0,20,21
 103 1 103 1 75 32 c 0,22,23
 61 48 61 48 62 69.5 c 128,-1,24
 63 91 63 91 79 105 c 0,25,26
 95 120 95 120 116.5 119 c 128,-1,27
 138 118 138 118 152 102 c 0,0,1
EndSplineSet
EndUndoOperation
EndUndoes
Redoes
EndRedoes
EndUndoRedoHistory
Fore
SplineSet
93.3662109375 -53.7568359375 m 1,0,1
 76.630859375 -74.6748046875 76.630859375 -74.6748046875 55.236328125 -96.0693359375 c 0,2,3
 43.1669921875 -108.139648438 43.1669921875 -108.139648438 43.1669921875 -125.5 c 0,4,5
 43.1669921875 -142.46484375 43.1669921875 -142.46484375 55.3310546875 -155.232421875 c 128,-1,6
 67.49609375 -168 67.49609375 -168 84.6669921875 -168 c 0,7,8
 101.236328125 -168 101.236328125 -168 114.21484375 -154.814453125 c 0,9,10
 144.5703125 -125.438476562 144.5703125 -125.438476562 162.045898438 -101.166015625 c 0,11,12
 186.833007812 -66.6796875 186.833007812 -66.6796875 186.833007812 -28.22265625 c 0,13,14
 186.833007812 -0.916015625 186.833007812 -0.916015625 171.866210938 28.150390625 c 128,-1,15
 156.899414062 57.2158203125 156.899414062 57.2158203125 121.818359375 95.220703125 c 0,16,17
 109.374023438 109.06640625 109.374023438 109.06640625 92.24609375 109.064453125 c 0,18,19
 75.54296875 109.0625 75.54296875 109.0625 62.7509765625 97.6728515625 c 0,20,21
 49.0966796875 85.5146484375 49.0966796875 85.5146484375 49.09765625 68.119140625 c 128,-1,22
 49.099609375 50.72265625 49.099609375 50.72265625 59.64453125 38.63671875 c 0,23,24
 89.0537109375 6.0712890625 89.0537109375 6.0712890625 96.1103515625 -7.783203125 c 128,-1,25
 103.166992188 -21.6376953125 103.166992188 -21.6376953125 103.166992188 -29.7333984375 c 128,-1,26
 103.166992188 -37.830078125 103.166992188 -37.830078125 93.3662109375 -53.7568359375 c 1,0,1
EndSplineSet
EndChar

StartChar: hyphen
Encoding: 45 45 16
AltUni2: 00fe58.ffffffff.0 00fe32.ffffffff.0 00fe31.ffffffff.0 002500.ffffffff.0 00208b.ffffffff.0 00207b.ffffffff.0 002011.ffffffff.0 00ff0d.ffffffff.0 00fe63.ffffffff.0 002212.ffffffff.0 002015.ffffffff.0 002014.ffffffff.0 002013.ffffffff.0 002012.ffffffff.0 002010.ffffffff.0 00ff0d.ffffffff.0 00fe63.ffffffff.0 002212.ffffffff.0 002015.ffffffff.0 002014.ffffffff.0 002013.ffffffff.0 002012.ffffffff.0 002010.ffffffff.0
Width: 382
GlyphClass: 1
Flags: W
LayerCount: 2
UndoRedoHistory
Layer: 0
Undoes
UndoOperation
Index: 0
Type: 1
WasModified: 1
WasOrder2: 1
Layer: 2
Width: 382
VWidth: 1000
LBearingChange: 0
UnicodeEnc: 0
InstructionsLength: 0
EndUndoOperation
UndoOperation
Index: 1
Type: 1
WasModified: 1
WasOrder2: 1
Layer: 2
Width: 382
VWidth: 1000
LBearingChange: 0
UnicodeEnc: 0
InstructionsLength: 0
EndUndoOperation
UndoOperation
Index: 2
Type: 1
WasModified: 1
WasOrder2: 1
Layer: 2
Width: 382
VWidth: 1000
LBearingChange: 0
UnicodeEnc: 0
InstructionsLength: 0
EndUndoOperation
UndoOperation
Index: 3
Type: 1
WasModified: 1
WasOrder2: 1
Layer: 2
Width: 382
VWidth: 1000
LBearingChange: 0
UnicodeEnc: 0
InstructionsLength: 0
EndUndoOperation
UndoOperation
Index: 4
Type: 1
WasModified: 1
WasOrder2: 1
Layer: 2
Width: 382
VWidth: 1000
LBearingChange: 0
UnicodeEnc: 0
InstructionsLength: 0
EndUndoOperation
UndoOperation
Index: 5
Type: 1
WasModified: 1
WasOrder2: 1
Layer: 2
Width: 382
VWidth: 1000
LBearingChange: 0
UnicodeEnc: 0
InstructionsLength: 0
EndUndoOperation
UndoOperation
Index: 6
Type: 1
WasModified: 1
WasOrder2: 1
Layer: 2
Width: 382
VWidth: 1000
LBearingChange: 0
UnicodeEnc: 0
InstructionsLength: 0
EndUndoOperation
UndoOperation
Index: 7
Type: 1
WasModified: 1
WasOrder2: 1
Layer: 2
Width: 382
VWidth: 1000
LBearingChange: 0
UnicodeEnc: 0
InstructionsLength: 0
EndUndoOperation
UndoOperation
Index: 8
Type: 1
WasModified: 1
WasOrder2: 1
Layer: 2
Width: 382
VWidth: 1000
LBearingChange: 0
UnicodeEnc: 0
InstructionsLength: 0
EndUndoOperation
UndoOperation
Index: 9
Type: 1
WasModified: 1
WasOrder2: 1
Layer: 2
Width: 382
VWidth: 1000
LBearingChange: 0
UnicodeEnc: 0
InstructionsLength: 0
EndUndoOperation
UndoOperation
Index: 10
Type: 1
WasModified: 1
WasOrder2: 1
Layer: 2
Width: 382
VWidth: 1000
LBearingChange: 0
UnicodeEnc: 0
InstructionsLength: 0
EndUndoOperation
UndoOperation
Index: 11
Type: 1
WasModified: 1
WasOrder2: 1
Layer: 2
Width: 382
VWidth: 1000
LBearingChange: 0
UnicodeEnc: 0
InstructionsLength: 0
EndUndoOperation
UndoOperation
Index: 12
Type: 1
WasModified: 1
WasOrder2: 1
Layer: 2
Width: 382
VWidth: 1000
LBearingChange: 0
UnicodeEnc: 0
InstructionsLength: 0
EndUndoOperation
UndoOperation
Index: 13
Type: 1
WasModified: 1
WasOrder2: 1
Layer: 2
Width: 382
VWidth: 1000
LBearingChange: 0
UnicodeEnc: 0
InstructionsLength: 0
EndUndoOperation
UndoOperation
Index: 14
Type: 1
WasModified: 1
WasOrder2: 1
Layer: 2
Width: 382
VWidth: 1000
LBearingChange: 0
UnicodeEnc: 0
InstructionsLength: 0
EndUndoOperation
UndoOperation
Index: 15
Type: 1
WasModified: 0
WasOrder2: 1
Layer: 2
Width: 382
VWidth: 1000
LBearingChange: 0
UnicodeEnc: 0
InstructionsLength: 0
EndUndoOperation
EndUndoes
Redoes
EndRedoes
EndUndoRedoHistory
UndoRedoHistory
Layer: 1
Undoes
UndoOperation
Index: 0
Type: 3
WasModified: 1
WasOrder2: 1
Layer: 2
EndUndoOperation
UndoOperation
Index: 1
Type: 3
WasModified: 1
WasOrder2: 1
Layer: 2
EndUndoOperation
UndoOperation
Index: 2
Type: 3
WasModified: 1
WasOrder2: 1
Layer: 2
EndUndoOperation
UndoOperation
Index: 3
Type: 3
WasModified: 1
WasOrder2: 1
Layer: 2
EndUndoOperation
UndoOperation
Index: 4
Type: 3
WasModified: 1
WasOrder2: 1
Layer: 2
EndUndoOperation
UndoOperation
Index: 5
Type: 3
WasModified: 1
WasOrder2: 1
Layer: 2
EndUndoOperation
UndoOperation
Index: 6
Type: 3
WasModified: 1
WasOrder2: 1
Layer: 2
EndUndoOperation
UndoOperation
Index: 7
Type: 3
WasModified: 1
WasOrder2: 1
Layer: 2
EndUndoOperation
UndoOperation
Index: 8
Type: 3
WasModified: 1
WasOrder2: 1
Layer: 2
EndUndoOperation
UndoOperation
Index: 9
Type: 3
WasModified: 1
WasOrder2: 1
Layer: 2
EndUndoOperation
UndoOperation
Index: 10
Type: 3
WasModified: 1
WasOrder2: 1
Layer: 2
EndUndoOperation
UndoOperation
Index: 11
Type: 3
WasModified: 1
WasOrder2: 1
Layer: 2
EndUndoOperation
UndoOperation
Index: 12
Type: 3
WasModified: 1
WasOrder2: 1
Layer: 2
EndUndoOperation
UndoOperation
Index: 13
Type: 3
WasModified: 1
WasOrder2: 1
Layer: 2
EndUndoOperation
UndoOperation
Index: 14
Type: 3
WasModified: 1
WasOrder2: 1
Layer: 2
EndUndoOperation
UndoOperation
Index: 15
Type: 3
WasModified: 0
WasOrder2: 1
Layer: 2
EndUndoOperation
EndUndoes
Redoes
EndRedoes
EndUndoRedoHistory
Fore
SplineSet
88.84765625 332 m 0,0,1
 111.84765625 324 111.84765625 324 140.84765625 323 c 0,2,3
 154.84765625 322 154.84765625 322 195.84765625 322 c 0,4,5
 233.84765625 322 233.84765625 322 248.84765625 321 c 0,6,7
 286.84765625 317 286.84765625 317 304.84765625 312 c 0,8,9
 319.84765625 309 319.84765625 309 327.84765625 291.5 c 128,-1,10
 335.84765625 274 335.84765625 274 333.84765625 252 c 0,11,12
 330.84765625 231 330.84765625 231 319.34765625 218.5 c 128,-1,13
 307.84765625 206 307.84765625 206 293.84765625 210 c 0,14,15
 264.84765625 216 264.84765625 216 245.84765625 217 c 0,16,17
 232.84765625 218 232.84765625 218 195.84765625 218 c 0,18,19
 153.84765625 218 153.84765625 218 137.84765625 219 c 0,20,21
 102.84765625 222 102.84765625 222 75.84765625 229 c 0,22,23
 61.84765625 233 61.84765625 233 53.84765625 251 c 128,-1,24
 45.84765625 269 45.84765625 269 48.34765625 290 c 128,-1,25
 50.84765625 311 50.84765625 311 62.84765625 323.5 c 128,-1,26
 74.84765625 336 74.84765625 336 88.84765625 332 c 0,0,1
EndSplineSet
EndChar

StartChar: period
Encoding: 46 46 17
AltUni2: 00ff0e.ffffffff.0 00fe52.ffffffff.0 002024.ffffffff.0 00ff0e.ffffffff.0 00fe52.ffffffff.0 002024.ffffffff.0
Width: 198
GlyphClass: 1
Flags: W
LayerCount: 2
UndoRedoHistory
Layer: 0
Undoes
UndoOperation
Index: 0
Type: 1
WasModified: 0
WasOrder2: 1
Layer: 2
Width: 198
VWidth: 1000
LBearingChange: 0
UnicodeEnc: 0
InstructionsLength: 0
EndUndoOperation
EndUndoes
Redoes
EndRedoes
EndUndoRedoHistory
UndoRedoHistory
Layer: 1
Undoes
UndoOperation
Index: 0
Type: 3
WasModified: 0
WasOrder2: 1
Layer: 2
EndUndoOperation
UndoOperation
Index: 1
Type: 1
WasModified: 0
WasOrder2: 1
Layer: 2
Width: 198
VWidth: 1000
LBearingChange: 0
UnicodeEnc: 0
InstructionsLength: 0
SplineSet
61 31 m 0,0,1
 61 34 61 34 58 44 c 0,2,3
 52 72 52 72 51 82 c 0,4,5
 51 95 51 95 52 102 c 0,6,7
 55 120 55 120 67 133 c 0,8,9
 86 153 86 153 113 150 c 0,10,11
 128 149 128 149 140 140 c 0,12,13
 160 127 160 127 174 98 c 0,14,15
 181 85 181 85 184 72 c 0,16,17
 189 53 189 53 186 37 c 0,18,19
 181 3 181 3 151 -10 c 0,20,21
 130 -21 130 -21 101 -14 c 0,22,23
 72 -6 72 -6 64 23 c 0,24,25
 63 25 63 25 61 31 c 0,0,1
EndSplineSet
EndUndoOperation
EndUndoes
Redoes
EndRedoes
EndUndoRedoHistory
Fore
SplineSet
126.6328125 -0.9658203125 m 0,0,1
 157.0625 12.220703125 157.0625 12.220703125 157.0625 51.380859375 c 0,2,3
 157.0625 58.82421875 157.0625 58.82421875 154.27734375 70.134765625 c 0,4,5
 151.802734375 80.185546875 151.802734375 80.185546875 144.92578125 93.662109375 c 0,6,7
 132.143554688 120.139648438 132.143554688 120.139648438 114.215820312 131.79296875 c 0,8,9
 102.750976562 140.391601562 102.750976562 140.391601562 85.265625 140.391601562 c 128,-1,10
 67.7802734375 140.391601562 67.7802734375 140.391601562 54.2373046875 126.16796875 c 0,11,12
 44.34375 115.420898438 44.34375 115.420898438 41.8203125 100.462890625 c 0,13,14
 40.9580078125 94.30859375 40.9580078125 94.30859375 40.9375 82.5234375 c 0,15,16
 41.9931640625 72.8466796875 41.9931640625 72.8466796875 47.6318359375 46.4921875 c 0,17,18
 50.5888671875 36.6435546875 50.5888671875 36.6435546875 50.869140625 32.8564453125 c 0,19,20
 51.3173828125 31.5517578125 51.3173828125 31.5517578125 53.578125 25.662109375 c 0,21,22
 60.0517578125 2.1982421875 60.0517578125 2.1982421875 83.4462890625 -4.31640625 c 0,23,24
 97.330078125 -6.6513671875 97.330078125 -6.6513671875 102.283203125 -6.72265625 c 0,25,26
 115.641601562 -6.72265625 115.641601562 -6.72265625 126.6328125 -0.9658203125 c 0,0,1
EndSplineSet
EndChar

StartChar: slash
Encoding: 47 47 18
AltUni2: 00ff0f.ffffffff.0 002215.ffffffff.0 00ff0f.ffffffff.0 002215.ffffffff.0
Width: 452
GlyphClass: 1
Flags: W
LayerCount: 2
UndoRedoHistory
Layer: 0
Undoes
UndoOperation
Index: 0
Type: 1
WasModified: 0
WasOrder2: 1
Layer: 2
Width: 452
VWidth: 1000
LBearingChange: 0
UnicodeEnc: 0
InstructionsLength: 0
EndUndoOperation
EndUndoes
Redoes
EndRedoes
EndUndoRedoHistory
UndoRedoHistory
Layer: 1
Undoes
UndoOperation
Index: 0
Type: 3
WasModified: 0
WasOrder2: 1
Layer: 2
EndUndoOperation
UndoOperation
Index: 1
Type: 1
WasModified: 0
WasOrder2: 1
Layer: 2
Width: 452
VWidth: 1000
LBearingChange: 0
UnicodeEnc: 0
InstructionsLength: 0
SplineSet
29 -91 m 4,0,1
 52 120 52 120 135 338.5 c 132,-1,2
 218 557 218 557 346 749 c 4,3,4
 358 767 358 767 379 771 c 132,-1,5
 400 775 400 775 418 763 c 132,-1,6
 436 751 436 751 440 730 c 132,-1,7
 444 709 444 709 432 691 c 4,8,9
 311 510 311 510 232.5 303 c 132,-1,10
 154 96 154 96 132 -103 c 4,11,12
 130 -124 130 -124 113 -137.5 c 132,-1,13
 96 -151 96 -151 75 -149 c 4,14,15
 53 -147 53 -147 40 -130 c 132,-1,16
 27 -113 27 -113 29 -91 c 4,0,1
EndSplineSet
EndUndoOperation
EndUndoes
Redoes
EndRedoes
EndUndoRedoHistory
Fore
SplineSet
71.486328125 -134.2578125 m 0,0,1
 84.0986328125 -134.2578125 84.0986328125 -134.2578125 95.4521484375 -125.2421875 c 128,-1,2
 106.8046875 -116.2265625 106.8046875 -116.2265625 108.201171875 -101.5625 c 2,3,-1
 108.211914062 -101.44921875 l 1,4,5
 130.432617188 99.5458984375 130.432617188 99.5458984375 209.602539062 308.311523438 c 128,-1,6
 288.706054688 516.90234375 288.706054688 516.90234375 410.654296875 699.321289062 c 0,7,8
 417.133789062 709.040039062 417.133789062 709.040039062 417.133789062 719.6875 c 0,9,10
 417.133789062 739.639648438 417.133789062 739.639648438 400.828125 750.510742188 c 0,11,12
 391.09375 757 391.09375 757 380.446289062 757 c 0,13,14
 360.493164062 757 360.493164062 757 349.623046875 740.694335938 c 0,15,16
 222.5625 550.103515625 222.5625 550.103515625 140.213867188 333.318359375 c 128,-1,17
 57.865234375 116.534179688 57.865234375 116.534179688 35.0595703125 -92.4990234375 c 0,18,19
 34.8662109375 -94.68359375 34.8662109375 -94.68359375 34.8662109375 -96.77734375 c 0,20,21
 34.8662109375 -110.192382812 34.8662109375 -110.192382812 43.4560546875 -121.423828125 c 0,22,23
 53.2705078125 -134.2578125 53.2705078125 -134.2578125 71.486328125 -134.2578125 c 0,0,1
EndSplineSet
EndChar

StartChar: zero
Encoding: 48 48 19
AltUni2: 00ff10.ffffffff.0 002080.ffffffff.0 002070.ffffffff.0 00ff10.ffffffff.0 002080.ffffffff.0 002070.ffffffff.0
Width: 471
GlyphClass: 1
Flags: W
LayerCount: 2
UndoRedoHistory
Layer: 0
Undoes
UndoOperation
Index: 0
Type: 1
WasModified: 1
WasOrder2: 1
Layer: 2
Width: 471
VWidth: 1000
LBearingChange: 0
UnicodeEnc: 0
InstructionsLength: 0
EndUndoOperation
UndoOperation
Index: 1
Type: 1
WasModified: 1
WasOrder2: 1
Layer: 2
Width: 471
VWidth: 1000
LBearingChange: 0
UnicodeEnc: 0
InstructionsLength: 0
EndUndoOperation
UndoOperation
Index: 2
Type: 1
WasModified: 1
WasOrder2: 1
Layer: 2
Width: 471
VWidth: 1000
LBearingChange: 0
UnicodeEnc: 0
InstructionsLength: 0
EndUndoOperation
UndoOperation
Index: 3
Type: 1
WasModified: 0
WasOrder2: 1
Layer: 2
Width: 471
VWidth: 1000
LBearingChange: 0
UnicodeEnc: 0
InstructionsLength: 0
EndUndoOperation
EndUndoes
Redoes
EndRedoes
EndUndoRedoHistory
UndoRedoHistory
Layer: 1
Undoes
UndoOperation
Index: 0
Type: 3
WasModified: 1
WasOrder2: 1
Layer: 2
EndUndoOperation
UndoOperation
Index: 1
Type: 3
WasModified: 1
WasOrder2: 1
Layer: 2
EndUndoOperation
UndoOperation
Index: 2
Type: 3
WasModified: 1
WasOrder2: 1
Layer: 2
EndUndoOperation
UndoOperation
Index: 3
Type: 3
WasModified: 0
WasOrder2: 1
Layer: 2
EndUndoOperation
EndUndoes
Redoes
EndRedoes
EndUndoRedoHistory
Fore
SplineSet
167.166992188 619 m 1,0,1
 140.166992188 569 140.166992188 569 117.166992188 479 c 0,2,3
 88.1669921875 366 88.1669921875 366 88.1669921875 275 c 0,4,5
 86.1669921875 168 86.1669921875 168 126.166992188 112 c 0,6,7
 168.166992188 53 168.166992188 53 265.166992188 63 c 0,8,9
 326.166992188 69 326.166992188 69 360.166992188 169 c 0,10,11
 394.166992188 273 394.166992188 273 378.166992188 401 c 0,12,13
 362.166992188 533 362.166992188 533 308.166992188 598 c 0,14,15
 256.166992188 661 256.166992188 661 179.166992188 622 c 0,16,17
 173.166992188 619 173.166992188 619 167.166992188 619 c 1,0,1
138.166992188 671 m 1,18,19
 142.166992188 677 142.166992188 677 149.166992188 680 c 0,20,21
 272.166992188 742 272.166992188 742 358.166992188 640 c 0,22,23
 426.166992188 558 426.166992188 558 443.166992188 409 c 0,24,25
 459.166992188 262 459.166992188 262 421.166992188 149 c 0,26,27
 401.166992188 86 401.166992188 86 367.166992188 49 c 0,28,29
 327.166992188 4 327.166992188 4 272.166992188 -2 c 0,30,31
 138.166992188 -16 138.166992188 -16 73.1669921875 74 c 0,32,33
 21.1669921875 148 21.1669921875 148 23.1669921875 276 c 0,34,35
 23.1669921875 374 23.1669921875 374 54.1669921875 496 c 0,36,37
 81.1669921875 599 81.1669921875 599 113.166992188 655 c 0,38,39
 123.166992188 669 123.166992188 669 138.166992188 671 c 1,18,19
EndSplineSet
EndChar

StartChar: one
Encoding: 49 49 20
AltUni2: 00ff11.ffffffff.0 002081.ffffffff.0 0000b9.ffffffff.0 00ff11.ffffffff.0 002081.ffffffff.0 0000b9.ffffffff.0
Width: 232
GlyphClass: 1
Flags: W
LayerCount: 2
UndoRedoHistory
Layer: 0
Undoes
UndoOperation
Index: 0
Type: 1
WasModified: 1
WasOrder2: 1
Layer: 2
Width: 232
VWidth: 1000
LBearingChange: 0
UnicodeEnc: 0
InstructionsLength: 0
EndUndoOperation
UndoOperation
Index: 1
Type: 1
WasModified: 1
WasOrder2: 1
Layer: 2
Width: 232
VWidth: 1000
LBearingChange: 0
UnicodeEnc: 0
InstructionsLength: 0
EndUndoOperation
UndoOperation
Index: 2
Type: 1
WasModified: 1
WasOrder2: 1
Layer: 2
Width: 232
VWidth: 1000
LBearingChange: 0
UnicodeEnc: 0
InstructionsLength: 0
EndUndoOperation
UndoOperation
Index: 3
Type: 1
WasModified: 0
WasOrder2: 1
Layer: 2
Width: 232
VWidth: 1000
LBearingChange: 0
UnicodeEnc: 0
InstructionsLength: 0
EndUndoOperation
UndoOperation
Index: 4
Type: 1
WasModified: 1
WasOrder2: 1
Layer: 2
Width: 307
VWidth: 1000
LBearingChange: 0
UnicodeEnc: 0
InstructionsLength: 0
EndUndoOperation
UndoOperation
Index: 5
Type: 1
WasModified: 0
WasOrder2: 1
Layer: 2
Width: 307
VWidth: 1000
LBearingChange: 0
UnicodeEnc: 0
InstructionsLength: 0
EndUndoOperation
EndUndoes
Redoes
EndRedoes
EndUndoRedoHistory
UndoRedoHistory
Layer: 1
Undoes
UndoOperation
Index: 0
Type: 3
WasModified: 1
WasOrder2: 1
Layer: 2
EndUndoOperation
UndoOperation
Index: 1
Type: 3
WasModified: 1
WasOrder2: 1
Layer: 2
EndUndoOperation
UndoOperation
Index: 2
Type: 3
WasModified: 1
WasOrder2: 1
Layer: 2
EndUndoOperation
UndoOperation
Index: 3
Type: 3
WasModified: 0
WasOrder2: 1
Layer: 2
EndUndoOperation
UndoOperation
Index: 4
Type: 1
WasModified: 1
WasOrder2: 1
Layer: 2
Width: 232
VWidth: 1000
LBearingChange: 0
UnicodeEnc: 0
InstructionsLength: 0
SplineSet
178.494140625 628.513671875 m 4,0,1
 181.994140625 641.033203125 181.994140625 641.033203125 181.446289062 645.5 c 132,-1,2
 180.897460938 649.965820312 180.897460938 649.965820312 182.53515625 661.25 c 132,-1,3
 184.171875 672.533203125 184.171875 672.533203125 173.776367188 683.34765625 c 4,4,5
 147.169921875 711.313476562 147.169921875 711.313476562 119.69140625 680.736328125 c 4,6,7
 112.604492188 672.813476562 112.604492188 672.813476562 107.197265625 667.616210938 c 132,-1,8
 101.791015625 662.41796875 101.791015625 662.41796875 84.9951171875 639.198242188 c 132,-1,9
 68.2001953125 615.978515625 68.2001953125 615.978515625 46.3974609375 571.994140625 c 4,10,11
 39.919921875 559.108398438 39.919921875 559.108398438 43.4892578125 546.44921875 c 132,-1,12
 47.05859375 533.7890625 47.05859375 533.7890625 58.830078125 528.182617188 c 4,13,14
 82.7373046875 513.990234375 82.7373046875 513.990234375 102.762695312 539.62109375 c 4,15,16
 107.987304688 546.307617188 107.987304688 546.307617188 105.392578125 551.02734375 c 5,17,18
 99.5419921875 541.241210938 99.5419921875 541.241210938 100.462890625 451.685546875 c 4,19,20
 100.614257812 237.104492188 100.614257812 237.104492188 101.758789062 22.6455078125 c 5,21,22
 110.969726562 -19.5458984375 110.969726562 -19.5458984375 133.5546875 -14.7578125 c 132,-1,23
 156.139648438 -9.9697265625 156.139648438 -9.9697265625 161.555664062 27.97265625 c 5,24,25
 174.934570312 304.666015625 174.934570312 304.666015625 168.356445312 473.120117188 c 5,26,27
 167.244140625 588.846679688 167.244140625 588.846679688 178.494140625 628.513671875 c 4,0,1
EndSplineSet
EndUndoOperation
UndoOperation
Index: 5
Type: 1
WasModified: 1
WasOrder2: 1
Layer: 2
Width: 232
VWidth: 1000
LBearingChange: 0
UnicodeEnc: 0
InstructionsLength: 0
SplineSet
178.494140625 618.513671875 m 4,0,1
 181.994140625 631.033203125 181.994140625 631.033203125 181.446289062 635.5 c 132,-1,2
 180.897460938 639.965820312 180.897460938 639.965820312 182.53515625 651.25 c 132,-1,3
 184.171875 662.533203125 184.171875 662.533203125 173.776367188 673.34765625 c 4,4,5
 147.169921875 701.313476562 147.169921875 701.313476562 119.69140625 670.736328125 c 4,6,7
 112.604492188 662.813476562 112.604492188 662.813476562 107.197265625 657.616210938 c 132,-1,8
 101.791015625 652.41796875 101.791015625 652.41796875 84.9951171875 629.198242188 c 132,-1,9
 68.2001953125 605.978515625 68.2001953125 605.978515625 46.3974609375 561.994140625 c 4,10,11
 39.919921875 549.108398438 39.919921875 549.108398438 43.4892578125 536.44921875 c 132,-1,12
 47.05859375 523.7890625 47.05859375 523.7890625 58.830078125 518.182617188 c 4,13,14
 82.7373046875 503.990234375 82.7373046875 503.990234375 102.762695312 529.62109375 c 4,15,16
 107.987304688 536.307617188 107.987304688 536.307617188 105.392578125 541.02734375 c 5,17,18
 99.5419921875 531.241210938 99.5419921875 531.241210938 100.462890625 441.685546875 c 4,19,20
 100.614257812 227.104492188 100.614257812 227.104492188 101.758789062 12.6455078125 c 5,21,22
 110.969726562 -29.5458984375 110.969726562 -29.5458984375 133.5546875 -24.7578125 c 132,-1,23
 156.139648438 -19.9697265625 156.139648438 -19.9697265625 161.555664062 17.97265625 c 5,24,25
 174.934570312 294.666015625 174.934570312 294.666015625 168.356445312 463.120117188 c 5,26,27
 167.244140625 578.846679688 167.244140625 578.846679688 178.494140625 618.513671875 c 4,0,1
EndSplineSet
EndUndoOperation
UndoOperation
Index: 6
Type: 1
WasModified: 1
WasOrder2: 1
Layer: 2
Width: 232
VWidth: 1000
LBearingChange: 0
UnicodeEnc: 0
InstructionsLength: 0
SplineSet
178.494140625 608.513671875 m 4,0,1
 181.994140625 621.033203125 181.994140625 621.033203125 181.446289062 625.5 c 132,-1,2
 180.897460938 629.965820312 180.897460938 629.965820312 182.53515625 641.25 c 132,-1,3
 184.171875 652.533203125 184.171875 652.533203125 173.776367188 663.34765625 c 4,4,5
 147.169921875 691.313476562 147.169921875 691.313476562 119.69140625 660.736328125 c 4,6,7
 112.604492188 652.813476562 112.604492188 652.813476562 107.197265625 647.616210938 c 132,-1,8
 101.791015625 642.41796875 101.791015625 642.41796875 84.9951171875 619.198242188 c 132,-1,9
 68.2001953125 595.978515625 68.2001953125 595.978515625 46.3974609375 551.994140625 c 4,10,11
 39.919921875 539.108398438 39.919921875 539.108398438 43.4892578125 526.44921875 c 132,-1,12
 47.05859375 513.7890625 47.05859375 513.7890625 58.830078125 508.182617188 c 4,13,14
 82.7373046875 493.990234375 82.7373046875 493.990234375 102.762695312 519.62109375 c 4,15,16
 107.987304688 526.307617188 107.987304688 526.307617188 105.392578125 531.02734375 c 5,17,18
 99.5419921875 521.241210938 99.5419921875 521.241210938 100.462890625 431.685546875 c 4,19,20
 100.614257812 217.104492188 100.614257812 217.104492188 101.758789062 2.6455078125 c 5,21,22
 110.969726562 -39.5458984375 110.969726562 -39.5458984375 133.5546875 -34.7578125 c 132,-1,23
 156.139648438 -29.9697265625 156.139648438 -29.9697265625 161.555664062 7.97265625 c 5,24,25
 174.934570312 284.666015625 174.934570312 284.666015625 168.356445312 453.120117188 c 5,26,27
 167.244140625 568.846679688 167.244140625 568.846679688 178.494140625 608.513671875 c 4,0,1
EndSplineSet
EndUndoOperation
UndoOperation
Index: 7
Type: 3
WasModified: 1
WasOrder2: 1
Layer: 2
EndUndoOperation
UndoOperation
Index: 8
Type: 1
WasModified: 1
WasOrder2: 1
Layer: 2
Width: 307
VWidth: 1000
LBearingChange: 0
UnicodeEnc: 0
InstructionsLength: 0
SplineSet
289 602 m 0,0,1
 294 614 294 614 294 618.5 c 128,-1,2
 294 623 294 623 297 634 c 128,-1,3
 300 645 300 645 291 657 c 0,4,5
 268 688 268 688 237 661 c 0,6,7
 229 654 229 654 223 649.5 c 128,-1,8
 217 645 217 645 197.5 624 c 128,-1,9
 178 603 178 603 151 562 c 0,10,11
 143 550 143 550 145 537 c 128,-1,12
 147 524 147 524 158 517 c 0,13,14
 180 500 180 500 203 523 c 0,15,16
 209 529 209 529 207 534 c 1,17,18
 200 525 200 525 190 436 c 0,19,20
 164 223 164 223 139 10 c 1,21,22
 143 -33 143 -33 166 -31 c 128,-1,23
 189 -29 189 -29 199 8 c 1,24,25
 246 281 246 281 260 449 c 1,26,27
 273 564 273 564 289 602 c 0,0,1
EndSplineSet
EndUndoOperation
UndoOperation
Index: 9
Type: 3
WasModified: 1
WasOrder2: 1
Layer: 2
EndUndoOperation
UndoOperation
Index: 10
Type: 3
WasModified: 1
WasOrder2: 1
Layer: 2
EndUndoOperation
UndoOperation
Index: 11
Type: 3
WasModified: 1
WasOrder2: 1
Layer: 2
EndUndoOperation
UndoOperation
Index: 12
Type: 3
WasModified: 1
WasOrder2: 1
Layer: 2
EndUndoOperation
UndoOperation
Index: 13
Type: 1
WasModified: 1
WasOrder2: 1
Layer: 2
Width: 307
VWidth: 1000
LBearingChange: 0
UnicodeEnc: 0
InstructionsLength: 0
SplineSet
289 612 m 4,0,1
 294 624 294 624 294 628.5 c 132,-1,2
 294 633 294 633 297 644 c 132,-1,3
 300 655 300 655 291 667 c 4,4,5
 268 698 268 698 237 671 c 4,6,7
 229 664 229 664 223 659.5 c 132,-1,8
 217 655 217 655 197.5 634 c 132,-1,9
 178 613 178 613 151 572 c 4,10,11
 143 560 143 560 145 547 c 132,-1,12
 147 534 147 534 158 527 c 4,13,14
 180 510 180 510 203 533 c 4,15,16
 209 539 209 539 207 544 c 5,17,18
 200 535 200 535 190 446 c 4,19,20
 139 14 139 14 139 10 c 1,21,22
 143 -33 143 -33 166 -31 c 128,-1,23
 189 -29 189 -29 199 8 c 1,24,25
 244 271 244 271 260 459 c 5,26,27
 273 574 273 574 289 612 c 4,0,1
EndSplineSet
EndUndoOperation
UndoOperation
Index: 14
Type: 1
WasModified: 1
WasOrder2: 1
Layer: 2
Width: 307
VWidth: 1000
LBearingChange: 0
UnicodeEnc: 0
InstructionsLength: 0
SplineSet
289 622 m 4,0,1
 294 634 294 634 294 638.5 c 132,-1,2
 294 643 294 643 297 654 c 132,-1,3
 300 665 300 665 291 677 c 4,4,5
 268 708 268 708 237 681 c 4,6,7
 229 674 229 674 223 669.5 c 132,-1,8
 217 665 217 665 197.5 644 c 132,-1,9
 178 623 178 623 151 582 c 4,10,11
 143 570 143 570 145 557 c 132,-1,12
 147 544 147 544 158 537 c 4,13,14
 180 520 180 520 203 543 c 4,15,16
 209 549 209 549 207 554 c 5,17,18
 200 545 200 545 190 456 c 4,19,20
 138 19 138 19 139 10 c 1,21,22
 143 -33 143 -33 166 -31 c 128,-1,23
 189 -29 189 -29 199 8 c 1,24,25
 242 261 242 261 260 469 c 5,26,27
 273 584 273 584 289 622 c 4,0,1
EndSplineSet
EndUndoOperation
UndoOperation
Index: 15
Type: 1
WasModified: 1
WasOrder2: 1
Layer: 2
Width: 307
VWidth: 1000
LBearingChange: 0
UnicodeEnc: 0
InstructionsLength: 0
SplineSet
289 632 m 4,0,1
 294 644 294 644 294 648.5 c 132,-1,2
 294 653 294 653 297 664 c 132,-1,3
 300 675 300 675 291 687 c 4,4,5
 268 718 268 718 237 691 c 4,6,7
 229 684 229 684 223 679.5 c 132,-1,8
 217 675 217 675 197.5 654 c 132,-1,9
 178 633 178 633 151 592 c 4,10,11
 143 580 143 580 145 567 c 132,-1,12
 147 554 147 554 158 547 c 4,13,14
 180 530 180 530 203 553 c 4,15,16
 209 559 209 559 207 564 c 5,17,18
 200 555 200 555 190 466 c 4,19,20
 137 24 137 24 139 10 c 1,21,22
 143 -33 143 -33 166 -31 c 128,-1,23
 189 -29 189 -29 199 8 c 1,24,25
 240 250 240 250 260 479 c 5,26,27
 273 594 273 594 289 632 c 4,0,1
EndSplineSet
EndUndoOperation
UndoOperation
Index: 16
Type: 1
WasModified: 1
WasOrder2: 1
Layer: 2
Width: 307
VWidth: 1000
LBearingChange: 0
UnicodeEnc: 0
InstructionsLength: 0
SplineSet
289 642 m 4,0,1
 294 654 294 654 294 658.5 c 132,-1,2
 294 663 294 663 297 674 c 132,-1,3
 300 685 300 685 291 697 c 4,4,5
 268 728 268 728 237 701 c 4,6,7
 229 694 229 694 223 689.5 c 132,-1,8
 217 685 217 685 197.5 664 c 132,-1,9
 178 643 178 643 151 602 c 4,10,11
 143 590 143 590 145 577 c 132,-1,12
 147 564 147 564 158 557 c 4,13,14
 180 540 180 540 203 563 c 4,15,16
 209 569 209 569 207 574 c 5,17,18
 200 565 200 565 190 476 c 4,19,20
 136 28 136 28 139 10 c 1,21,22
 143 -33 143 -33 166 -31 c 128,-1,23
 189 -29 189 -29 199 8 c 1,24,25
 238 239 238 239 260 489 c 5,26,27
 273 604 273 604 289 642 c 4,0,1
EndSplineSet
EndUndoOperation
UndoOperation
Index: 17
Type: 1
WasModified: 1
WasOrder2: 1
Layer: 2
Width: 307
VWidth: 1000
LBearingChange: 0
UnicodeEnc: 0
InstructionsLength: 0
SplineSet
289 652 m 4,0,1
 294 664 294 664 294 668.5 c 132,-1,2
 294 673 294 673 297 684 c 132,-1,3
 300 695 300 695 291 707 c 4,4,5
 268 738 268 738 237 711 c 4,6,7
 229 704 229 704 223 699.5 c 132,-1,8
 217 695 217 695 197.5 674 c 132,-1,9
 178 653 178 653 151 612 c 4,10,11
 143 600 143 600 145 587 c 132,-1,12
 147 574 147 574 158 567 c 4,13,14
 180 550 180 550 203 573 c 4,15,16
 209 579 209 579 207 584 c 5,17,18
 200 575 200 575 190 486 c 4,19,20
 135 32 135 32 139 10 c 1,21,22
 143 -33 143 -33 166 -31 c 128,-1,23
 189 -29 189 -29 199 8 c 1,24,25
 236 228 236 228 260 499 c 5,26,27
 273 614 273 614 289 652 c 4,0,1
EndSplineSet
EndUndoOperation
UndoOperation
Index: 18
Type: 1
WasModified: 1
WasOrder2: 1
Layer: 2
Width: 307
VWidth: 1000
LBearingChange: 0
UnicodeEnc: 0
InstructionsLength: 0
SplineSet
289 662 m 4,0,1
 294 674 294 674 294 678.5 c 132,-1,2
 294 683 294 683 297 694 c 132,-1,3
 300 705 300 705 291 717 c 4,4,5
 268 748 268 748 237 721 c 4,6,7
 229 714 229 714 223 709.5 c 132,-1,8
 217 705 217 705 197.5 684 c 132,-1,9
 178 663 178 663 151 622 c 4,10,11
 143 610 143 610 145 597 c 132,-1,12
 147 584 147 584 158 577 c 4,13,14
 180 560 180 560 203 583 c 4,15,16
 209 589 209 589 207 594 c 5,17,18
 200 585 200 585 190 496 c 4,19,20
 134 36 134 36 139 10 c 1,21,22
 143 -33 143 -33 166 -31 c 128,-1,23
 189 -29 189 -29 199 8 c 1,24,25
 234 217 234 217 260 509 c 5,26,27
 273 624 273 624 289 662 c 4,0,1
EndSplineSet
EndUndoOperation
UndoOperation
Index: 19
Type: 1
WasModified: 1
WasOrder2: 1
Layer: 2
Width: 307
VWidth: 1000
LBearingChange: 0
UnicodeEnc: 0
InstructionsLength: 0
SplineSet
289 662 m 0,0,1
 294 674 294 674 294 678.5 c 128,-1,2
 294 683 294 683 297 694 c 128,-1,3
 300 705 300 705 291 717 c 0,4,5
 268 748 268 748 237 721 c 0,6,7
 229 714 229 714 223 709.5 c 128,-1,8
 217 705 217 705 197.5 684 c 128,-1,9
 178 663 178 663 151 622 c 0,10,11
 143 610 143 610 145 597 c 128,-1,12
 147 584 147 584 158 577 c 0,13,14
 180 560 180 560 203 583 c 0,15,16
 209 589 209 589 207 594 c 1,17,18
 200.261880688 584.735085945 200.261880688 584.735085945 190 496 c 0,19,20
 134 36 134 36 139 10 c 1,21,22
 143 -33 143 -33 166 -31 c 128,-1,23
 189 -29 189 -29 199 8 c 1,24,25
 221 138 221 138 254 514 c 5,26,27
 264 601 264 601 289 662 c 0,0,1
EndSplineSet
EndUndoOperation
UndoOperation
Index: 20
Type: 1
WasModified: 1
WasOrder2: 1
Layer: 2
Width: 307
VWidth: 1000
LBearingChange: 0
UnicodeEnc: 0
InstructionsLength: 0
SplineSet
289 662 m 0,0,1
 294 674 294 674 294 678.5 c 128,-1,2
 294 683 294 683 297 694 c 128,-1,3
 300 705 300 705 291 717 c 0,4,5
 268 748 268 748 237 721 c 0,6,7
 229 714 229 714 223 709.5 c 128,-1,8
 217 705 217 705 197.5 684 c 128,-1,9
 178 663 178 663 151 622 c 0,10,11
 143 610 143 610 145 597 c 128,-1,12
 147 584 147 584 158 577 c 0,13,14
 180 560 180 560 203 583 c 0,15,16
 209 589 209 589 207 594 c 1,17,18
 199 583 199 583 190 496 c 4,19,20
 144 63 144 63 139 10 c 1,21,22
 143 -33 143 -33 166 -31 c 128,-1,23
 189 -29 189 -29 199 8 c 1,24,25
 221 138 221 138 254 514 c 1,26,27
 264 601 264 601 289 662 c 0,0,1
EndSplineSet
EndUndoOperation
UndoOperation
Index: 21
Type: 1
WasModified: 1
WasOrder2: 1
Layer: 2
Width: 307
VWidth: 1000
LBearingChange: 0
UnicodeEnc: 0
InstructionsLength: 0
SplineSet
289 662 m 0,0,1
 294 674 294 674 294 678.5 c 128,-1,2
 294 683 294 683 297 694 c 128,-1,3
 300 705 300 705 291 717 c 0,4,5
 271 743.666666667 271 743.666666667 237 721 c 0,6,7
 229 714 229 714 223 709.5 c 128,-1,8
 217 705 217 705 197.5 684 c 128,-1,9
 178 663 178 663 151 622 c 0,10,11
 143 610 143 610 145 597 c 128,-1,12
 147 584 147 584 158 577 c 0,13,14
 180.425 560.425 180.425 560.425 203 583 c 0,15,16
 209 589 209 589 207 594 c 1,17,18
 195 546 195 546 192 531 c 4,19,20
 161 218 161 218 139 10 c 1,21,22
 143 -33 143 -33 166 -31 c 128,-1,23
 189 -29 189 -29 199 8 c 1,24,25
 221 138 221 138 254 514 c 1,26,27
 264 601 264 601 289 662 c 0,0,1
EndSplineSet
EndUndoOperation
UndoOperation
Index: 22
Type: 1
WasModified: 1
WasOrder2: 1
Layer: 2
Width: 307
VWidth: 1000
LBearingChange: 0
UnicodeEnc: 0
InstructionsLength: 0
SplineSet
289 662 m 4,0,1
 294 674 294 674 294 678.5 c 132,-1,2
 294 683 294 683 297 694 c 132,-1,3
 300 705 300 705 291 717 c 4,4,5
 271 743.666666667 271 743.666666667 237 721 c 4,6,7
 229 714 229 714 223 709.5 c 132,-1,8
 217 705 217 705 197.5 684 c 132,-1,9
 178 663 178 663 151 622 c 4,10,11
 143 610 143 610 145 597 c 132,-1,12
 147 584 147 584 158 577 c 4,13,14
 180.425 560.425 180.425 560.425 203 583 c 4,15,16
 209 589 209 589 207 594 c 5,17,18
 195 546 195 546 192 531 c 4,19,20
 161 218 161 218 139 10 c 5,21,22
 143 -33 143 -33 166 -31 c 132,-1,23
 189 -29 189 -29 199 8 c 5,24,25
 221 138 221 138 254 514 c 5,26,27
 264 601 264 601 289 662 c 4,0,1
EndSplineSet
EndUndoOperation
UndoOperation
Index: 23
Type: 1
WasModified: 1
WasOrder2: 1
Layer: 2
Width: 307
VWidth: 1000
LBearingChange: 0
UnicodeEnc: 0
InstructionsLength: 0
SplineSet
289 662 m 4,0,1
 294 674 294 674 294 678.5 c 132,-1,2
 294 683 294 683 297 694 c 132,-1,3
 300 705 300 705 291 717 c 4,4,5
 271 743.666666667 271 743.666666667 237 721 c 4,6,7
 229 714 229 714 223 709.5 c 132,-1,8
 217 705 217 705 197.5 684 c 132,-1,9
 178 663 178 663 151 622 c 4,10,11
 143 610 143 610 145 597 c 132,-1,12
 147 584 147 584 158 577 c 4,13,14
 180.425 560.425 180.425 560.425 203 583 c 4,15,16
 209 589 209 589 207 594 c 5,17,18
 195 546 195 546 192 531 c 4,19,20
 161 218 161 218 139 10 c 5,21,22
 143 -33 143 -33 166 -31 c 132,-1,23
 189 -29 189 -29 199 8 c 5,24,25
 221 138 221 138 254 514 c 5,26,27
 264 601 264 601 289 662 c 4,0,1
EndSplineSet
EndUndoOperation
UndoOperation
Index: 24
Type: 1
WasModified: 1
WasOrder2: 1
Layer: 2
Width: 307
VWidth: 1000
LBearingChange: 0
UnicodeEnc: 0
InstructionsLength: 0
SplineSet
289 662 m 4,0,1
 294 674 294 674 294 678.5 c 132,-1,2
 294 683 294 683 297 694 c 132,-1,3
 300 705 300 705 291 717 c 4,4,5
 271 743.666666667 271 743.666666667 237 721 c 4,6,7
 229 714 229 714 223 709.5 c 132,-1,8
 217 705 217 705 197.5 684 c 132,-1,9
 178 663 178 663 151 622 c 4,10,11
 143 610 143 610 145 597 c 132,-1,12
 147 584 147 584 158 577 c 4,13,14
 180.425 560.425 180.425 560.425 203 583 c 4,15,16
 209 589 209 589 207 594 c 5,17,18
 195 546 195 546 192 531 c 4,19,20
 161 218 161 218 139 10 c 5,21,22
 143 -33 143 -33 166 -31 c 132,-1,23
 189 -29 189 -29 199 8 c 5,24,25
 221 138 221 138 254 514 c 5,26,27
 264 601 264 601 289 662 c 4,0,1
EndSplineSet
EndUndoOperation
UndoOperation
Index: 25
Type: 1
WasModified: 1
WasOrder2: 1
Layer: 2
Width: 307
VWidth: 1000
LBearingChange: 0
UnicodeEnc: 0
InstructionsLength: 0
SplineSet
289 662 m 4,0,1
 294 674 294 674 294 678.5 c 132,-1,2
 294 683 294 683 297 694 c 132,-1,3
 300 705 300 705 291 717 c 4,4,5
 271 743.666666667 271 743.666666667 237 721 c 4,6,7
 229 714 229 714 223 709.5 c 132,-1,8
 217 705 217 705 197.5 684 c 132,-1,9
 178 663 178 663 151 622 c 4,10,11
 143 610 143 610 145 597 c 132,-1,12
 147 584 147 584 158 577 c 4,13,14
 180.425 560.425 180.425 560.425 203 583 c 4,15,16
 209 589 209 589 207 594 c 5,17,18
 195 546 195 546 192 531 c 4,19,20
 161 218 161 218 139 10 c 5,21,22
 143 -33 143 -33 166 -31 c 132,-1,23
 189 -29 189 -29 199 8 c 5,24,25
 221 138 221 138 254 514 c 5,26,27
 264 601 264 601 289 662 c 4,0,1
EndSplineSet
EndUndoOperation
UndoOperation
Index: 26
Type: 1
WasModified: 1
WasOrder2: 1
Layer: 2
Width: 307
VWidth: 1000
LBearingChange: 0
UnicodeEnc: 0
InstructionsLength: 0
SplineSet
289 662 m 4,0,1
 294 674 294 674 294 678.5 c 132,-1,2
 294 683 294 683 297 694 c 132,-1,3
 300 705 300 705 291 717 c 4,4,5
 271 743.666666667 271 743.666666667 237 721 c 4,6,7
 229 714 229 714 223 709.5 c 132,-1,8
 217 705 217 705 197.5 684 c 132,-1,9
 178 663 178 663 151 622 c 4,10,11
 143 610 143 610 145 597 c 132,-1,12
 147 584 147 584 158 577 c 4,13,14
 180.425 560.425 180.425 560.425 203 583 c 4,15,16
 209 589 209 589 207 594 c 5,17,18
 195 546 195 546 192 531 c 4,19,20
 161 218 161 218 139 10 c 5,21,22
 143 -33 143 -33 166 -31 c 132,-1,23
 189 -29 189 -29 199 8 c 5,24,25
 221 138 221 138 254 514 c 5,26,27
 264 601 264 601 289 662 c 4,0,1
EndSplineSet
EndUndoOperation
UndoOperation
Index: 27
Type: 1
WasModified: 1
WasOrder2: 1
Layer: 2
Width: 307
VWidth: 1000
LBearingChange: 0
UnicodeEnc: 0
InstructionsLength: 0
SplineSet
289 662 m 4,0,1
 294 674 294 674 294 678.5 c 132,-1,2
 294 683 294 683 297 694 c 132,-1,3
 300 705 300 705 291 717 c 4,4,5
 271 743.666666667 271 743.666666667 237 721 c 4,6,7
 229 714 229 714 223 709.5 c 132,-1,8
 217 705 217 705 197.5 684 c 132,-1,9
 178 663 178 663 151 622 c 4,10,11
 143 610 143 610 145 597 c 132,-1,12
 147 584 147 584 158 577 c 4,13,14
 180.425 560.425 180.425 560.425 203 583 c 4,15,16
 209 589 209 589 207 594 c 5,17,18
 195 546 195 546 192 531 c 4,19,20
 161 218 161 218 139 10 c 5,21,22
 143 -33 143 -33 166 -31 c 132,-1,23
 189 -29 189 -29 199 8 c 5,24,25
 221 138 221 138 254 514 c 5,26,27
 264 601 264 601 289 662 c 4,0,1
EndSplineSet
EndUndoOperation
UndoOperation
Index: 28
Type: 1
WasModified: 1
WasOrder2: 1
Layer: 2
Width: 307
VWidth: 1000
LBearingChange: 0
UnicodeEnc: 0
InstructionsLength: 0
SplineSet
289 662 m 4,0,1
 294 674 294 674 294 678.5 c 132,-1,2
 294 683 294 683 297 694 c 132,-1,3
 300 705 300 705 291 717 c 4,4,5
 271 743.666666667 271 743.666666667 237 721 c 4,6,7
 229 714 229 714 223 709.5 c 132,-1,8
 217 705 217 705 197.5 684 c 132,-1,9
 178 663 178 663 151 622 c 4,10,11
 143 610 143 610 145 597 c 132,-1,12
 147 584 147 584 158 577 c 4,13,14
 180.425 560.425 180.425 560.425 203 583 c 4,15,16
 209 589 209 589 207 594 c 5,17,18
 195 546 195 546 192 531 c 4,19,20
 161 218 161 218 139 10 c 5,21,22
 143 -33 143 -33 166 -31 c 132,-1,23
 189 -29 189 -29 199 8 c 5,24,25
 221 138 221 138 254 514 c 5,26,27
 264 601 264 601 289 662 c 4,0,1
EndSplineSet
EndUndoOperation
UndoOperation
Index: 29
Type: 1
WasModified: 1
WasOrder2: 1
Layer: 2
Width: 307
VWidth: 1000
LBearingChange: 0
UnicodeEnc: 0
InstructionsLength: 0
SplineSet
289 662 m 4,0,1
 294 674 294 674 294 678.5 c 132,-1,2
 294 683 294 683 297 694 c 132,-1,3
 300 705 300 705 291 717 c 4,4,5
 271 743.666666667 271 743.666666667 237 721 c 4,6,7
 229 714 229 714 223 709.5 c 132,-1,8
 217 705 217 705 197.5 684 c 132,-1,9
 178 663 178 663 151 622 c 4,10,11
 143 610 143 610 145 597 c 132,-1,12
 147 584 147 584 158 577 c 4,13,14
 180.425 560.425 180.425 560.425 203 583 c 4,15,16
 209 589 209 589 207 594 c 5,17,18
 195 546 195 546 192 531 c 4,19,20
 161 218 161 218 139 10 c 5,21,22
 143 -33 143 -33 166 -31 c 132,-1,23
 189 -29 189 -29 199 8 c 5,24,25
 221 138 221 138 254 514 c 5,26,27
 264 601 264 601 289 662 c 4,0,1
EndSplineSet
EndUndoOperation
UndoOperation
Index: 30
Type: 1
WasModified: 1
WasOrder2: 1
Layer: 2
Width: 307
VWidth: 1000
LBearingChange: 0
UnicodeEnc: 0
InstructionsLength: 0
SplineSet
199 8 m 5,0,1
 221 138 221 138 254 514 c 5,2,3
 264 601 264 601 289 662 c 4,4,5
 294 674 294 674 294 683 c 4,6,7
 294 684 294 684 295 686 c 132,-1,8
 296 688 296 688 296 689 c 6,9,10
 296 689 296 689 296 690 c 5,11,-1
 296 691 l 5,12,13
 300 705 300 705 291 717 c 132,-1,14
 282 729 282 729 267 730 c 4,15,16
 257 731 257 731 248 727 c 4,17,18
 240 723 240 723 237 721 c 4,19,20
 229 714 229 714 220 707 c 4,21,22
 217 705 217 705 184 669 c 4,23,24
 178 663 178 663 151 622 c 4,25,26
 143 610 143 610 145 598 c 4,27,28
 147 584 147 584 158 577 c 4,29,30
 180.425 560.425 180.425 560.425 203 583 c 4,31,32
 209 589 209 589 207 594 c 5,33,34
 204 582 204 582 200.5 567.5 c 132,-1,35
 197 553 197 553 195 544.5 c 132,-1,36
 193 536 193 536 192 531 c 4,37,38
 161 218 161 218 139 10 c 5,39,40
 143 -33 143 -33 166 -31 c 132,-1,41
 189 -29 189 -29 199 8 c 5,0,1
EndSplineSet
EndUndoOperation
UndoOperation
Index: 31
Type: 1
WasModified: 1
WasOrder2: 1
Layer: 2
Width: 307
VWidth: 1000
LBearingChange: 0
UnicodeEnc: 0
InstructionsLength: 0
SplineSet
199 8 m 1,0,1
 221 138 221 138 254 514 c 1,2,3
 264 601 264 601 289 662 c 0,4,5
 294 674 294 674 294 683 c 0,6,7
 294 684 294 684 295 686 c 128,-1,8
 296 688 296 688 296 689 c 2,9,10
 296 689 296 689 296 690 c 1,11,-1
 296 691 l 1,12,13
 300 705 300 705 291 717 c 128,-1,14
 282 729 282 729 267 730 c 0,15,16
 257 731 257 731 248 727 c 0,17,18
 240 723 240 723 237 721 c 0,19,20
 229 714 229 714 220 707 c 0,21,22
 217 705 217 705 184 669 c 0,23,24
 178 663 178 663 151 622 c 0,25,26
 143 610 143 610 145 598 c 0,27,28
 147 584 147 584 158 577 c 0,29,30
 181 560 181 560 182 560.5 c 4,31,32
 181.976203958 561.976203958 181.976203958 561.976203958 203 583 c 0,33,34
 209 589 209 589 207 594 c 1,35,36
 204 582 204 582 200.5 567.5 c 128,-1,37
 197 553 197 553 195 544.5 c 128,-1,38
 193 536 193 536 192 531 c 0,39,40
 161 218 161 218 139 10 c 1,41,42
 143 -33 143 -33 166 -31 c 128,-1,43
 189 -29 189 -29 199 8 c 1,0,1
EndSplineSet
EndUndoOperation
UndoOperation
Index: 32
Type: 1
WasModified: 1
WasOrder2: 1
Layer: 2
Width: 307
VWidth: 1000
LBearingChange: 0
UnicodeEnc: 0
InstructionsLength: 0
SplineSet
199 8 m 1,0,1
 221 138 221 138 254 514 c 1,2,3
 264 601 264 601 289 662 c 0,4,5
 294 674 294 674 294 683 c 0,6,7
 294 684 294 684 295 686 c 128,-1,8
 296 688 296 688 296 689 c 2,9,10
 296 689 296 689 296 690 c 1,11,-1
 296 691 l 1,12,13
 300 705 300 705 291 717 c 128,-1,14
 282 729 282 729 267 730 c 0,15,16
 257 731 257 731 248 727 c 0,17,18
 240 723 240 723 237 721 c 0,19,20
 229 714 229 714 220 707 c 0,21,22
 217 705 217 705 184 669 c 0,23,24
 143 625 143 625 141 622 c 4,25,26
 133 610 133 610 135 598 c 4,27,28
 137 584 137 584 148 577 c 4,29,30
 171 560 171 560 172 560.5 c 128,-1,32
 173 561 173 561 193 583 c 4,33,34
 200 588 200 588 207 594 c 1,35,36
 204 582 204 582 200.5 567.5 c 128,-1,37
 197 553 197 553 195 544.5 c 128,-1,38
 193 536 193 536 192 531 c 0,39,40
 161 218 161 218 139 10 c 1,41,42
 143 -33 143 -33 166 -31 c 128,-1,43
 189 -29 189 -29 199 8 c 1,0,1
EndSplineSet
EndUndoOperation
UndoOperation
Index: 33
Type: 1
WasModified: 1
WasOrder2: 1
Layer: 2
Width: 307
VWidth: 1000
LBearingChange: 0
UnicodeEnc: 0
InstructionsLength: 0
SplineSet
199 8 m 1,0,1
 221 138 221 138 254 514 c 1,2,3
 264 601 264 601 289 662 c 0,4,5
 294 674 294 674 294 683 c 0,6,7
 294 684 294 684 295 686 c 128,-1,8
 296 688 296 688 296 689 c 2,9,10
 296 689 296 689 296 690 c 1,11,-1
 296 691 l 1,12,13
 300 705 300 705 291 717 c 128,-1,14
 282 729 282 729 267 730 c 0,15,16
 257 731 257 731 248 727 c 0,17,18
 240 723 240 723 237 721 c 0,19,20
 229 714 229 714 220 707 c 0,21,22
 216.969620051 704.682650628 216.969620051 704.682650628 184 669 c 0,23,24
 163.01132769 646.456611222 163.01132769 646.456611222 141 612 c 4,25,26
 133 600 133 600 135 588 c 4,27,28
 137 574 137 574 148 567 c 4,29,30
 159 559 159 559 172 560.5 c 0,31,32
 182.765625 561.7421875 182.765625 561.7421875 193 573 c 4,33,34
 204 585 204 585 207 594 c 1,35,36
 204 582 204 582 200.5 567.5 c 128,-1,37
 197 553 197 553 195 544.5 c 128,-1,38
 193 536 193 536 192 531 c 0,39,40
 161 218 161 218 139 10 c 1,41,42
 143 -33 143 -33 166 -31 c 128,-1,43
 189 -29 189 -29 199 8 c 1,0,1
EndSplineSet
EndUndoOperation
UndoOperation
Index: 34
Type: 1
WasModified: 1
WasOrder2: 1
Layer: 2
Width: 307
VWidth: 1000
LBearingChange: 0
UnicodeEnc: 0
InstructionsLength: 0
SplineSet
199 8 m 1,0,1
 221 138 221 138 254 514 c 1,2,3
 263.536423841 600.887417219 263.536423841 600.887417219 289 662 c 0,4,5
 294 674 294 674 294 683 c 0,6,7
 294 684 294 684 295 686 c 128,-1,8
 296 688 296 688 296 689 c 2,9,10
 296 689 296 689 296 690 c 1,11,-1
 296 691 l 1,12,13
 300 705 300 705 291 717 c 128,-1,14
 282 729 282 729 267 730 c 0,15,16
 257 731 257 731 248 727 c 0,17,18
 240 723 240 723 237 721 c 0,19,20
 229 714 229 714 220 707 c 0,21,22
 203 694 203 694 184 669 c 0,23,24
 155.298951097 642.373688871 155.298951097 642.373688871 131 612 c 4,25,26
 123 602 123 602 125 588 c 132,-1,27
 127 574 127 574 138 567 c 4,28,29
 149 559 149 559 162 560.5 c 128,-1,30
 175 562 175 562 183 573 c 4,31,32
 195 584 195 584 207 594 c 1,33,34
 204 582 204 582 200.5 567.5 c 128,-1,35
 197 553 197 553 195 544.5 c 128,-1,36
 193 536 193 536 192 531 c 0,37,38
 161 218 161 218 139 10 c 1,39,40
 143 -33 143 -33 166 -31 c 128,-1,41
 189 -29 189 -29 199 8 c 1,0,1
EndSplineSet
EndUndoOperation
UndoOperation
Index: 35
Type: 1
WasModified: 1
WasOrder2: 1
Layer: 2
Width: 307
VWidth: 1000
LBearingChange: 0
UnicodeEnc: 0
InstructionsLength: 0
SplineSet
199 8 m 1,0,1
 221 138 221 138 254 514 c 1,2,3
 263.441860465 596.279069767 263.441860465 596.279069767 289 662 c 0,4,5
 294 674 294 674 294 683 c 0,6,7
 294 684 294 684 295 686 c 128,-1,8
 296 688 296 688 296 689 c 2,9,10
 296 689 296 689 296 690 c 1,11,-1
 296 691 l 1,12,13
 300 705 300 705 291 717 c 128,-1,14
 282 729 282 729 267 730 c 0,15,16
 257 731 257 731 248 727 c 0,17,18
 240 723 240 723 237 721 c 0,19,20
 229 714 229 714 220 707 c 0,21,22
 203 694 203 694 184 669 c 0,23,24
 168 649 168 649 131 602 c 4,25,26
 123 592 123 592 125 578 c 132,-1,27
 127 564 127 564 138 557 c 4,28,29
 149 549 149 549 162 550.5 c 128,-1,30
 175 552 175 552 183 563 c 4,31,32
 199 585 199 585 207 594 c 1,33,34
 204 582 204 582 200.5 567.5 c 128,-1,35
 197 553 197 553 195 544.5 c 128,-1,36
 193 536 193 536 192 531 c 0,37,38
 161 218 161 218 139 10 c 1,39,40
 143 -33 143 -33 166 -31 c 128,-1,41
 189 -29 189 -29 199 8 c 1,0,1
EndSplineSet
EndUndoOperation
UndoOperation
Index: 36
Type: 1
WasModified: 1
WasOrder2: 1
Layer: 2
Width: 307
VWidth: 1000
LBearingChange: 0
UnicodeEnc: 0
InstructionsLength: 0
SplineSet
199 8 m 1,0,1
 221 138 221 138 254 514 c 1,2,3
 261 575 261 575 274 596 c 4,4,5
 275 598 275 598 275 599 c 4,6,7
 275 626 275 626 289 662 c 0,8,9
 294 674 294 674 294 683 c 0,10,11
 294 684 294 684 295 686 c 128,-1,12
 296 688 296 688 296 689 c 2,13,14
 296 689 296 689 296 690 c 1,15,-1
 296 691 l 1,16,17
 300 705 300 705 291 717 c 128,-1,18
 282 729 282 729 267 730 c 0,19,20
 257 731 257 731 248 727 c 0,21,22
 240 723 240 723 237 721 c 0,23,24
 229 714 229 714 220 707 c 0,25,26
 203 694 203 694 184 669 c 0,27,28
 168 649 168 649 131 602 c 0,29,30
 123 592 123 592 125 578 c 128,-1,31
 127 564 127 564 138 557 c 0,32,33
 149 549 149 549 162 550.5 c 128,-1,34
 175 552 175 552 183 563 c 0,35,36
 199 585 199 585 207 594 c 1,37,38
 204 582 204 582 200.5 567.5 c 128,-1,39
 197 553 197 553 195 544.5 c 128,-1,40
 193 536 193 536 192 531 c 0,41,42
 161 218 161 218 139 10 c 1,43,44
 143 -33 143 -33 166 -31 c 128,-1,45
 189 -29 189 -29 199 8 c 1,0,1
EndSplineSet
EndUndoOperation
UndoOperation
Index: 37
Type: 1
WasModified: 1
WasOrder2: 1
Layer: 2
Width: 307
VWidth: 1000
LBearingChange: 0
UnicodeEnc: 0
InstructionsLength: 0
SplineSet
199 8 m 1,0,1
 221 138 221 138 254 514 c 5,2,3
 248 545 248 545 274 596 c 0,4,5
 275 598 275 598 275 599 c 0,6,7
 275 626 275 626 289 662 c 0,8,9
 294 674 294 674 294 683 c 0,10,11
 294 684 294 684 295 686 c 128,-1,12
 296 688 296 688 296 689 c 2,13,14
 296 689 296 689 296 690 c 1,15,-1
 296 691 l 1,16,17
 300 705 300 705 291 717 c 128,-1,18
 282 729 282 729 267 730 c 0,19,20
 257 731 257 731 248 727 c 0,21,22
 240 723 240 723 237 721 c 0,23,24
 229 714 229 714 220 707 c 0,25,26
 203 694 203 694 184 669 c 0,27,28
 168 649 168 649 131 602 c 0,29,30
 123 592 123 592 125 578 c 128,-1,31
 127 564 127 564 138 557 c 0,32,33
 149 549 149 549 162 550.5 c 128,-1,34
 175 552 175 552 183 563 c 0,35,36
 199 585 199 585 207 594 c 1,37,38
 204 582 204 582 200.5 567.5 c 128,-1,39
 197 553 197 553 195 544.5 c 128,-1,40
 193 536 193 536 192 531 c 0,41,42
 161 218 161 218 139 10 c 1,43,44
 143 -33 143 -33 166 -31 c 128,-1,45
 189 -29 189 -29 199 8 c 1,0,1
EndSplineSet
EndUndoOperation
UndoOperation
Index: 38
Type: 1
WasModified: 1
WasOrder2: 1
Layer: 2
Width: 307
VWidth: 1000
LBearingChange: 0
UnicodeEnc: 0
InstructionsLength: 0
SplineSet
199 8 m 5,0,1
 231 122 231 122 254 514 c 1,2,3
 248 545 248 545 274 596 c 0,4,5
 275 598 275 598 275 599 c 0,6,7
 275 626 275 626 289 662 c 0,8,9
 294 674 294 674 294 683 c 0,10,11
 294 684 294 684 295 686 c 128,-1,12
 296 688 296 688 296 689 c 2,13,14
 296 689 296 689 296 690 c 1,15,-1
 296 691 l 1,16,17
 300 705 300 705 291 717 c 128,-1,18
 282 729 282 729 267 730 c 0,19,20
 257 731 257 731 248 727 c 0,21,22
 240 723 240 723 237 721 c 0,23,24
 229 714 229 714 220 707 c 0,25,26
 203 694 203 694 184 669 c 0,27,28
 168 649 168 649 131 602 c 0,29,30
 123 592 123 592 125 578 c 128,-1,31
 127 564 127 564 138 557 c 0,32,33
 149 549 149 549 162 550.5 c 128,-1,34
 175 552 175 552 183 563 c 0,35,36
 199 585 199 585 207 594 c 1,37,38
 204 582 204 582 200.5 567.5 c 128,-1,39
 197 553 197 553 195 544.5 c 128,-1,40
 193 536 193 536 192 531 c 4,41,42
 161 218 161 218 139 10 c 5,43,44
 143 -33 143 -33 166 -31 c 128,-1,45
 189 -29 189 -29 199 8 c 5,0,1
EndSplineSet
EndUndoOperation
UndoOperation
Index: 39
Type: 1
WasModified: 1
WasOrder2: 1
Layer: 2
Width: 307
VWidth: 1000
LBearingChange: 0
UnicodeEnc: 0
InstructionsLength: 0
SplineSet
199 8 m 1,0,1
 231 122 231 122 254 514 c 1,2,3
 248 545 248 545 274 596 c 0,4,5
 275 598 275 598 275 599 c 0,6,7
 275 626 275 626 289 662 c 0,8,9
 294 674 294 674 294 683 c 0,10,11
 294 684 294 684 295 686 c 128,-1,12
 296 688 296 688 296 689 c 2,13,14
 296 689 296 689 296 690 c 1,15,-1
 296 691 l 1,16,17
 300 705 300 705 291 717 c 128,-1,18
 282 729 282 729 267 730 c 0,19,20
 257 731 257 731 248 727 c 0,21,22
 240 723 240 723 237 721 c 0,23,24
 229 714 229 714 220 707 c 0,25,26
 203 694 203 694 184 669 c 0,27,28
 168 649 168 649 131 602 c 0,29,30
 123 592 123 592 125 578 c 128,-1,31
 127 564 127 564 138 557 c 0,32,33
 149 549 149 549 162 550.5 c 128,-1,34
 175 552 175 552 183 563 c 0,35,36
 199 585 199 585 207 594 c 1,37,38
 204 582 204 582 200.5 567.5 c 128,-1,39
 197 553 197 553 195 544.5 c 128,-1,40
 193 536 193 536 192 531 c 4,41,42
 125 189 125 189 139 10 c 5,43,44
 143 -33 143 -33 166 -31 c 128,-1,45
 189 -29 189 -29 199 8 c 1,0,1
EndSplineSet
EndUndoOperation
UndoOperation
Index: 40
Type: 1
WasModified: 1
WasOrder2: 1
Layer: 2
Width: 307
VWidth: 1000
LBearingChange: 0
UnicodeEnc: 0
InstructionsLength: 0
SplineSet
199 8 m 1,0,1
 231 122 231 122 254 514 c 1,2,3
 248 545 248 545 274 596 c 0,4,5
 275 598 275 598 275 599 c 0,6,7
 275 626 275 626 289 662 c 0,8,9
 294 674 294 674 294 683 c 0,10,11
 294 684 294 684 295 686 c 128,-1,12
 296 688 296 688 296 689 c 2,13,14
 296 689 296 689 296 690 c 1,15,-1
 296 691 l 1,16,17
 300 705 300 705 291 717 c 128,-1,18
 282 729 282 729 267 730 c 0,19,20
 257 731 257 731 248 727 c 0,21,22
 240 723 240 723 237 721 c 0,23,24
 229 714 229 714 220 707 c 0,25,26
 203 694 203 694 184 669 c 0,27,28
 168 649 168 649 131 602 c 0,29,30
 123 592 123 592 125 578 c 128,-1,31
 127 564 127 564 138 557 c 0,32,33
 149 549 149 549 162 550.5 c 128,-1,34
 175 552 175 552 183 563 c 0,35,36
 199 585 199 585 207 594 c 1,37,38
 204 582 204 582 200.5 567.5 c 128,-1,39
 197 553 197 553 195 544.5 c 128,-1,40
 193 536 193 536 192 531 c 0,41,42
 124 185 124 185 138 10 c 5,43,44
 142 -33 142 -33 165.5 -31 c 128,-1,45
 189 -29 189 -29 199 8 c 1,0,1
EndSplineSet
EndUndoOperation
UndoOperation
Index: 41
Type: 1
WasModified: 1
WasOrder2: 1
Layer: 2
Width: 307
VWidth: 1000
LBearingChange: 0
UnicodeEnc: 0
InstructionsLength: 0
SplineSet
199 8 m 1,0,1
 231 122 231 122 254 514 c 1,2,3
 248 545 248 545 274 596 c 0,4,5
 275 598 275 598 275 599 c 0,6,7
 275 626 275 626 289 662 c 0,8,9
 294 674 294 674 294 683 c 0,10,11
 294 684 294 684 295 686 c 128,-1,12
 296 688 296 688 296 689 c 2,13,14
 296 689 296 689 296 690 c 1,15,-1
 296 691 l 1,16,17
 300 705 300 705 291 717 c 128,-1,18
 282 729 282 729 267 730 c 0,19,20
 257 731 257 731 248 727 c 0,21,22
 240 723 240 723 237 721 c 0,23,24
 229 714 229 714 220 707 c 0,25,26
 203 694 203 694 184 669 c 0,27,28
 168 649 168 649 131 602 c 0,29,30
 123 592 123 592 125 578 c 128,-1,31
 127 564 127 564 138 557 c 0,32,33
 149 549 149 549 162 550.5 c 128,-1,34
 175 552 175 552 183 563 c 0,35,36
 199 585 199 585 207 594 c 1,37,38
 204 582 204 582 200.5 567.5 c 128,-1,39
 197 553 197 553 195 544.5 c 128,-1,40
 193 536 193 536 192 531 c 0,41,42
 123 181 123 181 137 10 c 5,43,44
 141 -33 141 -33 165 -31 c 128,-1,45
 189 -29 189 -29 199 8 c 1,0,1
EndSplineSet
EndUndoOperation
UndoOperation
Index: 42
Type: 1
WasModified: 1
WasOrder2: 1
Layer: 2
Width: 307
VWidth: 1000
LBearingChange: 0
UnicodeEnc: 0
InstructionsLength: 0
SplineSet
199 8 m 1,0,1
 231 122 231 122 254 514 c 1,2,3
 248 545 248 545 274 596 c 0,4,5
 275 598 275 598 275 599 c 0,6,7
 275 626 275 626 289 662 c 0,8,9
 294 674 294 674 294 683 c 0,10,11
 294 684 294 684 295 686 c 128,-1,12
 296 688 296 688 296 689 c 2,13,14
 296 689 296 689 296 690 c 1,15,-1
 296 691 l 1,16,17
 300 705 300 705 291 717 c 128,-1,18
 282 729 282 729 267 730 c 0,19,20
 257 731 257 731 248 727 c 0,21,22
 240 723 240 723 237 721 c 0,23,24
 229 714 229 714 220 707 c 0,25,26
 203 694 203 694 184 669 c 0,27,28
 168 649 168 649 131 602 c 0,29,30
 123 592 123 592 125 578 c 128,-1,31
 127 564 127 564 138 557 c 0,32,33
 149 549 149 549 162 550.5 c 128,-1,34
 175 552 175 552 183 563 c 0,35,36
 199 585 199 585 207 594 c 1,37,38
 204 582 204 582 200.5 567.5 c 128,-1,39
 197 553 197 553 195 544.5 c 128,-1,40
 193 536 193 536 192 531 c 0,41,42
 122 177 122 177 136 10 c 5,43,44
 140 -33 140 -33 164.5 -31 c 128,-1,45
 189 -29 189 -29 199 8 c 1,0,1
EndSplineSet
EndUndoOperation
UndoOperation
Index: 43
Type: 1
WasModified: 1
WasOrder2: 1
Layer: 2
Width: 307
VWidth: 1000
LBearingChange: 0
UnicodeEnc: 0
InstructionsLength: 0
SplineSet
199 8 m 1,0,1
 231 122 231 122 254 514 c 1,2,3
 248 545 248 545 274 596 c 0,4,5
 275 598 275 598 275 599 c 0,6,7
 275 626 275 626 289 662 c 0,8,9
 294 674 294 674 294 683 c 0,10,11
 294 684 294 684 295 686 c 128,-1,12
 296 688 296 688 296 689 c 2,13,14
 296 689 296 689 296 690 c 1,15,-1
 296 691 l 1,16,17
 300 705 300 705 291 717 c 128,-1,18
 282 729 282 729 267 730 c 0,19,20
 257 731 257 731 248 727 c 0,21,22
 240 723 240 723 237 721 c 0,23,24
 229 714 229 714 220 707 c 0,25,26
 203 694 203 694 184 669 c 0,27,28
 168 649 168 649 131 602 c 0,29,30
 123 592 123 592 125 578 c 128,-1,31
 127 564 127 564 138 557 c 0,32,33
 149 549 149 549 162 550.5 c 128,-1,34
 175 552 175 552 183 563 c 0,35,36
 199 585 199 585 207 594 c 1,37,38
 204 582 204 582 200.5 567.5 c 128,-1,39
 197 553 197 553 195 544.5 c 128,-1,40
 193 536 193 536 192 531 c 0,41,42
 121 173 121 173 135 10 c 5,43,44
 139 -33 139 -33 164 -31 c 128,-1,45
 189 -29 189 -29 199 8 c 1,0,1
EndSplineSet
EndUndoOperation
UndoOperation
Index: 44
Type: 1
WasModified: 1
WasOrder2: 1
Layer: 2
Width: 307
VWidth: 1000
LBearingChange: 0
UnicodeEnc: 0
InstructionsLength: 0
SplineSet
199 8 m 1,0,1
 231 122 231 122 254 514 c 1,2,3
 248 545 248 545 274 596 c 0,4,5
 275 598 275 598 275 599 c 0,6,7
 275 626 275 626 289 662 c 0,8,9
 294 674 294 674 294 683 c 0,10,11
 294 684 294 684 295 686 c 128,-1,12
 296 688 296 688 296 689 c 2,13,14
 296 689 296 689 296 690 c 1,15,-1
 296 691 l 1,16,17
 300 705 300 705 291 717 c 128,-1,18
 282 729 282 729 267 730 c 0,19,20
 257 731 257 731 248 727 c 0,21,22
 240 723 240 723 237 721 c 0,23,24
 229 714 229 714 220 707 c 0,25,26
 203 694 203 694 184 669 c 0,27,28
 168 649 168 649 131 602 c 0,29,30
 123 592 123 592 125 578 c 128,-1,31
 127 564 127 564 138 557 c 0,32,33
 149 549 149 549 162 550.5 c 128,-1,34
 175 552 175 552 183 563 c 0,35,36
 199 585 199 585 207 594 c 1,37,38
 204 582 204 582 200.5 567.5 c 128,-1,39
 197 553 197 553 195 544.5 c 128,-1,40
 193 536 193 536 192 531 c 0,41,42
 120 170 120 170 134 10 c 5,43,44
 138 -33 138 -33 163.5 -31 c 128,-1,45
 189 -29 189 -29 199 8 c 1,0,1
EndSplineSet
EndUndoOperation
UndoOperation
Index: 45
Type: 1
WasModified: 1
WasOrder2: 1
Layer: 2
Width: 307
VWidth: 1000
LBearingChange: 0
UnicodeEnc: 0
InstructionsLength: 0
SplineSet
199 8 m 1,0,1
 231 122 231 122 254 514 c 1,2,3
 248 545 248 545 274 596 c 0,4,5
 275 598 275 598 275 599 c 0,6,7
 275 626 275 626 289 662 c 0,8,9
 294 674 294 674 294 683 c 0,10,11
 294 684 294 684 295 686 c 128,-1,12
 296 688 296 688 296 689 c 2,13,14
 296 689 296 689 296 690 c 1,15,-1
 296 691 l 1,16,17
 300 705 300 705 291 717 c 128,-1,18
 282 729 282 729 267 730 c 0,19,20
 257 731 257 731 248 727 c 0,21,22
 240 723 240 723 237 721 c 0,23,24
 229 714 229 714 220 707 c 0,25,26
 203 694 203 694 184 669 c 0,27,28
 168 649 168 649 131 602 c 0,29,30
 123 592 123 592 125 578 c 128,-1,31
 127 564 127 564 138 557 c 0,32,33
 149 549 149 549 162 550.5 c 128,-1,34
 175 552 175 552 183 563 c 0,35,36
 199 585 199 585 207 594 c 1,37,38
 204 582 204 582 200.5 567.5 c 128,-1,39
 197 553 197 553 195 544.5 c 128,-1,40
 193 536 193 536 192 531 c 0,41,42
 119 167 119 167 133 10 c 5,43,44
 137 -33 137 -33 163 -31 c 128,-1,45
 189 -29 189 -29 199 8 c 1,0,1
EndSplineSet
EndUndoOperation
UndoOperation
Index: 46
Type: 1
WasModified: 1
WasOrder2: 1
Layer: 2
Width: 307
VWidth: 1000
LBearingChange: 0
UnicodeEnc: 0
InstructionsLength: 0
SplineSet
200 8 m 5,0,1
 231 118 231 118 254 514 c 1,2,3
 248 545 248 545 274 596 c 0,4,5
 275 598 275 598 275 599 c 0,6,7
 275 626 275 626 289 662 c 0,8,9
 294 674 294 674 294 683 c 0,10,11
 294 684 294 684 295 686 c 128,-1,12
 296 688 296 688 296 689 c 2,13,14
 296 689 296 689 296 690 c 1,15,-1
 296 691 l 1,16,17
 300 705 300 705 291 717 c 128,-1,18
 282 729 282 729 267 730 c 0,19,20
 257 731 257 731 248 727 c 0,21,22
 240 723 240 723 237 721 c 0,23,24
 229 714 229 714 220 707 c 0,25,26
 203 694 203 694 184 669 c 0,27,28
 168 649 168 649 131 602 c 0,29,30
 123 592 123 592 125 578 c 128,-1,31
 127 564 127 564 138 557 c 0,32,33
 149 549 149 549 162 550.5 c 128,-1,34
 175 552 175 552 183 563 c 0,35,36
 199 585 199 585 207 594 c 1,37,38
 204 582 204 582 200.5 567.5 c 128,-1,39
 197 553 197 553 195 544.5 c 128,-1,40
 193 536 193 536 192 531 c 0,41,42
 119 167 119 167 133 10 c 1,43,44
 137 -33 137 -33 163.5 -31 c 128,-1,45
 190 -29 190 -29 200 8 c 5,0,1
EndSplineSet
EndUndoOperation
UndoOperation
Index: 47
Type: 1
WasModified: 1
WasOrder2: 1
Layer: 2
Width: 307
VWidth: 1000
LBearingChange: 0
UnicodeEnc: 0
InstructionsLength: 0
SplineSet
201 8 m 5,0,1
 231 114 231 114 254 514 c 1,2,3
 248 545 248 545 274 596 c 0,4,5
 275 598 275 598 275 599 c 0,6,7
 275 626 275 626 289 662 c 0,8,9
 294 674 294 674 294 683 c 0,10,11
 294 684 294 684 295 686 c 128,-1,12
 296 688 296 688 296 689 c 2,13,14
 296 689 296 689 296 690 c 1,15,-1
 296 691 l 1,16,17
 300 705 300 705 291 717 c 128,-1,18
 282 729 282 729 267 730 c 0,19,20
 257 731 257 731 248 727 c 0,21,22
 240 723 240 723 237 721 c 0,23,24
 229 714 229 714 220 707 c 0,25,26
 203 694 203 694 184 669 c 0,27,28
 168 649 168 649 131 602 c 0,29,30
 123 592 123 592 125 578 c 128,-1,31
 127 564 127 564 138 557 c 0,32,33
 149 549 149 549 162 550.5 c 128,-1,34
 175 552 175 552 183 563 c 0,35,36
 199 585 199 585 207 594 c 1,37,38
 204 582 204 582 200.5 567.5 c 128,-1,39
 197 553 197 553 195 544.5 c 128,-1,40
 193 536 193 536 192 531 c 0,41,42
 119 167 119 167 133 10 c 1,43,44
 137 -33 137 -33 164 -31 c 128,-1,45
 191 -29 191 -29 201 8 c 5,0,1
EndSplineSet
EndUndoOperation
UndoOperation
Index: 48
Type: 1
WasModified: 1
WasOrder2: 1
Layer: 2
Width: 307
VWidth: 1000
LBearingChange: 0
UnicodeEnc: 0
InstructionsLength: 0
SplineSet
202 8 m 5,0,1
 231 110 231 110 254 514 c 1,2,3
 248 545 248 545 274 596 c 0,4,5
 275 598 275 598 275 599 c 0,6,7
 275 626 275 626 289 662 c 0,8,9
 294 674 294 674 294 683 c 0,10,11
 294 684 294 684 295 686 c 128,-1,12
 296 688 296 688 296 689 c 2,13,14
 296 689 296 689 296 690 c 1,15,-1
 296 691 l 1,16,17
 300 705 300 705 291 717 c 128,-1,18
 282 729 282 729 267 730 c 0,19,20
 257 731 257 731 248 727 c 0,21,22
 240 723 240 723 237 721 c 0,23,24
 229 714 229 714 220 707 c 0,25,26
 203 694 203 694 184 669 c 0,27,28
 168 649 168 649 131 602 c 0,29,30
 123 592 123 592 125 578 c 128,-1,31
 127 564 127 564 138 557 c 0,32,33
 149 549 149 549 162 550.5 c 128,-1,34
 175 552 175 552 183 563 c 0,35,36
 199 585 199 585 207 594 c 1,37,38
 204 582 204 582 200.5 567.5 c 128,-1,39
 197 553 197 553 195 544.5 c 128,-1,40
 193 536 193 536 192 531 c 0,41,42
 119 167 119 167 133 10 c 1,43,44
 137 -33 137 -33 164.5 -31 c 128,-1,45
 192 -29 192 -29 202 8 c 5,0,1
EndSplineSet
EndUndoOperation
UndoOperation
Index: 49
Type: 1
WasModified: 1
WasOrder2: 1
Layer: 2
Width: 307
VWidth: 1000
LBearingChange: 0
UnicodeEnc: 0
InstructionsLength: 0
SplineSet
203 8 m 5,0,1
 231 106 231 106 254 514 c 1,2,3
 248 545 248 545 274 596 c 0,4,5
 275 598 275 598 275 599 c 0,6,7
 275 626 275 626 289 662 c 0,8,9
 294 674 294 674 294 683 c 0,10,11
 294 684 294 684 295 686 c 128,-1,12
 296 688 296 688 296 689 c 2,13,14
 296 689 296 689 296 690 c 1,15,-1
 296 691 l 1,16,17
 300 705 300 705 291 717 c 128,-1,18
 282 729 282 729 267 730 c 0,19,20
 257 731 257 731 248 727 c 0,21,22
 240 723 240 723 237 721 c 0,23,24
 229 714 229 714 220 707 c 0,25,26
 203 694 203 694 184 669 c 0,27,28
 168 649 168 649 131 602 c 0,29,30
 123 592 123 592 125 578 c 128,-1,31
 127 564 127 564 138 557 c 0,32,33
 149 549 149 549 162 550.5 c 128,-1,34
 175 552 175 552 183 563 c 0,35,36
 199 585 199 585 207 594 c 1,37,38
 204 582 204 582 200.5 567.5 c 128,-1,39
 197 553 197 553 195 544.5 c 128,-1,40
 193 536 193 536 192 531 c 0,41,42
 119 167 119 167 133 10 c 1,43,44
 137 -33 137 -33 165 -31 c 128,-1,45
 193 -29 193 -29 203 8 c 5,0,1
EndSplineSet
EndUndoOperation
UndoOperation
Index: 50
Type: 1
WasModified: 1
WasOrder2: 1
Layer: 2
Width: 307
VWidth: 1000
LBearingChange: 0
UnicodeEnc: 0
InstructionsLength: 0
SplineSet
204 8 m 5,0,1
 231 102 231 102 254 514 c 1,2,3
 248 545 248 545 274 596 c 0,4,5
 275 598 275 598 275 599 c 0,6,7
 275 626 275 626 289 662 c 0,8,9
 294 674 294 674 294 683 c 0,10,11
 294 684 294 684 295 686 c 128,-1,12
 296 688 296 688 296 689 c 2,13,14
 296 689 296 689 296 690 c 1,15,-1
 296 691 l 1,16,17
 300 705 300 705 291 717 c 128,-1,18
 282 729 282 729 267 730 c 0,19,20
 257 731 257 731 248 727 c 0,21,22
 240 723 240 723 237 721 c 0,23,24
 229 714 229 714 220 707 c 0,25,26
 203 694 203 694 184 669 c 0,27,28
 168 649 168 649 131 602 c 0,29,30
 123 592 123 592 125 578 c 128,-1,31
 127 564 127 564 138 557 c 0,32,33
 149 549 149 549 162 550.5 c 128,-1,34
 175 552 175 552 183 563 c 0,35,36
 199 585 199 585 207 594 c 1,37,38
 204 582 204 582 200.5 567.5 c 128,-1,39
 197 553 197 553 195 544.5 c 128,-1,40
 193 536 193 536 192 531 c 0,41,42
 119 167 119 167 133 10 c 1,43,44
 137 -33 137 -33 165.5 -31 c 128,-1,45
 194 -29 194 -29 204 8 c 5,0,1
EndSplineSet
EndUndoOperation
UndoOperation
Index: 51
Type: 1
WasModified: 1
WasOrder2: 1
Layer: 2
Width: 307
VWidth: 1000
LBearingChange: 0
UnicodeEnc: 0
InstructionsLength: 0
SplineSet
205 8 m 5,0,1
 231 98 231 98 254 514 c 1,2,3
 248 545 248 545 274 596 c 0,4,5
 275 598 275 598 275 599 c 0,6,7
 275 626 275 626 289 662 c 0,8,9
 294 674 294 674 294 683 c 0,10,11
 294 684 294 684 295 686 c 128,-1,12
 296 688 296 688 296 689 c 2,13,14
 296 689 296 689 296 690 c 1,15,-1
 296 691 l 1,16,17
 300 705 300 705 291 717 c 128,-1,18
 282 729 282 729 267 730 c 0,19,20
 257 731 257 731 248 727 c 0,21,22
 240 723 240 723 237 721 c 0,23,24
 229 714 229 714 220 707 c 0,25,26
 203 694 203 694 184 669 c 0,27,28
 168 649 168 649 131 602 c 0,29,30
 123 592 123 592 125 578 c 128,-1,31
 127 564 127 564 138 557 c 0,32,33
 149 549 149 549 162 550.5 c 128,-1,34
 175 552 175 552 183 563 c 0,35,36
 199 585 199 585 207 594 c 1,37,38
 204 582 204 582 200.5 567.5 c 128,-1,39
 197 553 197 553 195 544.5 c 128,-1,40
 193 536 193 536 192 531 c 0,41,42
 119 167 119 167 133 10 c 1,43,44
 137 -33 137 -33 166 -31 c 128,-1,45
 195 -29 195 -29 205 8 c 5,0,1
EndSplineSet
EndUndoOperation
UndoOperation
Index: 52
Type: 1
WasModified: 1
WasOrder2: 1
Layer: 2
Width: 307
VWidth: 1000
LBearingChange: 0
UnicodeEnc: 0
InstructionsLength: 0
SplineSet
206 8 m 5,0,1
 231 94 231 94 254 514 c 1,2,3
 248 545 248 545 274 596 c 0,4,5
 275 598 275 598 275 599 c 0,6,7
 275 626 275 626 289 662 c 0,8,9
 294 674 294 674 294 683 c 0,10,11
 294 684 294 684 295 686 c 128,-1,12
 296 688 296 688 296 689 c 2,13,14
 296 689 296 689 296 690 c 1,15,-1
 296 691 l 1,16,17
 300 705 300 705 291 717 c 128,-1,18
 282 729 282 729 267 730 c 0,19,20
 257 731 257 731 248 727 c 0,21,22
 240 723 240 723 237 721 c 0,23,24
 229 714 229 714 220 707 c 0,25,26
 203 694 203 694 184 669 c 0,27,28
 168 649 168 649 131 602 c 0,29,30
 123 592 123 592 125 578 c 128,-1,31
 127 564 127 564 138 557 c 0,32,33
 149 549 149 549 162 550.5 c 128,-1,34
 175 552 175 552 183 563 c 0,35,36
 199 585 199 585 207 594 c 1,37,38
 204 582 204 582 200.5 567.5 c 128,-1,39
 197 553 197 553 195 544.5 c 128,-1,40
 193 536 193 536 192 531 c 0,41,42
 119 167 119 167 133 10 c 1,43,44
 137 -33 137 -33 166.5 -31 c 128,-1,45
 196 -29 196 -29 206 8 c 5,0,1
EndSplineSet
EndUndoOperation
UndoOperation
Index: 53
Type: 1
WasModified: 1
WasOrder2: 1
Layer: 2
Width: 307
VWidth: 1000
LBearingChange: 0
UnicodeEnc: 0
InstructionsLength: 0
SplineSet
207 8 m 5,0,1
 231 90 231 90 254 514 c 1,2,3
 248 545 248 545 274 596 c 0,4,5
 275 598 275 598 275 599 c 0,6,7
 275 626 275 626 289 662 c 0,8,9
 294 674 294 674 294 683 c 0,10,11
 294 684 294 684 295 686 c 128,-1,12
 296 688 296 688 296 689 c 2,13,14
 296 689 296 689 296 690 c 1,15,-1
 296 691 l 1,16,17
 300 705 300 705 291 717 c 128,-1,18
 282 729 282 729 267 730 c 0,19,20
 257 731 257 731 248 727 c 0,21,22
 240 723 240 723 237 721 c 0,23,24
 229 714 229 714 220 707 c 0,25,26
 203 694 203 694 184 669 c 0,27,28
 168 649 168 649 131 602 c 0,29,30
 123 592 123 592 125 578 c 128,-1,31
 127 564 127 564 138 557 c 0,32,33
 149 549 149 549 162 550.5 c 128,-1,34
 175 552 175 552 183 563 c 0,35,36
 199 585 199 585 207 594 c 1,37,38
 204 582 204 582 200.5 567.5 c 128,-1,39
 197 553 197 553 195 544.5 c 128,-1,40
 193 536 193 536 192 531 c 0,41,42
 119 167 119 167 133 10 c 1,43,44
 137 -33 137 -33 167 -31 c 128,-1,45
 197 -29 197 -29 207 8 c 5,0,1
EndSplineSet
EndUndoOperation
UndoOperation
Index: 54
Type: 1
WasModified: 1
WasOrder2: 1
Layer: 2
Width: 307
VWidth: 1000
LBearingChange: 0
UnicodeEnc: 0
InstructionsLength: 0
SplineSet
208 8 m 5,0,1
 231 86 231 86 254 514 c 1,2,3
 248 545 248 545 274 596 c 0,4,5
 275 598 275 598 275 599 c 0,6,7
 275 626 275 626 289 662 c 0,8,9
 294 674 294 674 294 683 c 0,10,11
 294 684 294 684 295 686 c 128,-1,12
 296 688 296 688 296 689 c 2,13,14
 296 689 296 689 296 690 c 1,15,-1
 296 691 l 1,16,17
 300 705 300 705 291 717 c 128,-1,18
 282 729 282 729 267 730 c 0,19,20
 257 731 257 731 248 727 c 0,21,22
 240 723 240 723 237 721 c 0,23,24
 229 714 229 714 220 707 c 0,25,26
 203 694 203 694 184 669 c 0,27,28
 168 649 168 649 131 602 c 0,29,30
 123 592 123 592 125 578 c 128,-1,31
 127 564 127 564 138 557 c 0,32,33
 149 549 149 549 162 550.5 c 128,-1,34
 175 552 175 552 183 563 c 0,35,36
 199 585 199 585 207 594 c 1,37,38
 204 582 204 582 200.5 567.5 c 128,-1,39
 197 553 197 553 195 544.5 c 128,-1,40
 193 536 193 536 192 531 c 0,41,42
 119 167 119 167 133 10 c 1,43,44
 137 -33 137 -33 167.5 -31 c 128,-1,45
 198 -29 198 -29 208 8 c 5,0,1
EndSplineSet
EndUndoOperation
UndoOperation
Index: 55
Type: 1
WasModified: 1
WasOrder2: 1
Layer: 2
Width: 307
VWidth: 1000
LBearingChange: 0
UnicodeEnc: 0
InstructionsLength: 0
SplineSet
209 8 m 5,0,1
 231 82 231 82 254 514 c 1,2,3
 248 545 248 545 274 596 c 0,4,5
 275 598 275 598 275 599 c 0,6,7
 275 626 275 626 289 662 c 0,8,9
 294 674 294 674 294 683 c 0,10,11
 294 684 294 684 295 686 c 128,-1,12
 296 688 296 688 296 689 c 2,13,14
 296 689 296 689 296 690 c 1,15,-1
 296 691 l 1,16,17
 300 705 300 705 291 717 c 128,-1,18
 282 729 282 729 267 730 c 0,19,20
 257 731 257 731 248 727 c 0,21,22
 240 723 240 723 237 721 c 0,23,24
 229 714 229 714 220 707 c 0,25,26
 203 694 203 694 184 669 c 0,27,28
 168 649 168 649 131 602 c 0,29,30
 123 592 123 592 125 578 c 128,-1,31
 127 564 127 564 138 557 c 0,32,33
 149 549 149 549 162 550.5 c 128,-1,34
 175 552 175 552 183 563 c 0,35,36
 199 585 199 585 207 594 c 1,37,38
 204 582 204 582 200.5 567.5 c 128,-1,39
 197 553 197 553 195 544.5 c 128,-1,40
 193 536 193 536 192 531 c 0,41,42
 119 167 119 167 133 10 c 1,43,44
 137 -33 137 -33 168 -31 c 128,-1,45
 199 -29 199 -29 209 8 c 5,0,1
EndSplineSet
EndUndoOperation
UndoOperation
Index: 56
Type: 1
WasModified: 1
WasOrder2: 1
Layer: 2
Width: 307
VWidth: 1000
LBearingChange: 0
UnicodeEnc: 0
InstructionsLength: 0
SplineSet
210 8 m 5,0,1
 231 78 231 78 254 514 c 1,2,3
 248 545 248 545 274 596 c 0,4,5
 275 598 275 598 275 599 c 0,6,7
 275 626 275 626 289 662 c 0,8,9
 294 674 294 674 294 683 c 0,10,11
 294 684 294 684 295 686 c 128,-1,12
 296 688 296 688 296 689 c 2,13,14
 296 689 296 689 296 690 c 1,15,-1
 296 691 l 1,16,17
 300 705 300 705 291 717 c 128,-1,18
 282 729 282 729 267 730 c 0,19,20
 257 731 257 731 248 727 c 0,21,22
 240 723 240 723 237 721 c 0,23,24
 229 714 229 714 220 707 c 0,25,26
 203 694 203 694 184 669 c 0,27,28
 168 649 168 649 131 602 c 0,29,30
 123 592 123 592 125 578 c 128,-1,31
 127 564 127 564 138 557 c 0,32,33
 149 549 149 549 162 550.5 c 128,-1,34
 175 552 175 552 183 563 c 0,35,36
 199 585 199 585 207 594 c 1,37,38
 204 582 204 582 200.5 567.5 c 128,-1,39
 197 553 197 553 195 544.5 c 128,-1,40
 193 536 193 536 192 531 c 0,41,42
 119 167 119 167 133 10 c 1,43,44
 137 -33 137 -33 168.5 -31 c 128,-1,45
 200 -29 200 -29 210 8 c 5,0,1
EndSplineSet
EndUndoOperation
UndoOperation
Index: 57
Type: 1
WasModified: 1
WasOrder2: 1
Layer: 2
Width: 307
VWidth: 1000
LBearingChange: 0
UnicodeEnc: 0
InstructionsLength: 0
SplineSet
211 8 m 5,0,1
 231 74 231 74 254 514 c 1,2,3
 248 545 248 545 274 596 c 0,4,5
 275 598 275 598 275 599 c 0,6,7
 275 626 275 626 289 662 c 0,8,9
 294 674 294 674 294 683 c 0,10,11
 294 684 294 684 295 686 c 128,-1,12
 296 688 296 688 296 689 c 2,13,14
 296 689 296 689 296 690 c 1,15,-1
 296 691 l 1,16,17
 300 705 300 705 291 717 c 128,-1,18
 282 729 282 729 267 730 c 0,19,20
 257 731 257 731 248 727 c 0,21,22
 240 723 240 723 237 721 c 0,23,24
 229 714 229 714 220 707 c 0,25,26
 203 694 203 694 184 669 c 0,27,28
 168 649 168 649 131 602 c 0,29,30
 123 592 123 592 125 578 c 128,-1,31
 127 564 127 564 138 557 c 0,32,33
 149 549 149 549 162 550.5 c 128,-1,34
 175 552 175 552 183 563 c 0,35,36
 199 585 199 585 207 594 c 1,37,38
 204 582 204 582 200.5 567.5 c 128,-1,39
 197 553 197 553 195 544.5 c 128,-1,40
 193 536 193 536 192 531 c 0,41,42
 119 167 119 167 133 10 c 1,43,44
 137 -33 137 -33 169 -31 c 128,-1,46
 201 -29 201 -29 211 8 c 5,0,1
EndSplineSet
EndUndoOperation
UndoOperation
Index: 58
Type: 1
WasModified: 1
WasOrder2: 1
Layer: 2
Width: 307
VWidth: 1000
LBearingChange: 0
UnicodeEnc: 0
InstructionsLength: 0
SplineSet
212 8 m 5,0,1
 231 70 231 70 254 514 c 1,2,3
 248 545 248 545 274 596 c 0,4,5
 275 598 275 598 275 599 c 0,6,7
 275 626 275 626 289 662 c 0,8,9
 294 674 294 674 294 683 c 0,10,11
 294 684 294 684 295 686 c 128,-1,12
 296 688 296 688 296 689 c 2,13,14
 296 689 296 689 296 690 c 1,15,-1
 296 691 l 1,16,17
 300 705 300 705 291 717 c 128,-1,18
 282 729 282 729 267 730 c 0,19,20
 257 731 257 731 248 727 c 0,21,22
 240 723 240 723 237 721 c 0,23,24
 229 714 229 714 220 707 c 0,25,26
 203 694 203 694 184 669 c 0,27,28
 168 649 168 649 131 602 c 0,29,30
 123 592 123 592 125 578 c 128,-1,31
 127 564 127 564 138 557 c 0,32,33
 149 549 149 549 162 550.5 c 128,-1,34
 175 552 175 552 183 563 c 0,35,36
 199 585 199 585 207 594 c 1,37,38
 204 582 204 582 200.5 567.5 c 128,-1,39
 197 553 197 553 195 544.5 c 128,-1,40
 193 536 193 536 192 531 c 0,41,42
 119 167 119 167 133 10 c 1,43,44
 137 -33 137 -33 169 -31 c 0,45,46
 202 -29 202 -29 212 8 c 5,0,1
EndSplineSet
EndUndoOperation
UndoOperation
Index: 59
Type: 1
WasModified: 1
WasOrder2: 1
Layer: 2
Width: 307
VWidth: 1000
LBearingChange: 0
UnicodeEnc: 0
InstructionsLength: 0
SplineSet
209 8 m 1,0,1
 231 82 231 82 254 514 c 1,2,3
 248 545 248 545 274 596 c 0,4,5
 275 598 275 598 275 599 c 0,6,7
 275 626 275 626 289 662 c 0,8,9
 294 674 294 674 294 683 c 0,10,11
 294 684 294 684 295 686 c 128,-1,12
 296 688 296 688 296 689 c 2,13,14
 296 689 296 689 296 690 c 1,15,-1
 296 691 l 1,16,17
 300 705 300 705 291 717 c 128,-1,18
 282 729 282 729 267 730 c 0,19,20
 257 731 257 731 248 727 c 0,21,22
 240 723 240 723 237 721 c 0,23,24
 229 714 229 714 220 707 c 0,25,26
 203 694 203 694 184 669 c 0,27,28
 168 649 168 649 131 602 c 0,29,30
 123 592 123 592 125 578 c 128,-1,31
 127 564 127 564 138 557 c 0,32,33
 149 549 149 549 162 550.5 c 128,-1,34
 175 552 175 552 183 563 c 0,35,36
 199 585 199 585 207 594 c 1,37,38
 204 582 204 582 200.5 567.5 c 128,-1,39
 197 553 197 553 195 544.5 c 128,-1,40
 193 536 193 536 192 531 c 0,41,42
 119 167 119 167 133 10 c 1,43,44
 137 -36 137 -36 169 -31 c 0,45,46
 185 -29 185 -29 199.525921845 18.7820111651 c 1029,47,48
EndSplineSet
EndUndoOperation
UndoOperation
Index: 60
Type: 1
WasModified: 1
WasOrder2: 1
Layer: 2
Width: 307
VWidth: 1000
LBearingChange: 0
UnicodeEnc: 0
InstructionsLength: 0
SplineSet
199.525921845 18.7820111651 m 5,48,49
 234 134 234 134 254 514 c 1,46,47
 261 540 261 540 274 596 c 0,44,45
 275 598 275 598 275 599 c 0,42,43
 275 626 275 626 289 662 c 0,40,41
 296 679 296 679 294 683 c 0,38,39
 294 684 294 684 295 686 c 128,-1,37
 296 688 296 688 296 689 c 2,35,36
 296 689 296 689 296 690 c 1,34,-1
 296 691 l 1,33,-1
 300 705 300 705 291 717 c 128,-1,32
 282 729 282 729 267 730 c 0,30,31
 257 731 257 731 248 727 c 0,28,29
 240 723 240 723 237 721 c 0,26,27
 228 715 228 715 220 707 c 0,24,25
 216 704 216 704 184 669 c 0,22,23
 167 650 167 650 131 602 c 0,20,21
 123 592 123 592 125 578 c 128,-1,19
 127 564 127 564 138 557 c 0,17,18
 149 549 149 549 162 550.5 c 128,-1,16
 175 552 175 552 183 563 c 0,14,15
 199 585 199 585 207 594 c 1,12,13
 204 582 204 582 200.5 567.5 c 128,-1,11
 197 553 197 553 195 544.5 c 128,-1,10
 193 536 193 536 192 531 c 0,8,9
 119.192297533 166.961487667 119.192297533 166.961487667 133 10 c 1,6,7
 137 -36 137 -36 169 -31 c 0,2,3
 185 -29 185 -29 199.525921845 18.7820111651 c 1025,0,1
EndSplineSet
EndUndoOperation
UndoOperation
Index: 61
Type: 1
WasModified: 1
WasOrder2: 1
Layer: 2
Width: 307
VWidth: 1000
LBearingChange: 0
UnicodeEnc: 0
InstructionsLength: 0
SplineSet
199.525921845 18.7820111651 m 1,0,1
 185 -29 185 -29 169 -31 c 0,2,3
 137 -36 137 -36 133 10 c 1025,4,5
139.260792093 27.3913154153 m 5,6,7
 128.583735307 150.30387879 128.583735307 150.30387879 192 531 c 0,8,9
 193 536 193 536 195 544.5 c 128,-1,10
 197 553 197 553 200.5 567.5 c 128,-1,11
 204 582 204 582 207 594 c 1,12,13
 199 585 199 585 183 563 c 0,14,15
 175 552 175 552 162 550.5 c 128,-1,16
 149 549 149 549 138 557 c 0,17,18
 127 564 127 564 125 578 c 128,-1,19
 123 592 123 592 131 602 c 0,20,21
 167 650 167 650 184 669 c 0,22,23
 216 704 216 704 220 707 c 0,24,25
 228 715 228 715 237 721 c 0,26,27
 240 723 240 723 248 727 c 0,28,29
 257 731 257 731 267 730 c 0,30,31
 282 729 282 729 291 717 c 128,-1,32
 300 705 300 705 296 691 c 1,33,-1
 296 690 l 1,34,-1
 296 689 l 2,35,36
 296 688 296 688 295 686 c 128,-1,37
 294 684 294 684 294 683 c 0,38,39
 296 679 296 679 289 662 c 0,40,41
 275 626 275 626 275 599 c 0,42,43
 275 598 275 598 274 596 c 0,44,45
 261 540 261 540 254 514 c 1,46,47
 233.505396579 133.789771009 233.505396579 133.789771009 199.525921845 18.7820111651 c 1025,48,49
EndSplineSet
EndUndoOperation
UndoOperation
Index: 62
Type: 1
WasModified: 1
WasOrder2: 1
Layer: 2
Width: 307
VWidth: 1000
LBearingChange: 0
UnicodeEnc: 0
InstructionsLength: 0
SplineSet
199.525921845 18.7820111651 m 1,0,1
 185.424214083 -28.9469732397 185.424214083 -28.9469732397 169 -31 c 0,2,3
 144.659332862 -34.7558190992 144.659332862 -34.7558190992 139.260792093 27.3913154153 c 1029,4,5
139.260792093 27.3913154153 m 1,6,7
 128.583735307 150.30387879 128.583735307 150.30387879 192 531 c 0,8,9
 193 536 193 536 195 544.5 c 128,-1,10
 197 553 197 553 200.5 567.5 c 128,-1,11
 204 582 204 582 207 594 c 1,12,13
 199 585 199 585 183 563 c 0,14,15
 175 552 175 552 162 550.5 c 128,-1,16
 149 549 149 549 138 557 c 0,17,18
 127 564 127 564 125 578 c 128,-1,19
 123 592 123 592 131 602 c 0,20,21
 167 650 167 650 184 669 c 0,22,23
 216 704 216 704 220 707 c 0,24,25
 228 715 228 715 237 721 c 0,26,27
 240 723 240 723 248 727 c 0,28,29
 257 731 257 731 267 730 c 0,30,31
 282 729 282 729 291 717 c 128,-1,32
 300 705 300 705 296 691 c 1,33,-1
 296 690 l 1,34,-1
 296 689 l 2,35,36
 296 688 296 688 295 686 c 128,-1,37
 294 684 294 684 294 683 c 0,38,39
 296 679 296 679 289 662 c 0,40,41
 275 626 275 626 275 599 c 0,42,43
 275 598 275 598 274 596 c 0,44,45
 261 540 261 540 254 514 c 1,46,47
 233.505396579 133.789771009 233.505396579 133.789771009 199.525921845 18.7820111651 c 1025,48,49
EndSplineSet
EndUndoOperation
UndoOperation
Index: 63
Type: 1
WasModified: 1
WasOrder2: 1
Layer: 2
Width: 307
VWidth: 1000
LBearingChange: 0
UnicodeEnc: 0
InstructionsLength: 0
SplineSet
131 602 m 0,0,1
 167 650 167 650 184 669 c 0,2,3
 216 704 216 704 220 707 c 0,4,5
 228 715 228 715 237 721 c 0,6,7
 240 723 240 723 248 727 c 0,8,9
 257 731 257 731 267 730 c 0,10,11
 282 729 282 729 291 717 c 128,-1,12
 300 705 300 705 296 691 c 1,13,-1
 296 690 l 1,14,-1
 296 689 l 2,15,16
 296 688 296 688 295 686 c 128,-1,17
 294 684 294 684 294 683 c 0,18,19
 296 679 296 679 289 662 c 0,20,21
 275 626 275 626 275 599 c 0,22,23
 275 598 275 598 274 596 c 0,24,25
 261 540 261 540 254 514 c 1,26,27
 225 -24 225 -24 169 -31 c 0,28,29
 96.5191600989 -42.183954872 96.5191600989 -42.183954872 192 531 c 0,30,31
 193 536 193 536 195 544.5 c 128,-1,32
 197 553 197 553 200.5 567.5 c 128,-1,33
 204 582 204 582 207 594 c 1,34,35
 199 585 199 585 183 563 c 0,36,37
 175 552 175 552 162 550.5 c 128,-1,38
 149 549 149 549 138 557 c 0,39,40
 127 564 127 564 125 578 c 128,-1,41
 123 592 123 592 131 602 c 0,0,1
EndSplineSet
EndUndoOperation
UndoOperation
Index: 64
Type: 1
WasModified: 1
WasOrder2: 1
Layer: 2
Width: 307
VWidth: 1000
LBearingChange: 0
UnicodeEnc: 0
InstructionsLength: 0
SplineSet
131 602 m 0,0,1
 167 650 167 650 184 669 c 0,2,3
 216 704 216 704 220 707 c 0,4,5
 228 715 228 715 237 721 c 0,6,7
 240 723 240 723 248 727 c 0,8,9
 257 731 257 731 267 730 c 0,10,11
 282 729 282 729 291 717 c 128,-1,12
 300 705 300 705 296 691 c 1,13,-1
 296 690 l 1,14,-1
 296 689 l 2,15,16
 296 688 296 688 295 686 c 128,-1,17
 294 684 294 684 294 683 c 0,18,19
 296 679 296 679 289 662 c 0,20,21
 275 626 275 626 275 599 c 0,22,23
 275 598 275 598 274 596 c 0,24,25
 261 540 261 540 254 514 c 5,26,27
 169 -31 169 -31 169 -31 c 0,28,29
 98 -57 98 -57 192 531 c 0,30,31
 193 536 193 536 195 544.5 c 128,-1,32
 197 553 197 553 200.5 567.5 c 128,-1,33
 204 582 204 582 207 594 c 1,34,35
 199 585 199 585 183 563 c 0,36,37
 175 552 175 552 162 550.5 c 128,-1,38
 149 549 149 549 138 557 c 0,39,40
 127 564 127 564 125 578 c 128,-1,41
 123 592 123 592 131 602 c 0,0,1
EndSplineSet
EndUndoOperation
UndoOperation
Index: 65
Type: 1
WasModified: 1
WasOrder2: 1
Layer: 2
Width: 307
VWidth: 1000
LBearingChange: 0
UnicodeEnc: 0
InstructionsLength: 0
SplineSet
131 602 m 0,0,1
 167 650 167 650 184 669 c 0,2,3
 216 704 216 704 220 707 c 0,4,5
 228 715 228 715 237 721 c 0,6,7
 240 723 240 723 248 727 c 0,8,9
 257 731 257 731 267 730 c 0,10,11
 282 729 282 729 291 717 c 128,-1,12
 300 705 300 705 296 691 c 1,13,-1
 296 690 l 1,14,-1
 296 689 l 2,15,16
 296 688 296 688 295 686 c 128,-1,17
 294 684 294 684 294 683 c 0,18,19
 296 679 296 679 289 662 c 0,20,21
 275 626 275 626 275 599 c 0,22,23
 275 598 275 598 274 596 c 0,24,25
 261 540 261 540 254 514 c 1,26,27
 169 -31 169 -31 169 -31 c 4,28,29
 114 142 114 142 192 531 c 4,30,31
 193 536 193 536 195 544.5 c 128,-1,32
 197 553 197 553 200.5 567.5 c 128,-1,33
 204 582 204 582 207 594 c 1,34,35
 199 585 199 585 183 563 c 0,36,37
 175 552 175 552 162 550.5 c 128,-1,38
 149 549 149 549 138 557 c 0,39,40
 127 564 127 564 125 578 c 128,-1,41
 123 592 123 592 131 602 c 0,0,1
EndSplineSet
EndUndoOperation
UndoOperation
Index: 66
Type: 1
WasModified: 1
WasOrder2: 1
Layer: 2
Width: 307
VWidth: 1000
LBearingChange: 0
UnicodeEnc: 0
InstructionsLength: 0
SplineSet
131 602 m 0,0,1
 167 650 167 650 184 669 c 0,2,3
 216 704 216 704 220 707 c 0,4,5
 228 715 228 715 237 721 c 0,6,7
 240 723 240 723 248 727 c 0,8,9
 257 731 257 731 267 730 c 0,10,11
 282 729 282 729 291 717 c 128,-1,12
 300 705 300 705 296 691 c 1,13,-1
 296 690 l 1,14,-1
 296 689 l 2,15,16
 296 688 296 688 295 686 c 128,-1,17
 294 684 294 684 294 683 c 0,18,19
 296 679 296 679 289 662 c 0,20,21
 275 626 275 626 275 599 c 0,22,23
 275 598 275 598 274 596 c 0,24,25
 261 540 261 540 254 514 c 1,26,27
 169 -31 169 -31 169 -31 c 4,28,29
 114 142 114 142 192 531 c 4,30,31
 193 536 193 536 195 544.5 c 128,-1,32
 197 553 197 553 200.5 567.5 c 128,-1,33
 204 582 204 582 207 594 c 1,34,35
 199 585 199 585 183 563 c 0,36,37
 175 552 175 552 162 550.5 c 128,-1,38
 149 549 149 549 138 557 c 0,39,40
 127 564 127 564 125 578 c 128,-1,41
 123 592 123 592 131 602 c 0,0,1
EndSplineSet
EndUndoOperation
UndoOperation
Index: 67
Type: 1
WasModified: 1
WasOrder2: 1
Layer: 2
Width: 307
VWidth: 1000
LBearingChange: 0
UnicodeEnc: 0
InstructionsLength: 0
SplineSet
131 602 m 0,0,1
 154 633 154 633 184 669 c 0,2,3
 216 704 216 704 220 707 c 0,4,5
 222 709 222 709 237 721 c 0,6,7
 240 723 240 723 248 727 c 0,8,9
 257 731 257 731 267 730 c 0,10,11
 282 729 282 729 291 717 c 128,-1,12
 300 705 300 705 296 691 c 1,13,-1
 296 690 l 1,14,-1
 296 689 l 2,15,16
 296 688 296 688 295 686 c 128,-1,17
 294 684 294 684 294 683 c 0,18,19
 294 680 294 680 289 662 c 0,20,21
 283 633 283 633 275 599 c 0,22,23
 275 598 275 598 274 596 c 0,24,25
 261 540 261 540 254 514 c 1,26,27
 280 -6 280 -6 234 -26 c 4,28,29
 29.60551341 -109.276010061 29.60551341 -109.276010061 192 531 c 0,30,31
 193 536 193 536 195 544.5 c 128,-1,32
 197 553 197 553 200.5 567.5 c 128,-1,33
 204 582 204 582 207 594 c 1,34,35
 199 585 199 585 183 563 c 0,36,37
 175 552 175 552 162 550.5 c 128,-1,38
 149 549 149 549 138 557 c 0,39,40
 127 564 127 564 125 578 c 128,-1,41
 123 592 123 592 131 602 c 0,0,1
EndSplineSet
EndUndoOperation
UndoOperation
Index: 68
Type: 1
WasModified: 1
WasOrder2: 1
Layer: 2
Width: 307
VWidth: 1000
LBearingChange: 0
UnicodeEnc: 0
InstructionsLength: 0
SplineSet
131 602 m 0,0,1
 154 633 154 633 184 669 c 0,2,3
 216 704 216 704 220 707 c 0,4,5
 222 709 222 709 237 721 c 0,6,7
 240 723 240 723 248 727 c 0,8,9
 257 731 257 731 267 730 c 0,10,11
 282 729 282 729 291 717 c 128,-1,12
 300 705 300 705 296 691 c 1,13,-1
 296 690 l 1,14,-1
 296 689 l 2,15,16
 296 688 296 688 295 686 c 128,-1,17
 294 684 294 684 294 683 c 0,18,19
 294 680 294 680 289 662 c 0,20,21
 283 633 283 633 275 599 c 0,22,23
 275 598 275 598 274 596 c 0,24,25
 261 540 261 540 254 514 c 5,26,27
 254 -1.28394896104 254 -1.28394896104 234 -26 c 4,28,29
 20 -80 20 -80 192 531 c 0,30,31
 193 536 193 536 195 544.5 c 128,-1,32
 197 553 197 553 200.5 567.5 c 128,-1,33
 204 582 204 582 207 594 c 1,34,35
 199 585 199 585 183 563 c 0,36,37
 175 552 175 552 162 550.5 c 128,-1,38
 149 549 149 549 138 557 c 0,39,40
 127 564 127 564 125 578 c 128,-1,41
 123 592 123 592 131 602 c 0,0,1
EndSplineSet
EndUndoOperation
UndoOperation
Index: 69
Type: 1
WasModified: 1
WasOrder2: 1
Layer: 2
Width: 307
VWidth: 1000
LBearingChange: 0
UnicodeEnc: 0
InstructionsLength: 0
SplineSet
131 602 m 0,0,1
 154 633 154 633 184 669 c 0,2,3
 216 704 216 704 220 707 c 0,4,5
 222 709 222 709 237 721 c 0,6,7
 240 723 240 723 248 727 c 0,8,9
 257 731 257 731 267 730 c 0,10,11
 282 729 282 729 291 717 c 128,-1,12
 300 705 300 705 296 691 c 1,13,-1
 296 690 l 1,14,-1
 296 689 l 2,15,16
 296 688 296 688 295 686 c 128,-1,17
 294 684 294 684 294 683 c 0,18,19
 294 680 294 680 289 662 c 0,20,21
 283 633 283 633 275 599 c 0,22,23
 275 598 275 598 274 596 c 0,24,25
 261 540 261 540 254 514 c 1,26,27
 254 514 254 514 234 -26 c 5,28,29
 20 -80 20 -80 192 531 c 0,30,31
 193 536 193 536 195 544.5 c 128,-1,32
 197 553 197 553 200.5 567.5 c 128,-1,33
 204 582 204 582 207 594 c 1,34,35
 199 585 199 585 183 563 c 0,36,37
 175 552 175 552 162 550.5 c 128,-1,38
 149 549 149 549 138 557 c 0,39,40
 127 564 127 564 125 578 c 128,-1,41
 123 592 123 592 131 602 c 0,0,1
EndSplineSet
EndUndoOperation
UndoOperation
Index: 70
Type: 1
WasModified: 1
WasOrder2: 1
Layer: 2
Width: 307
VWidth: 1000
LBearingChange: 0
UnicodeEnc: 0
InstructionsLength: 0
SplineSet
131 602 m 0,0,1
 154 633 154 633 184 669 c 0,2,3
 216 704 216 704 220 707 c 0,4,5
 222 709 222 709 237 721 c 0,6,7
 240 723 240 723 248 727 c 0,8,9
 257 731 257 731 267 730 c 0,10,11
 282 729 282 729 291 717 c 128,-1,12
 300 705 300 705 296 691 c 1,13,-1
 296 690 l 1,14,-1
 296 689 l 2,15,16
 296 688 296 688 295 686 c 128,-1,17
 294 684 294 684 294 683 c 0,18,19
 294 680 294 680 289 662 c 0,20,21
 283 633 283 633 275 599 c 0,22,23
 275 598 275 598 274 596 c 0,24,25
 261 540 261 540 254 514 c 0,26,27
 198 308 198 308 198 31 c 5,28,29
 201 32 201 32 206.5 33.5 c 132,-1,30
 212 35 212 35 215 36 c 4,31,32
 228 40 228 40 239.5 34 c 132,-1,33
 251 28 251 28 255 15 c 132,-1,34
 259 2 259 2 253 -10 c 4,35,36
 246.353312303 -23.2933753943 246.353312303 -23.2933753943 234 -26 c 0,37,38
 20 -80 20 -80 192 531 c 0,39,40
 193 536 193 536 195 544.5 c 128,-1,41
 197 553 197 553 200.5 567.5 c 128,-1,42
 204 582 204 582 207 594 c 1,43,44
 199 585 199 585 183 563 c 0,45,46
 175 552 175 552 162 550.5 c 128,-1,47
 149 549 149 549 138 557 c 0,48,49
 127 564 127 564 125 578 c 128,-1,50
 123 592 123 592 131 602 c 0,0,1
EndSplineSet
EndUndoOperation
UndoOperation
Index: 71
Type: 1
WasModified: 1
WasOrder2: 1
Layer: 2
Width: 307
VWidth: 1000
LBearingChange: 0
UnicodeEnc: 0
InstructionsLength: 0
SplineSet
131 602 m 0,0,1
 154 633 154 633 184 669 c 0,2,3
 216 704 216 704 220 707 c 0,4,5
 222 709 222 709 237 721 c 0,6,7
 240 723 240 723 248 727 c 0,8,9
 257 731 257 731 267 730 c 0,10,11
 282 729 282 729 291 717 c 128,-1,12
 300 705 300 705 296 691 c 1,13,-1
 296 690 l 1,14,-1
 296 689 l 2,15,16
 296 688 296 688 295 686 c 128,-1,17
 294 684 294 684 294 683 c 0,18,19
 294 680 294 680 289 662 c 0,20,21
 283 633 283 633 275 599 c 0,22,23
 275 598 275 598 274 596 c 0,24,25
 261 540 261 540 254 514 c 0,26,27
 198 308 198 308 198 31 c 1,28,29
 201 32 201 32 206.5 33.5 c 128,-1,30
 212 35 212 35 215 36 c 0,31,32
 228 40 228 40 239.5 34 c 128,-1,33
 251 28 251 28 255 15 c 128,-1,34
 259 2 259 2 253 -10 c 128,-1,35
 247 -22 247 -22 234 -26 c 4,36,37
 19.7394200627 -108.407915361 19.7394200627 -108.407915361 192 531 c 4,38,39
 193 536 193 536 195 544.5 c 128,-1,40
 197 553 197 553 200.5 567.5 c 128,-1,41
 204 582 204 582 207 594 c 1,42,43
 199 585 199 585 183 563 c 0,44,45
 175 552 175 552 162 550.5 c 128,-1,46
 149 549 149 549 138 557 c 0,47,48
 127 564 127 564 125 578 c 128,-1,49
 123 592 123 592 131 602 c 0,0,1
EndSplineSet
EndUndoOperation
UndoOperation
Index: 72
Type: 1
WasModified: 1
WasOrder2: 1
Layer: 2
Width: 307
VWidth: 1000
LBearingChange: 0
UnicodeEnc: 0
InstructionsLength: 0
SplineSet
131 602 m 0,0,1
 154 633 154 633 184 669 c 0,2,3
 216 704 216 704 220 707 c 0,4,5
 222 709 222 709 237 721 c 0,6,7
 240 723 240 723 248 727 c 0,8,9
 257 731 257 731 267 730 c 0,10,11
 282 729 282 729 291 717 c 128,-1,12
 300 705 300 705 296 691 c 1,13,-1
 296 690 l 1,14,-1
 296 689 l 2,15,16
 296 688 296 688 295 686 c 128,-1,17
 294 684 294 684 294 683 c 0,18,19
 294 680 294 680 289 662 c 0,20,21
 283 633 283 633 275 599 c 0,22,23
 275 598 275 598 274 596 c 0,24,25
 261 540 261 540 254 514 c 0,26,27
 198 308 198 308 198 31 c 1,28,29
 201 32 201 32 206.5 33.5 c 128,-1,30
 212 35 212 35 215 36 c 0,31,32
 228 40 228 40 239.5 34 c 128,-1,33
 251 28 251 28 255 15 c 128,-1,34
 259 2 259 2 253 -10 c 128,-1,35
 247 -22 247 -22 234 -26 c 0,36,37
 221 -31 221 -31 197 -36 c 4,38,39
 194 -36 194 -36 193 -37 c 4,40,41
 -341.176470588 -155.705882353 -341.176470588 -155.705882353 134 14 c 4,42,43
 133 17 133 17 133 24 c 4,44,45
 133 312 133 312 192 531 c 0,46,47
 193 536 193 536 195 544.5 c 128,-1,48
 197 553 197 553 200.5 567.5 c 128,-1,49
 204 582 204 582 207 594 c 1,50,51
 199 585 199 585 183 563 c 0,52,53
 175 552 175 552 162 550.5 c 128,-1,54
 149 549 149 549 138 557 c 0,55,56
 127 564 127 564 125 578 c 128,-1,57
 123 592 123 592 131 602 c 0,0,1
EndSplineSet
EndUndoOperation
UndoOperation
Index: 73
Type: 1
WasModified: 0
WasOrder2: 1
Layer: 2
Width: 307
VWidth: 1000
LBearingChange: 0
UnicodeEnc: 0
InstructionsLength: 0
SplineSet
131 602 m 0,0,1
 154 633 154 633 184 669 c 0,2,3
 216 704 216 704 220 707 c 0,4,5
 222 709 222 709 237 721 c 0,6,7
 240 723 240 723 248 727 c 0,8,9
 257 731 257 731 267 730 c 0,10,11
 282 729 282 729 291 717 c 128,-1,12
 300 705 300 705 296 691 c 1,13,-1
 296 690 l 1,14,-1
 296 689 l 2,15,16
 296 688 296 688 295 686 c 128,-1,17
 294 684 294 684 294 683 c 0,18,19
 294 680 294 680 289 662 c 0,20,21
 283 633 283 633 275 599 c 0,22,23
 275 598 275 598 274 596 c 0,24,25
 261 540 261 540 254 514 c 0,26,27
 198 308 198 308 198 31 c 1,28,29
 201 32 201 32 206.5 33.5 c 128,-1,30
 212 35 212 35 215 36 c 0,31,32
 228 40 228 40 239.5 34 c 128,-1,33
 251 28 251 28 255 15 c 128,-1,34
 259 2 259 2 253 -10 c 128,-1,35
 247 -22 247 -22 234 -26 c 0,36,37
 221 -31 221 -31 197 -36 c 0,38,39
 194 -36 194 -36 193 -37 c 0,40,41
 157 -45 157 -45 120 -66 c 4,42,43
 108 -73 108 -73 95 -69.5 c 132,-1,44
 82 -66 82 -66 75 -55 c 4,45,46
 68 -43 68 -43 71.5 -30 c 132,-1,47
 75 -17 75 -17 87 -10 c 4,48,49
 120 9 120 9 134 14 c 0,50,51
 133 17 133 17 133 24 c 0,52,53
 133 312 133 312 192 531 c 0,54,55
 193 536 193 536 195 544.5 c 128,-1,56
 197 553 197 553 200.5 567.5 c 128,-1,57
 204 582 204 582 207 594 c 1,58,59
 199 585 199 585 183 563 c 0,60,61
 175 552 175 552 162 550.5 c 128,-1,62
 149 549 149 549 138 557 c 0,63,64
 127 564 127 564 125 578 c 128,-1,65
 123 592 123 592 131 602 c 0,0,1
EndSplineSet
EndUndoOperation
EndUndoes
Redoes
EndRedoes
EndUndoRedoHistory
Fore
SplineSet
182.004882812 618.513671875 m 4,0,1
 185.504882812 631.033203125 185.504882812 631.033203125 184.95703125 635.5 c 132,-1,2
 184.408203125 639.965820312 184.408203125 639.965820312 186.045898438 651.25 c 132,-1,3
 187.682617188 662.533203125 187.682617188 662.533203125 177.287109375 673.34765625 c 4,4,5
 150.680664062 701.313476562 150.680664062 701.313476562 123.202148438 670.736328125 c 4,6,7
 116.115234375 662.813476562 116.115234375 662.813476562 110.708007812 657.616210938 c 132,-1,8
 105.301757812 652.41796875 105.301757812 652.41796875 88.505859375 629.198242188 c 132,-1,9
 71.7109375 605.978515625 71.7109375 605.978515625 49.908203125 561.994140625 c 4,10,11
 43.4306640625 549.108398438 43.4306640625 549.108398438 47 536.44921875 c 132,-1,12
 50.5693359375 523.7890625 50.5693359375 523.7890625 62.3408203125 518.182617188 c 4,13,14
 86.248046875 503.990234375 86.248046875 503.990234375 106.2734375 529.62109375 c 4,15,16
 111.498046875 536.307617188 111.498046875 536.307617188 108.903320312 541.02734375 c 5,17,18
 103.052734375 531.241210938 103.052734375 531.241210938 103.973632812 441.685546875 c 4,19,20
 104.125 227.104492188 104.125 227.104492188 105.26953125 12.6455078125 c 5,21,22
 114.48046875 -29.5458984375 114.48046875 -29.5458984375 137.065429688 -24.7578125 c 132,-1,23
 159.650390625 -19.9697265625 159.650390625 -19.9697265625 165.06640625 17.97265625 c 5,24,25
 178.4453125 294.666015625 178.4453125 294.666015625 171.8671875 463.120117188 c 5,26,27
 170.754882812 578.846679688 170.754882812 578.846679688 182.004882812 618.513671875 c 4,0,1
EndSplineSet
EndChar

StartChar: two
Encoding: 50 50 21
AltUni2: 00ff12.ffffffff.0 002082.ffffffff.0 0000b2.ffffffff.0 00ff12.ffffffff.0 002082.ffffffff.0 0000b2.ffffffff.0
Width: 480
GlyphClass: 1
Flags: W
LayerCount: 2
UndoRedoHistory
Layer: 0
Undoes
UndoOperation
Index: 0
Type: 1
WasModified: 1
WasOrder2: 1
Layer: 2
Width: 480
VWidth: 1000
LBearingChange: 0
UnicodeEnc: 0
InstructionsLength: 0
EndUndoOperation
UndoOperation
Index: 1
Type: 1
WasModified: 1
WasOrder2: 1
Layer: 2
Width: 480
VWidth: 1000
LBearingChange: 0
UnicodeEnc: 0
InstructionsLength: 0
EndUndoOperation
UndoOperation
Index: 2
Type: 1
WasModified: 1
WasOrder2: 1
Layer: 2
Width: 480
VWidth: 1000
LBearingChange: 0
UnicodeEnc: 0
InstructionsLength: 0
EndUndoOperation
UndoOperation
Index: 3
Type: 1
WasModified: 0
WasOrder2: 1
Layer: 2
Width: 480
VWidth: 1000
LBearingChange: 0
UnicodeEnc: 0
InstructionsLength: 0
EndUndoOperation
EndUndoes
Redoes
EndRedoes
EndUndoRedoHistory
UndoRedoHistory
Layer: 1
Undoes
UndoOperation
Index: 0
Type: 3
WasModified: 1
WasOrder2: 1
Layer: 2
EndUndoOperation
UndoOperation
Index: 1
Type: 3
WasModified: 1
WasOrder2: 1
Layer: 2
EndUndoOperation
UndoOperation
Index: 2
Type: 3
WasModified: 1
WasOrder2: 1
Layer: 2
EndUndoOperation
UndoOperation
Index: 3
Type: 3
WasModified: 0
WasOrder2: 1
Layer: 2
EndUndoOperation
UndoOperation
Index: 4
Type: 1
WasModified: 1
WasOrder2: 1
Layer: 2
Width: 480
VWidth: 1000
LBearingChange: 0
UnicodeEnc: 0
InstructionsLength: 0
SplineSet
30.1471363812 525.035400971 m 4,0,1
 38 590 38 590 97.4031020144 641.787319705 c 4,2,3
 155 692 155 692 228.998612821 701.999812543 c 132,-1,4
 303 712 303 712 356.312520818 677.825307168 c 4,5,6
 420 637 420 637 422.157076197 549.997926727 c 4,7,8
 423 516 423 516 415.617797554 484.256529481 c 4,9,10
 403 430 403 430 361.164034631 359.291326136 c 4,11,12
 332 310 332 310 255.063005305 206.853699419 c 4,13,14
 241 188 241 188 235.262154891 180.055291388 c 4,15,16
 202 134 202 134 186 106 c 5,17,-1
 186 105 l 6,18,19
 186 104 186 104 185 104 c 6,20,-1
 184 102 l 6,21,22
 183 100 183 100 181 97 c 132,-1,23
 179 94 179 94 176.100505063 88.2010101268 c 4,24,25
 172 80 172 80 165.92216066 68.3508079319 c 4,26,27
 160 57 160 57 158.204703974 54.0078399572 c 4,28,29
 157 52 157 52 156.373935661 50.7478713212 c 4,30,31
 156 50 156 50 154 47 c 4,32,33
 154 47 154 47 154 47 c 4,34,35
 152 44 152 44 152 43 c 5,36,37
 153 43 153 43 154.854101966 43.3090169944 c 4,38,39
 159 44 159 44 174.961102355 50.7527740733 c 4,40,41
 185 55 185 55 185.968719167 55.4471011542 c 4,42,43
 198 61 198 61 206.552137244 65.0245351735 c 132,-1,44
 215 69 215 69 218.307738515 70.6538692575 c 4,45,46
 223 73 223 73 229.05009809 75.4200392359 c 4,47,48
 233 77 233 77 241.607768419 81.3038842096 c 4,49,50
 269 95 269 95 299.222137871 105.848972569 c 4,51,52
 347 123 347 123 376.453934452 123.68497522 c 4,53,54
 390 124 390 124 398.221920248 120.574199897 c 4,55,56
 402 119 402 119 406.535449123 116.52611866 c 4,57,58
 413 113 413 113 427 104 c 5,59,-1
 427 103 l 5,60,-1
 428 103 l 5,61,-1
 429 103 l 6,62,63
 442 106 442 106 453.432084246 99.0413400245 c 132,-1,64
 465 92 465 92 468.788818599 74.5714344456 c 4,65,66
 470 69 470 69 469.303661699 62.0366169923 c 4,67,68
 468 49 468 49 460.163898769 40.2932208544 c 4,69,70
 450 29 450 29 433 29 c 6,71,-1
 418 32 l 6,72,73
 408 37 408 37 389 50 c 5,74,-1
 389 51 l 5,75,-1
 377 59 l 5,76,77
 352 56 352 56 327.79163003 47.3925795663 c 4,78,79
 307 40 307 40 275.991089654 26.0776320895 c 4,80,81
 258 18 258 18 242 10 c 6,82,-1
 222 0 l 6,83,84
 201 -10 201 -10 183.642236558 -15.7032651308 c 4,85,86
 131 -33 131 -33 98.0807598573 -21.8074583515 c 4,87,88
 81 -16 81 -16 75.2084157064 -5.70385014467 c 4,89,90
 72 0 72 0 71.4904886623 7.13315872757 c 4,91,92
 71 14 71 14 72.2829578441 20.842441835 c 4,93,94
 74 30 74 30 77.9733611359 39.2711759837 c 4,95,96
 80 44 80 44 83.9907586689 51.4826725042 c 132,-1,97
 88 59 88 59 91.1679030452 65.7883636682 c 4,98,99
 95 74 95 74 98.7465608885 79.9944974216 c 4,100,101
 100 82 100 82 101.03012352 84.5753088004 c 132,-1,102
 102 87 102 87 102.132704435 87.3981133063 c 4,103,104
 103 90 103 90 118.594536942 117.644860943 c 4,105,106
 125 129 125 129 127.578614052 133.512574591 c 4,107,108
 129 136 129 136 129 137 c 6,109,-1
 130 138 l 5,110,-1
 130 139 l 5,111,112
 145 165 145 165 177 210 c 6,113,-1
 231 283 l 6,114,115
 279 347 279 347 305.693946839 392.379709626 c 4,116,117
 339 449 339 449 351.091017075 499.273176261 c 4,118,119
 358 528 358 528 357.681400565 550.620559863 c 4,120,121
 357 599 357 599 322.120705095 622.594817141 c 4,122,123
 289 645 289 645 236.268414357 637.040515375 c 4,124,125
 183 629 183 629 143.507777185 595.149523301 c 4,126,127
 99 557 99 557 94.2546585432 512.258209122 c 4,128,129
 92 491 92 491 80.5140599502 481.701858055 c 4,130,131
 71 474 71 474 57.1125556796 475.983920617 c 4,132,133
 43 478 43 478 36.1968541587 486.929128917 c 4,134,135
 27 499 27 499 30.1471363812 525.035400971 c 4,0,1
EndSplineSet
EndUndoOperation
UndoOperation
Index: 5
Type: 3
WasModified: 1
WasOrder2: 1
Layer: 2
EndUndoOperation
UndoOperation
Index: 6
Type: 3
WasModified: 1
WasOrder2: 1
Layer: 2
EndUndoOperation
UndoOperation
Index: 7
Type: 3
WasModified: 1
WasOrder2: 1
Layer: 2
EndUndoOperation
UndoOperation
Index: 8
Type: 1
WasModified: 0
WasOrder2: 1
Layer: 2
Width: 480
VWidth: 1000
LBearingChange: 0
UnicodeEnc: 0
InstructionsLength: 0
SplineSet
29 512 m 4,0,1
 38 590 38 590 100 644 c 4,2,3
 155 692 155 692 228 701 c 4,4,5
 303 712 303 712 358 677 c 4,6,7
 420 637 420 637 423 553 c 4,8,9
 423 516 423 516 415 484 c 4,10,11
 403 430 403 430 362 359 c 4,12,13
 332 310 332 310 284 244 c 4,14,15
 241 188 241 188 230 172 c 4,16,17
 202 134 202 134 186 106 c 5,18,-1
 186 105 l 6,19,20
 186 104 186 104 185 104 c 6,21,-1
 184 102 l 6,22,23
 183 100 183 100 181 97 c 132,-1,24
 179 94 179 94 178 92 c 4,25,26
 172 80 172 80 160 58 c 4,27,28
 160 57 160 57 158.5 54.5 c 132,-1,29
 157 52 157 52 156 51 c 4,30,31
 156 50 156 50 155 48.5 c 132,-1,32
 154 47 154 47 153 45.5 c 132,-1,33
 152 44 152 44 152 43 c 5,34,35
 153 43 153 43 156 43.5 c 132,-1,36
 159 44 159 44 160 45 c 4,37,38
 185 55 185 55 195 60 c 4,39,40
 198 61 198 61 214 69 c 4,41,42
 215 69 215 69 219 71 c 132,-1,43
 223 73 223 73 228 75 c 132,-1,44
 233 77 233 77 235 78 c 4,45,46
 269 95 269 95 303 108 c 4,47,48
 347 123 347 123 380 124 c 4,49,50
 390 124 390 124 399 121 c 4,51,52
 402 119 402 119 410 115 c 4,53,54
 413 113 413 113 427 104 c 5,55,-1
 427 103 l 5,56,-1
 428 103 l 5,57,-1
 429 103 l 6,58,59
 442 106 442 106 453.5 99 c 132,-1,60
 465 92 465 92 468 79 c 4,61,62
 470 69 470 69 470 65 c 4,63,64
 468 49 468 49 460 41 c 4,65,66
 450 29 450 29 433 29 c 6,67,-1
 418 32 l 6,68,69
 408 37 408 37 389 50 c 5,70,-1
 389 51 l 5,71,-1
 377 59 l 5,72,73
 352 56 352 56 324 46 c 4,74,75
 307 40 307 40 263 20 c 4,76,77
 258 18 258 18 242 10 c 6,78,-1
 222 0 l 6,79,80
 201 -10 201 -10 181 -16 c 4,81,82
 131 -33 131 -33 95 -21 c 4,83,84
 81 -16 81 -16 76 -5 c 4,85,86
 72 0 72 0 72 9 c 4,87,88
 71 14 71 14 73 23 c 4,89,90
 74 30 74 30 79 41 c 4,91,92
 80 44 80 44 84 51.5 c 132,-1,93
 88 59 88 59 91.5 66.5 c 132,-1,94
 95 74 95 74 99 81 c 4,95,96
 100 82 100 82 101 84.5 c 132,-1,97
 102 87 102 87 102 88 c 4,98,99
 103 90 103 90 121 123 c 4,100,101
 125 129 125 129 127 134 c 4,102,103
 129 136 129 136 129 137 c 6,104,-1
 130 138 l 5,105,-1
 130 139 l 5,106,107
 145 165 145 165 177 210 c 6,108,-1
 231 283 l 6,109,110
 279 347 279 347 306 392 c 4,111,112
 339 449 339 449 352 499 c 4,113,114
 358 528 358 528 358 552 c 4,115,116
 357 599 357 599 322 623 c 4,117,118
 289 645 289 645 237 637 c 4,119,120
 183 629 183 629 143 595 c 4,121,122
 99 557 99 557 93 504 c 4,123,124
 92 491 92 491 81.5 482.5 c 132,-1,125
 71 474 71 474 57 476 c 132,-1,126
 43 478 43 478 35 488.5 c 132,-1,127
 27 499 27 499 29 512 c 4,0,1
EndSplineSet
EndUndoOperation
UndoOperation
Index: 9
Type: 3
WasModified: 0
WasOrder2: 1
Layer: 2
EndUndoOperation
UndoOperation
Index: 10
Type: 3
WasModified: 0
WasOrder2: 1
Layer: 2
EndUndoOperation
EndUndoes
Redoes
EndRedoes
EndUndoRedoHistory
Fore
SplineSet
68.279296875 560.35546875 m 4,0,1
 87.2939453125 622.96875 87.2939453125 622.96875 154.787109375 663.654296875 c 4,2,3
 220.228515625 703.102539062 220.228515625 703.102539062 294.838867188 700.100585938 c 132,-1,4
 369.453125 697.098632812 369.453125 697.098632812 416.020507812 654.185546875 c 4,5,6
 471.651367188 602.921875 471.651367188 602.921875 458.66796875 516.866210938 c 4,7,8
 453.594726562 483.239257812 453.594726562 483.239257812 440.8125 453.259765625 c 4,9,10
 418.96484375 402.018554688 418.96484375 402.018554688 365.486328125 339.6484375 c 4,11,12
 328.205078125 296.169921875 328.205078125 296.169921875 234.526367188 207.951171875 c 4,13,14
 217.403320312 191.826171875 217.403320312 191.826171875 210.373046875 184.998046875 c 4,15,16
 169.618164062 145.418945312 169.618164062 145.418945312 148.999023438 120.622070312 c 5,17,-1
 148.826171875 119.637695312 l 6,18,19
 148.65234375 118.65234375 148.65234375 118.65234375 147.666992188 118.826171875 c 6,20,-1
 146.334960938 117.030273438 l 6,21,22
 145.002929688 115.234375 145.002929688 115.234375 142.512695312 112.626953125 c 132,-1,23
 140.021484375 110.020507812 140.021484375 110.020507812 136.159179688 104.8125 c 4,24,25
 130.697265625 97.4482421875 130.697265625 97.4482421875 122.688476562 87.03125 c 4,26,27
 114.885742188 76.8818359375 114.885742188 76.8818359375 112.59765625 74.24609375 c 4,28,29
 111.0625 72.478515625 111.0625 72.478515625 110.228515625 71.3544921875 c 4,30,31
 109.73046875 70.6826171875 109.73046875 70.6826171875 107.240234375 68.0751953125 c 4,32,33
 107.240234375 68.0751953125 107.240234375 68.0751953125 107.240234375 68.0751953125 c 4,34,35
 104.75 65.4677734375 104.75 65.4677734375 104.576171875 64.4833984375 c 5,36,37
 105.560546875 64.3095703125 105.560546875 64.3095703125 107.440429688 64.2919921875 c 4,38,39
 111.643554688 64.2529296875 111.643554688 64.2529296875 128.534179688 68.130859375 c 4,40,41
 139.158203125 70.5703125 139.158203125 70.5703125 140.190429688 70.8427734375 c 4,42,43
 153.002929688 74.2216796875 153.002929688 74.2216796875 162.124023438 76.7001953125 c 132,-1,44
 171.133789062 79.1484375 171.133789062 79.1484375 174.678710938 80.203125 c 4,45,46
 179.70703125 81.6982421875 179.70703125 81.6982421875 186.084960938 83.03125 c 4,47,48
 190.25 83.9013671875 190.25 83.9013671875 199.473632812 86.6455078125 c 4,49,50
 228.828125 95.376953125 228.828125 95.376953125 260.475585938 100.8125 c 4,51,52
 310.505859375 109.40625 310.505859375 109.40625 339.630859375 104.966796875 c 4,53,54
 353.025390625 102.924804688 353.025390625 102.924804688 360.528320312 98.123046875 c 4,55,56
 363.975585938 95.9169921875 363.975585938 95.9169921875 368.012695312 92.6923828125 c 4,57,58
 373.766601562 88.09765625 373.766601562 88.09765625 385.991210938 76.8037109375 c 5,59,-1
 385.817382812 75.818359375 l 5,60,-1
 386.801757812 75.64453125 l 5,61,-1
 387.787109375 75.4716796875 l 6,62,63
 401.110351562 76.16796875 401.110351562 76.16796875 411.16015625 67.330078125 c 132,-1,64
 421.330078125 58.38671875 421.330078125 58.38671875 422.034179688 40.5654296875 c 4,65,66
 422.259765625 34.8681640625 422.259765625 34.8681640625 420.365234375 28.1318359375 c 4,67,68
 416.817382812 15.51953125 416.817382812 15.51953125 407.587890625 8.3056640625 c 4,69,70
 395.618164062 -1.05078125 395.618164062 -1.05078125 378.875976562 1.9013671875 c 6,71,-1
 364.625 7.4599609375 l 6,72,73
 355.64453125 14.12109375 355.64453125 14.12109375 339.19140625 30.22265625 c 5,74,-1
 339.364257812 31.20703125 l 5,75,-1
 328.936523438 41.169921875 l 5,76,77
 303.794921875 42.556640625 303.794921875 42.556640625 278.459960938 38.283203125 c 4,78,79
 256.700195312 34.61328125 256.700195312 34.61328125 223.745117188 26.287109375 c 4,80,81
 204.625 21.4560546875 204.625 21.4560546875 187.478515625 16.3564453125 c 6,82,-1
 166.045898438 9.9814453125 l 6,83,84
 143.627929688 3.7802734375 143.627929688 3.7802734375 125.543945312 1.177734375 c 4,85,86
 70.6982421875 -6.7158203125 70.6982421875 -6.7158203125 40.22265625 10.0234375 c 4,87,88
 24.4091796875 18.708984375 24.4091796875 18.708984375 20.494140625 29.8544921875 c 4,89,90
 18.32421875 36.0283203125 18.32421875 36.0283203125 19.0615234375 43.1416015625 c 4,91,92
 19.7705078125 49.9892578125 19.7705078125 49.9892578125 22.22265625 56.5048828125 c 4,93,94
 25.50390625 65.2255859375 25.50390625 65.2255859375 31.0263671875 73.666015625 c 4,95,96
 33.84375 77.970703125 33.84375 77.970703125 39.0732421875 84.646484375 c 132,-1,97
 44.3271484375 91.353515625 44.3271484375 91.353515625 48.625 97.4892578125 c 4,98,99
 53.8251953125 104.91015625 53.8251953125 104.91015625 58.5556640625 110.163085938 c 4,100,101
 60.138671875 111.920898438 60.138671875 111.920898438 61.599609375 114.278320312 c 132,-1,102
 62.9765625 116.497070312 62.9765625 116.497070312 63.17578125 116.866210938 c 4,103,104
 64.482421875 119.278320312 64.482421875 119.278320312 84.6396484375 143.794921875 c 4,105,106
 92.919921875 153.865234375 92.919921875 153.865234375 96.2431640625 157.861328125 c 4,107,108
 98.0751953125 160.064453125 98.0751953125 160.064453125 98.248046875 161.048828125 c 6,109,-1
 99.4072265625 161.860351562 l 5,110,-1
 99.580078125 162.844726562 l 5,111,112
 118.8671875 185.845703125 118.8671875 185.845703125 158.1953125 224.60546875 c 6,113,-1
 224.051757812 287.119140625 l 6,114,115
 282.435546875 341.811523438 282.435546875 341.811523438 316.604492188 381.866210938 c 4,116,117
 359.236328125 431.842773438 359.236328125 431.842773438 379.873046875 479.252929688 c 4,118,119
 391.666015625 506.34375 391.666015625 506.34375 395.280273438 528.67578125 c 4,120,121
 403.009765625 576.438476562 403.009765625 576.438476562 372.7578125 605.731445312 c 4,122,123
 344.03125 633.547851562 344.03125 633.547851562 290.71875 634.866210938 c 4,124,125
 236.86328125 636.197265625 236.86328125 636.197265625 192.092773438 609.71875 c 4,126,127
 141.63671875 579.877929688 141.63671875 579.877929688 129.194335938 536.639648438 c 4,128,129
 123.282226562 516.095703125 123.282226562 516.095703125 110.356445312 508.93359375 c 4,130,131
 99.6494140625 503.000976562 99.6494140625 503.000976562 86.3173828125 507.366210938 c 4,132,133
 72.7685546875 511.802734375 72.7685546875 511.802734375 67.6201171875 521.77734375 c 4,134,135
 60.6591796875 535.26171875 60.6591796875 535.26171875 68.279296875 560.35546875 c 4,0,1
EndSplineSet
EndChar

StartChar: three
Encoding: 51 51 22
AltUni2: 00ff13.ffffffff.0 002083.ffffffff.0 0000b3.ffffffff.0 00ff13.ffffffff.0 002083.ffffffff.0 0000b3.ffffffff.0
Width: 472
GlyphClass: 1
Flags: W
LayerCount: 2
UndoRedoHistory
Layer: 0
Undoes
UndoOperation
Index: 0
Type: 1
WasModified: 1
WasOrder2: 1
Layer: 2
Width: 472
VWidth: 1000
LBearingChange: 0
UnicodeEnc: 0
InstructionsLength: 0
EndUndoOperation
UndoOperation
Index: 1
Type: 1
WasModified: 1
WasOrder2: 1
Layer: 2
Width: 472
VWidth: 1000
LBearingChange: 0
UnicodeEnc: 0
InstructionsLength: 0
EndUndoOperation
UndoOperation
Index: 2
Type: 1
WasModified: 1
WasOrder2: 1
Layer: 2
Width: 472
VWidth: 1000
LBearingChange: 0
UnicodeEnc: 0
InstructionsLength: 0
EndUndoOperation
UndoOperation
Index: 3
Type: 1
WasModified: 0
WasOrder2: 1
Layer: 2
Width: 472
VWidth: 1000
LBearingChange: 0
UnicodeEnc: 0
InstructionsLength: 0
EndUndoOperation
EndUndoes
Redoes
EndRedoes
EndUndoRedoHistory
UndoRedoHistory
Layer: 1
Undoes
UndoOperation
Index: 0
Type: 3
WasModified: 1
WasOrder2: 1
Layer: 2
EndUndoOperation
UndoOperation
Index: 1
Type: 3
WasModified: 1
WasOrder2: 1
Layer: 2
EndUndoOperation
UndoOperation
Index: 2
Type: 3
WasModified: 1
WasOrder2: 1
Layer: 2
EndUndoOperation
UndoOperation
Index: 3
Type: 3
WasModified: 0
WasOrder2: 1
Layer: 2
EndUndoOperation
EndUndoes
Redoes
EndRedoes
EndUndoRedoHistory
Fore
SplineSet
27.0234375 583 m 0,0,1
 109.0234375 692 109.0234375 692 199.0234375 697 c 0,2,3
 284.0234375 703 284.0234375 703 333.0234375 626 c 0,4,5
 379.0234375 552 379.0234375 552 354.0234375 470 c 0,6,7
 343.0234375 433 343.0234375 433 322.0234375 407 c 1,8,9
 353.0234375 401 353.0234375 401 378.0234375 383 c 0,10,11
 413.0234375 360 413.0234375 360 432.5234375 321 c 128,-1,12
 452.0234375 282 452.0234375 282 451.0234375 239 c 0,13,14
 449.0234375 141 449.0234375 141 362.0234375 75 c 0,15,16
 264.0234375 3 264.0234375 3 89.0234375 3 c 0,17,18
 76.0234375 3 76.0234375 3 66.5234375 12.5 c 128,-1,19
 57.0234375 22 57.0234375 22 57.0234375 35 c 0,20,21
 57.0234375 49 57.0234375 49 66.5234375 58.5 c 128,-1,22
 76.0234375 68 76.0234375 68 89.0234375 68 c 0,23,24
 242.0234375 68 242.0234375 68 323.0234375 127 c 0,25,26
 386.0234375 175 386.0234375 175 386.0234375 239 c 0,27,28
 388.0234375 298 388.0234375 298 341.0234375 329 c 0,29,30
 299.0234375 358 299.0234375 358 240.0234375 340 c 0,31,32
 237.0234375 339 237.0234375 339 231.5234375 336.5 c 128,-1,33
 226.0234375 334 226.0234375 334 224.0234375 333 c 0,34,35
 217.0234375 330 217.0234375 330 210.0234375 330 c 0,36,37
 185.0234375 326 185.0234375 326 175.0234375 349 c 0,38,39
 170.0234375 362 170.0234375 362 175.0234375 374.5 c 128,-1,40
 180.0234375 387 180.0234375 387 192.0234375 392 c 0,41,42
 208.0234375 398 208.0234375 398 215.0234375 401 c 0,43,44
 274.0234375 431 274.0234375 431 292.0234375 488 c 0,45,46
 307.0234375 544 307.0234375 544 278.0234375 591 c 0,47,48
 250.0234375 635 250.0234375 635 203.0234375 633 c 0,49,50
 143.0234375 628 143.0234375 628 79.0234375 544 c 0,51,52
 72.0234375 534 72.0234375 534 58.0234375 531.5 c 128,-1,53
 44.0234375 529 44.0234375 529 34.0234375 537 c 128,-1,54
 24.0234375 545 24.0234375 545 21.5234375 559 c 128,-1,55
 19.0234375 573 19.0234375 573 27.0234375 583 c 0,0,1
EndSplineSet
EndChar

StartChar: four
Encoding: 52 52 23
AltUni2: 00ff14.ffffffff.0 002084.ffffffff.0 002074.ffffffff.0 00ff14.ffffffff.0 002084.ffffffff.0 002074.ffffffff.0
Width: 514
GlyphClass: 1
Flags: W
LayerCount: 2
UndoRedoHistory
Layer: 0
Undoes
UndoOperation
Index: 0
Type: 1
WasModified: 1
WasOrder2: 1
Layer: 2
Width: 514
VWidth: 1000
LBearingChange: 0
UnicodeEnc: 0
InstructionsLength: 0
EndUndoOperation
UndoOperation
Index: 1
Type: 1
WasModified: 1
WasOrder2: 1
Layer: 2
Width: 514
VWidth: 1000
LBearingChange: 0
UnicodeEnc: 0
InstructionsLength: 0
EndUndoOperation
UndoOperation
Index: 2
Type: 1
WasModified: 1
WasOrder2: 1
Layer: 2
Width: 514
VWidth: 1000
LBearingChange: 0
UnicodeEnc: 0
InstructionsLength: 0
EndUndoOperation
UndoOperation
Index: 3
Type: 1
WasModified: 0
WasOrder2: 1
Layer: 2
Width: 514
VWidth: 1000
LBearingChange: 0
UnicodeEnc: 0
InstructionsLength: 0
EndUndoOperation
EndUndoes
Redoes
EndRedoes
EndUndoRedoHistory
UndoRedoHistory
Layer: 1
Undoes
UndoOperation
Index: 0
Type: 3
WasModified: 1
WasOrder2: 1
Layer: 2
EndUndoOperation
UndoOperation
Index: 1
Type: 3
WasModified: 1
WasOrder2: 1
Layer: 2
EndUndoOperation
UndoOperation
Index: 2
Type: 3
WasModified: 1
WasOrder2: 1
Layer: 2
EndUndoOperation
UndoOperation
Index: 3
Type: 3
WasModified: 0
WasOrder2: 1
Layer: 2
EndUndoOperation
EndUndoes
Redoes
EndRedoes
EndUndoRedoHistory
Fore
SplineSet
121.048828125 697 m 0,0,1
 120.048828125 686 120.048828125 686 113.048828125 615 c 0,2,3
 113.048828125 610 113.048828125 610 112.048828125 602 c 128,-1,4
 111.048828125 594 111.048828125 594 110.048828125 588 c 2,5,-1
 109.048828125 582 l 2,6,7
 109.048828125 580 109.048828125 580 108.548828125 575 c 128,-1,8
 108.048828125 570 108.048828125 570 108.048828125 567 c 0,9,10
 107.048828125 554 107.048828125 554 104.048828125 494 c 0,11,12
 100.048828125 386 100.048828125 386 121.048828125 328 c 0,13,14
 137.048828125 283 137.048828125 283 169.048828125 268 c 0,15,16
 198.048828125 254 198.048828125 254 246.048828125 260 c 0,17,18
 250.048828125 261 250.048828125 261 256.548828125 262 c 128,-1,19
 263.048828125 263 263.048828125 263 268.548828125 264 c 128,-1,20
 274.048828125 265 274.048828125 265 279.048828125 266 c 0,21,22
 280.048828125 270 280.048828125 270 280.548828125 279.5 c 128,-1,23
 281.048828125 289 281.048828125 289 281.048828125 294 c 0,24,25
 286.048828125 381 286.048828125 381 287.048828125 400 c 0,26,27
 290.048828125 448 290.048828125 448 288.048828125 482 c 0,28,29
 288.048828125 496 288.048828125 496 297.548828125 505.5 c 128,-1,30
 307.048828125 515 307.048828125 515 320.048828125 516 c 0,31,32
 334.048828125 517 334.048828125 517 343.548828125 507.5 c 128,-1,33
 353.048828125 498 353.048828125 498 353.048828125 485 c 0,34,35
 355.048828125 447 355.048828125 447 352.048828125 397 c 0,36,37
 351.048828125 375 351.048828125 375 346.048828125 290 c 0,38,39
 346.048828125 289 346.048828125 289 345.548828125 286.5 c 128,-1,40
 345.048828125 284 345.048828125 284 345.048828125 283 c 1,41,42
 346.048828125 283 346.048828125 283 348.548828125 283.5 c 128,-1,43
 351.048828125 284 351.048828125 284 352.048828125 284 c 0,44,45
 358.048828125 287 358.048828125 287 365.048828125 288 c 0,46,47
 414.048828125 303 414.048828125 303 435.048828125 307 c 0,48,49
 448.048828125 311 448.048828125 311 459.548828125 304 c 128,-1,50
 471.048828125 297 471.048828125 297 474.048828125 284 c 0,51,52
 478.048828125 271 478.048828125 271 471.048828125 259.5 c 128,-1,53
 464.048828125 248 464.048828125 248 450.048828125 244 c 0,54,55
 439.048828125 242 439.048828125 242 383.048828125 226 c 0,56,57
 380.048828125 225 380.048828125 225 375.548828125 223.5 c 128,-1,58
 371.048828125 222 371.048828125 222 370.048828125 222 c 0,59,60
 368.048828125 221 368.048828125 221 357.048828125 218 c 128,-1,61
 346.048828125 215 346.048828125 215 341.048828125 214 c 1,62,63
 334.048828125 77 334.048828125 77 343.048828125 22 c 0,64,65
 346.048828125 9 346.048828125 9 338.548828125 -2.5 c 128,-1,66
 331.048828125 -14 331.048828125 -14 318.048828125 -16 c 0,67,68
 304.048828125 -18 304.048828125 -18 293.048828125 -10.5 c 128,-1,69
 282.048828125 -3 282.048828125 -3 280.048828125 10 c 0,70,71
 273.048828125 42 273.048828125 42 273.048828125 120 c 0,72,73
 273.048828125 139 273.048828125 139 275.048828125 199 c 1,74,-1
 254.048828125 196 l 2,75,76
 188.048828125 187 188.048828125 187 141.048828125 209 c 0,77,78
 85.048828125 236 85.048828125 236 60.048828125 306 c 128,-1,79
 35.048828125 376 35.048828125 376 39.048828125 497 c 0,80,81
 42.048828125 554 42.048828125 554 43.048828125 572 c 0,82,83
 43.048828125 578 43.048828125 578 45.048828125 590 c 0,84,85
 45.048828125 602 45.048828125 602 49.048828125 622 c 0,86,87
 50.048828125 627 50.048828125 627 52.548828125 654.5 c 128,-1,88
 55.048828125 682 55.048828125 682 57.048828125 703 c 0,89,90
 58.048828125 716 58.048828125 716 68.048828125 725 c 128,-1,91
 78.048828125 734 78.048828125 734 92.048828125 732 c 0,92,93
 105.048828125 731 105.048828125 731 114.048828125 721 c 128,-1,94
 123.048828125 711 123.048828125 711 121.048828125 697 c 0,0,1
EndSplineSet
EndChar

StartChar: five
Encoding: 53 53 24
AltUni2: 00ff15.ffffffff.0 002085.ffffffff.0 002075.ffffffff.0 00ff15.ffffffff.0 002085.ffffffff.0 002075.ffffffff.0
Width: 449
GlyphClass: 1
Flags: W
LayerCount: 2
UndoRedoHistory
Layer: 0
Undoes
UndoOperation
Index: 0
Type: 1
WasModified: 1
WasOrder2: 1
Layer: 2
Width: 449
VWidth: 1000
LBearingChange: 0
UnicodeEnc: 0
InstructionsLength: 0
EndUndoOperation
UndoOperation
Index: 1
Type: 1
WasModified: 1
WasOrder2: 1
Layer: 2
Width: 449
VWidth: 1000
LBearingChange: 0
UnicodeEnc: 0
InstructionsLength: 0
EndUndoOperation
UndoOperation
Index: 2
Type: 1
WasModified: 1
WasOrder2: 1
Layer: 2
Width: 449
VWidth: 1000
LBearingChange: 0
UnicodeEnc: 0
InstructionsLength: 0
EndUndoOperation
UndoOperation
Index: 3
Type: 1
WasModified: 0
WasOrder2: 1
Layer: 2
Width: 449
VWidth: 1000
LBearingChange: 0
UnicodeEnc: 0
InstructionsLength: 0
EndUndoOperation
EndUndoes
Redoes
EndRedoes
EndUndoRedoHistory
UndoRedoHistory
Layer: 1
Undoes
UndoOperation
Index: 0
Type: 3
WasModified: 1
WasOrder2: 1
Layer: 2
EndUndoOperation
UndoOperation
Index: 1
Type: 3
WasModified: 1
WasOrder2: 1
Layer: 2
EndUndoOperation
UndoOperation
Index: 2
Type: 3
WasModified: 1
WasOrder2: 1
Layer: 2
EndUndoOperation
UndoOperation
Index: 3
Type: 3
WasModified: 0
WasOrder2: 1
Layer: 2
EndUndoOperation
EndUndoes
Redoes
EndRedoes
EndUndoRedoHistory
Fore
SplineSet
137.799804688 669 m 0,0,1
 200.799804688 678 200.799804688 678 378.799804688 720 c 0,2,3
 391.799804688 723 391.799804688 723 403.299804688 716 c 128,-1,4
 414.799804688 709 414.799804688 709 417.799804688 695 c 0,5,6
 420.799804688 682 420.799804688 682 413.799804688 670.5 c 128,-1,7
 406.799804688 659 406.799804688 659 393.799804688 656 c 0,8,9
 215.799804688 616 215.799804688 616 161.799804688 607 c 1,10,11
 118.799804688 519 118.799804688 519 105.799804688 472 c 0,12,13
 94.7998046875 431 94.7998046875 431 100.799804688 416 c 0,14,15
 102.799804688 412 102.799804688 412 114.799804688 409 c 0,16,17
 127.799804688 407 127.799804688 407 169.799804688 408 c 0,18,19
 176.799804688 408 176.799804688 408 185.799804688 408.5 c 128,-1,20
 194.799804688 409 194.799804688 409 197.799804688 409 c 0,21,22
 224.799804688 409 224.799804688 409 245.799804688 406 c 0,23,24
 273.799804688 402 273.799804688 402 295.799804688 390 c 0,25,26
 347.799804688 361 347.799804688 361 359.799804688 288 c 0,27,28
 371.799804688 218 371.799804688 218 336.799804688 145 c 0,29,30
 304.799804688 80 304.799804688 80 249.799804688 38 c 0,31,32
 189.799804688 -7 189.799804688 -7 131.799804688 1 c 0,33,34
 62.7998046875 9 62.7998046875 9 32.7998046875 85 c 0,35,36
 27.7998046875 98 27.7998046875 98 32.7998046875 110.5 c 128,-1,37
 37.7998046875 123 37.7998046875 123 50.7998046875 127 c 0,38,39
 62.7998046875 132 62.7998046875 132 75.2998046875 127 c 128,-1,40
 87.7998046875 122 87.7998046875 122 92.7998046875 109 c 0,41,42
 107.799804688 70 107.799804688 70 139.799804688 65 c 0,43,44
 170.799804688 62 170.799804688 62 210.799804688 91 c 0,45,46
 253.799804688 122 253.799804688 122 277.799804688 173 c 0,47,48
 303.799804688 226 303.799804688 226 295.799804688 278 c 0,49,50
 288.799804688 320 288.799804688 320 263.799804688 333 c 0,51,52
 244.799804688 344 244.799804688 344 198.799804688 344 c 0,53,54
 195.799804688 344 195.799804688 344 187.299804688 343.5 c 128,-1,55
 178.799804688 343 178.799804688 343 171.799804688 343 c 0,56,57
 153.799804688 342 153.799804688 342 136.799804688 342 c 0,58,59
 117.799804688 342 117.799804688 342 102.799804688 345 c 0,60,61
 56.7998046875 354 56.7998046875 354 40.7998046875 391 c 0,62,63
 25.7998046875 426 25.7998046875 426 42.2998046875 486 c 128,-1,64
 58.7998046875 546 58.7998046875 546 108.799804688 646 c 0,65,66
 110.799804688 650 110.799804688 650 113.799804688 654 c 0,67,68
 121.799804688 668 121.799804688 668 137.799804688 669 c 0,0,1
EndSplineSet
EndChar

StartChar: six
Encoding: 54 54 25
AltUni2: 00ff16.ffffffff.0 002086.ffffffff.0 002076.ffffffff.0 00ff16.ffffffff.0 002086.ffffffff.0 002076.ffffffff.0
Width: 442
GlyphClass: 1
Flags: W
LayerCount: 2
UndoRedoHistory
Layer: 0
Undoes
UndoOperation
Index: 0
Type: 1
WasModified: 1
WasOrder2: 1
Layer: 2
Width: 442
VWidth: 1000
LBearingChange: 0
UnicodeEnc: 0
InstructionsLength: 0
EndUndoOperation
UndoOperation
Index: 1
Type: 1
WasModified: 1
WasOrder2: 1
Layer: 2
Width: 442
VWidth: 1000
LBearingChange: 0
UnicodeEnc: 0
InstructionsLength: 0
EndUndoOperation
UndoOperation
Index: 2
Type: 1
WasModified: 1
WasOrder2: 1
Layer: 2
Width: 442
VWidth: 1000
LBearingChange: 0
UnicodeEnc: 0
InstructionsLength: 0
EndUndoOperation
UndoOperation
Index: 3
Type: 1
WasModified: 0
WasOrder2: 1
Layer: 2
Width: 442
VWidth: 1000
LBearingChange: 0
UnicodeEnc: 0
InstructionsLength: 0
EndUndoOperation
EndUndoes
Redoes
EndRedoes
EndUndoRedoHistory
UndoRedoHistory
Layer: 1
Undoes
UndoOperation
Index: 0
Type: 3
WasModified: 1
WasOrder2: 1
Layer: 2
EndUndoOperation
UndoOperation
Index: 1
Type: 3
WasModified: 1
WasOrder2: 1
Layer: 2
EndUndoOperation
UndoOperation
Index: 2
Type: 3
WasModified: 1
WasOrder2: 1
Layer: 2
EndUndoOperation
UndoOperation
Index: 3
Type: 3
WasModified: 0
WasOrder2: 1
Layer: 2
EndUndoOperation
EndUndoes
Redoes
EndRedoes
EndUndoRedoHistory
Fore
SplineSet
98.44140625 257 m 1,0,1
 82.44140625 173 82.44140625 173 100.44140625 123 c 0,2,3
 126.44140625 51 126.44140625 51 225.44140625 44 c 0,4,5
 291.44140625 40 291.44140625 40 325.44140625 89 c 0,6,7
 357.44140625 137 357.44140625 137 349.44140625 207 c 128,-1,8
 341.44140625 277 341.44140625 277 300.44140625 313 c 0,9,10
 258.44140625 349 258.44140625 349 194.44140625 324 c 0,11,12
 172.44140625 315 172.44140625 315 152.44140625 300.5 c 128,-1,13
 132.44140625 286 132.44140625 286 127.44140625 275 c 0,14,15
 119.44140625 257 119.44140625 257 98.44140625 257 c 1,0,1
304.44140625 668 m 0,16,17
 259.44140625 624 259.44140625 624 204.44140625 526 c 0,18,19
 159.44140625 446 159.44140625 446 128.44140625 363 c 1,20,21
 142.44140625 372 142.44140625 372 170.44140625 385 c 0,22,23
 271.44140625 423 271.44140625 423 342.44140625 362 c 0,24,25
 403.44140625 310 403.44140625 310 413.44140625 215 c 0,26,27
 424.44140625 121 424.44140625 121 379.44140625 53 c 0,28,29
 326.44140625 -27 326.44140625 -27 221.44140625 -21 c 0,30,31
 78.44140625 -10 78.44140625 -10 39.44140625 102 c 0,32,33
 9.44140625 188 9.44140625 188 48.44140625 328 c 0,34,35
 78.44140625 433 78.44140625 433 147.44140625 558 c 0,36,37
 212.44140625 669 212.44140625 669 259.44140625 715 c 0,38,39
 268.44140625 724 268.44140625 724 281.94140625 724 c 128,-1,40
 295.44140625 724 295.44140625 724 305.44140625 714 c 0,41,42
 314.44140625 704 314.44140625 704 314.44140625 691 c 128,-1,43
 314.44140625 678 314.44140625 678 304.44140625 668 c 0,16,17
EndSplineSet
EndChar

StartChar: seven
Encoding: 55 55 26
AltUni2: 00ff17.ffffffff.0 002087.ffffffff.0 002077.ffffffff.0 00ff17.ffffffff.0 002087.ffffffff.0 002077.ffffffff.0
Width: 479
GlyphClass: 1
Flags: W
LayerCount: 2
UndoRedoHistory
Layer: 0
Undoes
UndoOperation
Index: 0
Type: 1
WasModified: 1
WasOrder2: 1
Layer: 2
Width: 479
VWidth: 1000
LBearingChange: 0
UnicodeEnc: 0
InstructionsLength: 0
EndUndoOperation
UndoOperation
Index: 1
Type: 1
WasModified: 1
WasOrder2: 1
Layer: 2
Width: 479
VWidth: 1000
LBearingChange: 0
UnicodeEnc: 0
InstructionsLength: 0
EndUndoOperation
UndoOperation
Index: 2
Type: 1
WasModified: 1
WasOrder2: 1
Layer: 2
Width: 479
VWidth: 1000
LBearingChange: 0
UnicodeEnc: 0
InstructionsLength: 0
EndUndoOperation
UndoOperation
Index: 3
Type: 1
WasModified: 0
WasOrder2: 1
Layer: 2
Width: 479
VWidth: 1000
LBearingChange: 0
UnicodeEnc: 0
InstructionsLength: 0
EndUndoOperation
EndUndoes
Redoes
EndRedoes
EndUndoRedoHistory
UndoRedoHistory
Layer: 1
Undoes
UndoOperation
Index: 0
Type: 3
WasModified: 1
WasOrder2: 1
Layer: 2
EndUndoOperation
UndoOperation
Index: 1
Type: 3
WasModified: 1
WasOrder2: 1
Layer: 2
EndUndoOperation
UndoOperation
Index: 2
Type: 3
WasModified: 1
WasOrder2: 1
Layer: 2
EndUndoOperation
UndoOperation
Index: 3
Type: 3
WasModified: 0
WasOrder2: 1
Layer: 2
EndUndoOperation
EndUndoes
Redoes
EndRedoes
EndUndoRedoHistory
Fore
SplineSet
48.2275390625 664 m 0,0,1
 78.2275390625 672 78.2275390625 672 99.2275390625 678 c 0,2,3
 100.227539062 678 100.227539062 678 112.227539062 681 c 0,4,5
 153.227539062 693 153.227539062 693 197.227539062 704 c 0,6,7
 248.227539062 715 248.227539062 715 288.227539062 719 c 0,8,9
 289.227539062 719 289.227539062 719 292.227539062 719.5 c 128,-1,10
 295.227539062 720 295.227539062 720 297.227539062 720 c 0,11,12
 304.227539062 720 304.227539062 720 308.227539062 722 c 0,13,14
 335.227539062 725 335.227539062 725 352.227539062 725 c 0,15,16
 380.227539062 725 380.227539062 725 404.227539062 716 c 0,17,18
 434.227539062 704 434.227539062 704 451.227539062 675 c 0,19,20
 455.227539062 667 455.227539062 667 455.227539062 656 c 0,21,22
 455.227539062 648 455.227539062 648 454.227539062 644 c 0,23,24
 453.227539062 635 453.227539062 635 448.227539062 621 c 0,25,26
 441.227539062 603 441.227539062 603 424.227539062 563 c 0,27,28
 421.227539062 556 421.227539062 556 388.727539062 485.5 c 128,-1,29
 356.227539062 415 356.227539062 415 348.227539062 396 c 1,30,-1
 347.227539062 395 l 2,31,32
 347.227539062 394 347.227539062 394 347.227539062 393 c 1,33,-1
 350.227539062 393 l 2,34,35
 375.227539062 395 375.227539062 395 400.227539062 398 c 0,36,37
 413.227539062 401 413.227539062 401 424.227539062 393.5 c 128,-1,38
 435.227539062 386 435.227539062 386 438.227539062 372 c 0,39,40
 440.227539062 358 440.227539062 358 432.227539062 347 c 128,-1,41
 424.227539062 336 424.227539062 336 411.227539062 334 c 0,42,43
 406.227539062 334 406.227539062 334 388.727539062 332 c 128,-1,44
 371.227539062 330 371.227539062 330 356.227539062 328 c 0,45,46
 344.227539062 328 344.227539062 328 320.227539062 325 c 2,47,-1
 318.227539062 325 l 1,48,49
 312.227539062 311 312.227539062 311 310.227539062 304 c 0,50,51
 274.227539062 217 274.227539062 217 257.227539062 146 c 0,52,53
 240.227539062 70 240.227539062 70 250.227539062 35 c 0,54,55
 254.227539062 22 254.227539062 22 247.227539062 10.5 c 128,-1,56
 240.227539062 -1 240.227539062 -1 227.227539062 -5 c 128,-1,57
 214.227539062 -9 214.227539062 -9 202.727539062 -2 c 128,-1,58
 191.227539062 5 191.227539062 5 187.227539062 18 c 0,59,60
 173.227539062 71 173.227539062 71 194.227539062 161 c 0,61,62
 211.227539062 228 211.227539062 228 245.227539062 317 c 1,63,-1
 203.227539062 310 l 2,64,65
 189.227539062 308 189.227539062 308 178.227539062 315.5 c 128,-1,66
 167.227539062 323 167.227539062 323 165.227539062 336 c 0,67,68
 162.227539062 349 162.227539062 349 169.727539062 360.5 c 128,-1,69
 177.227539062 372 177.227539062 372 190.227539062 374 c 0,70,71
 232.227539062 381 232.227539062 381 273.227539062 385 c 1,72,73
 283.227539062 409 283.227539062 409 289.227539062 422 c 0,74,75
 307.227539062 464 307.227539062 464 365.227539062 589 c 0,76,77
 381.227539062 627 381.227539062 627 387.227539062 643 c 0,78,79
 387.227539062 646 387.227539062 646 389.227539062 650 c 1,80,81
 379.227539062 660 379.227539062 660 352.227539062 660 c 0,82,83
 339.227539062 660 339.227539062 660 316.227539062 657 c 0,84,85
 315.227539062 657 315.227539062 657 310.727539062 656.5 c 128,-1,86
 306.227539062 656 306.227539062 656 305.227539062 656 c 0,87,88
 301.227539062 655 301.227539062 655 295.227539062 655 c 0,89,90
 258.227539062 651 258.227539062 651 212.227539062 640 c 0,91,92
 182.227539062 633 182.227539062 633 129.227539062 618 c 0,93,94
 125.227539062 617 125.227539062 617 121.227539062 616 c 128,-1,95
 117.227539062 615 117.227539062 615 116.227539062 615 c 0,96,97
 109.227539062 613 109.227539062 613 64.2275390625 601 c 0,98,99
 51.2275390625 597 51.2275390625 597 39.7275390625 604 c 128,-1,100
 28.2275390625 611 28.2275390625 611 25.2275390625 624 c 0,101,102
 21.2275390625 637 21.2275390625 637 28.2275390625 648.5 c 128,-1,103
 35.2275390625 660 35.2275390625 660 48.2275390625 664 c 0,0,1
EndSplineSet
EndChar

StartChar: eight
Encoding: 56 56 27
AltUni2: 00ff18.ffffffff.0 002088.ffffffff.0 002078.ffffffff.0 00ff18.ffffffff.0 002088.ffffffff.0 002078.ffffffff.0
Width: 437
GlyphClass: 1
Flags: W
LayerCount: 2
UndoRedoHistory
Layer: 0
Undoes
UndoOperation
Index: 0
Type: 1
WasModified: 1
WasOrder2: 1
Layer: 2
Width: 437
VWidth: 1000
LBearingChange: 0
UnicodeEnc: 0
InstructionsLength: 0
EndUndoOperation
UndoOperation
Index: 1
Type: 1
WasModified: 1
WasOrder2: 1
Layer: 2
Width: 437
VWidth: 1000
LBearingChange: 0
UnicodeEnc: 0
InstructionsLength: 0
EndUndoOperation
UndoOperation
Index: 2
Type: 1
WasModified: 1
WasOrder2: 1
Layer: 2
Width: 437
VWidth: 1000
LBearingChange: 0
UnicodeEnc: 0
InstructionsLength: 0
EndUndoOperation
UndoOperation
Index: 3
Type: 1
WasModified: 0
WasOrder2: 1
Layer: 2
Width: 437
VWidth: 1000
LBearingChange: 0
UnicodeEnc: 0
InstructionsLength: 0
EndUndoOperation
EndUndoes
Redoes
EndRedoes
EndUndoRedoHistory
UndoRedoHistory
Layer: 1
Undoes
UndoOperation
Index: 0
Type: 3
WasModified: 1
WasOrder2: 1
Layer: 2
EndUndoOperation
UndoOperation
Index: 1
Type: 3
WasModified: 1
WasOrder2: 1
Layer: 2
EndUndoOperation
UndoOperation
Index: 2
Type: 3
WasModified: 1
WasOrder2: 1
Layer: 2
EndUndoOperation
UndoOperation
Index: 3
Type: 3
WasModified: 0
WasOrder2: 1
Layer: 2
EndUndoOperation
EndUndoes
Redoes
EndRedoes
EndUndoRedoHistory
Fore
SplineSet
174.53515625 -6 m 1,0,-1
 172.53515625 -6 l 2,1,2
 171.53515625 -5 171.53515625 -5 170.53515625 -5 c 0,3,4
 75.53515625 24 75.53515625 24 39.53515625 69 c 0,5,6
 -0.46484375 115 -0.46484375 115 16.53515625 177 c 0,7,8
 29.53515625 224 29.53515625 224 74.53515625 278 c 0,9,10
 99.53515625 308 99.53515625 308 125.53515625 334 c 1,11,12
 94.53515625 360 94.53515625 360 77.53515625 388 c 0,13,14
 30.53515625 470 30.53515625 470 103.53515625 577 c 0,15,16
 136.53515625 627 136.53515625 627 167.53515625 656 c 0,17,18
 218.53515625 702 218.53515625 702 275.53515625 706 c 0,19,20
 308.53515625 709 308.53515625 709 334.53515625 693 c 0,21,22
 347.53515625 685 347.53515625 685 371.53515625 660 c 0,23,24
 404.53515625 624 404.53515625 624 398.53515625 577 c 0,25,26
 395.53515625 543 395.53515625 543 366.53515625 497 c 0,27,28
 339.53515625 459 339.53515625 459 303.53515625 421 c 0,29,30
 294.53515625 411 294.53515625 411 228.53515625 345 c 2,31,-1
 227.53515625 344 l 1,32,33
 233.53515625 340 233.53515625 340 239.53515625 337 c 0,34,35
 241.53515625 336 241.53515625 336 249.53515625 331 c 128,-1,36
 257.53515625 326 257.53515625 326 258.53515625 326 c 0,37,38
 283.53515625 311 283.53515625 311 315.53515625 291 c 0,39,40
 350.53515625 266 350.53515625 266 368.53515625 248 c 0,41,42
 425.53515625 193 425.53515625 193 425.53515625 121 c 0,43,44
 425.53515625 77 425.53515625 77 396.53515625 45 c 0,45,46
 370.53515625 17 370.53515625 17 332.53515625 2 c 0,47,48
 257.53515625 -27 257.53515625 -27 186.53515625 -11 c 0,49,50
 182.53515625 -10 182.53515625 -10 174.53515625 -6 c 1,0,-1
171.53515625 381 m 1,51,-1
 182.53515625 392 l 2,52,53
 223.53515625 432 223.53515625 432 256.53515625 465 c 0,54,55
 293.53515625 505 293.53515625 505 311.53515625 533 c 0,56,57
 331.53515625 561 331.53515625 561 334.53515625 584 c 0,58,59
 336.53515625 602 336.53515625 602 323.53515625 616 c 0,60,61
 307.53515625 634 307.53515625 634 300.03515625 638.5 c 128,-1,62
 292.53515625 643 292.53515625 643 280.53515625 642 c 0,63,64
 245.53515625 639 245.53515625 639 211.53515625 608 c 0,65,66
 191.53515625 590 191.53515625 590 156.53515625 540 c 0,67,68
 129.53515625 498 129.53515625 498 124.53515625 466 c 0,69,70
 121.53515625 442 121.53515625 442 133.53515625 421 c 0,71,72
 147.53515625 398 147.53515625 398 171.53515625 381 c 1,51,-1
201.53515625 52 m 0,73,74
 252.53515625 40 252.53515625 40 307.53515625 62 c 0,75,76
 360.53515625 83 360.53515625 83 360.53515625 121 c 0,77,78
 360.53515625 165 360.53515625 165 322.53515625 202 c 0,79,80
 298.53515625 227 298.53515625 227 225.53515625 270 c 0,81,82
 224.53515625 270 224.53515625 270 216.53515625 275 c 128,-1,83
 208.53515625 280 208.53515625 280 206.53515625 281 c 0,84,85
 202.53515625 283 202.53515625 283 193.53515625 288.5 c 128,-1,86
 184.53515625 294 184.53515625 294 179.53515625 297 c 1,87,88
 146.53515625 264 146.53515625 264 125.53515625 237 c 0,89,90
 86.53515625 191 86.53515625 191 79.53515625 160 c 0,91,92
 70.53515625 131 70.53515625 131 88.53515625 111 c 0,93,94
 114.53515625 81 114.53515625 81 189.53515625 57 c 0,95,96
 195.53515625 55 195.53515625 55 199.53515625 53 c 0,97,98
 199.53515625 52 199.53515625 52 201.53515625 52 c 0,73,74
EndSplineSet
EndChar

StartChar: nine
Encoding: 57 57 28
AltUni2: 00ff19.ffffffff.0 002089.ffffffff.0 002079.ffffffff.0 00ff19.ffffffff.0 002089.ffffffff.0 002079.ffffffff.0
Width: 444
GlyphClass: 1
Flags: W
LayerCount: 2
UndoRedoHistory
Layer: 0
Undoes
UndoOperation
Index: 0
Type: 1
WasModified: 1
WasOrder2: 1
Layer: 2
Width: 444
VWidth: 1000
LBearingChange: 0
UnicodeEnc: 0
InstructionsLength: 0
EndUndoOperation
UndoOperation
Index: 1
Type: 1
WasModified: 1
WasOrder2: 1
Layer: 2
Width: 444
VWidth: 1000
LBearingChange: 0
UnicodeEnc: 0
InstructionsLength: 0
EndUndoOperation
UndoOperation
Index: 2
Type: 1
WasModified: 1
WasOrder2: 1
Layer: 2
Width: 444
VWidth: 1000
LBearingChange: 0
UnicodeEnc: 0
InstructionsLength: 0
EndUndoOperation
UndoOperation
Index: 3
Type: 1
WasModified: 0
WasOrder2: 1
Layer: 2
Width: 444
VWidth: 1000
LBearingChange: 0
UnicodeEnc: 0
InstructionsLength: 0
EndUndoOperation
EndUndoes
Redoes
EndRedoes
EndUndoRedoHistory
UndoRedoHistory
Layer: 1
Undoes
UndoOperation
Index: 0
Type: 3
WasModified: 1
WasOrder2: 1
Layer: 2
EndUndoOperation
UndoOperation
Index: 1
Type: 3
WasModified: 1
WasOrder2: 1
Layer: 2
EndUndoOperation
UndoOperation
Index: 2
Type: 3
WasModified: 1
WasOrder2: 1
Layer: 2
EndUndoOperation
UndoOperation
Index: 3
Type: 3
WasModified: 0
WasOrder2: 1
Layer: 2
EndUndoOperation
EndUndoes
Redoes
EndRedoes
EndUndoRedoHistory
Fore
SplineSet
333.009765625 308 m 1,0,1
 355.009765625 402 355.009765625 402 339.009765625 484 c 0,2,3
 321.009765625 584 321.009765625 584 255.009765625 613 c 0,4,5
 194.009765625 640 194.009765625 640 149.009765625 599 c 0,6,7
 104.009765625 559 104.009765625 559 99.009765625 484 c 0,8,9
 94.009765625 407 94.009765625 407 141.009765625 359 c 0,10,11
 200.009765625 302 200.009765625 302 316.009765625 312 c 0,12,13
 326.009765625 312 326.009765625 312 333.009765625 308 c 1,0,1
80.009765625 76 m 0,14,15
 157.009765625 43 157.009765625 43 224.009765625 101 c 0,16,17
 281.009765625 150 281.009765625 150 315.009765625 247 c 1,18,19
 171.009765625 236 171.009765625 236 95.009765625 314 c 0,20,21
 28.009765625 381 28.009765625 381 34.009765625 488 c 0,22,23
 40.009765625 589 40.009765625 589 106.009765625 648 c 0,24,25
 183.009765625 717 183.009765625 717 281.009765625 672 c 0,26,27
 379.009765625 628 379.009765625 628 403.009765625 496 c 0,28,29
 424.009765625 384 424.009765625 384 386.009765625 253 c 0,30,31
 347.009765625 121 347.009765625 121 266.009765625 51 c 0,32,33
 169.009765625 -32 169.009765625 -32 54.009765625 16 c 0,34,35
 42.009765625 21 42.009765625 21 37.009765625 33.5 c 128,-1,36
 32.009765625 46 32.009765625 46 37.009765625 59 c 0,37,38
 42.009765625 71 42.009765625 71 54.509765625 76 c 128,-1,39
 67.009765625 81 67.009765625 81 80.009765625 76 c 0,14,15
EndSplineSet
EndChar

StartChar: colon
Encoding: 58 58 29
AltUni2: 00ff1a.ffffffff.0 00fe55.ffffffff.0 00fe13.ffffffff.0 002236.ffffffff.0 000589.ffffffff.0 00ff1a.ffffffff.0 00fe55.ffffffff.0 00fe13.ffffffff.0 002236.ffffffff.0 000589.ffffffff.0
Width: 230
GlyphClass: 1
Flags: W
LayerCount: 2
UndoRedoHistory
Layer: 0
Undoes
UndoOperation
Index: 0
Type: 1
WasModified: 0
WasOrder2: 1
Layer: 2
Width: 230
VWidth: 1000
LBearingChange: 0
UnicodeEnc: 0
InstructionsLength: 0
EndUndoOperation
EndUndoes
Redoes
EndRedoes
EndUndoRedoHistory
UndoRedoHistory
Layer: 1
Undoes
UndoOperation
Index: 0
Type: 3
WasModified: 0
WasOrder2: 1
Layer: 2
EndUndoOperation
UndoOperation
Index: 1
Type: 1
WasModified: 0
WasOrder2: 1
Layer: 2
Width: 230
VWidth: 1000
LBearingChange: 0
UnicodeEnc: 0
InstructionsLength: 0
SplineSet
92 152 m 1,0,1
 108 173 108 173 134 167 c 0,2,3
 169 158 169 158 191 129 c 0,4,5
 222 88 222 88 196 47 c 0,6,7
 176 19 176 19 140 10 c 0,8,9
 120 6 120 6 106 9 c 0,10,11
 83 14 83 14 69 29 c 0,12,13
 53 47 53 47 53 70 c 0,14,15
 52 90 52 90 61 115 c 0,16,17
 63 121 63 121 67 129 c 0,18,19
 77 144 77 144 92 152 c 1,0,1
73 386 m 1,20,21
 71 403 71 403 83 416 c 0,22,23
 102 435 102 435 125 436 c 0,24,25
 144 437 144 437 164 426 c 0,26,27
 192 411 192 411 208 378 c 0,28,29
 228 339 228 339 214 307 c 0,30,31
 203 284 203 284 180 275 c 0,32,33
 160 268 160 268 135 271 c 0,34,35
 104 274 104 274 84 296 c 0,36,37
 58 324 58 324 64 363 c 0,38,39
 65 375 65 375 73 386 c 1,20,21
EndSplineSet
EndUndoOperation
EndUndoes
Redoes
EndRedoes
EndUndoRedoHistory
Fore
SplineSet
41.5673828125 74.0498046875 m 0,0,1
 41.5673828125 72.2490234375 41.5673828125 72.2490234375 41.6552734375 70.5068359375 c 2,2,-1
 41.66796875 70.25390625 l 2,3,4
 41.66796875 50.8544921875 41.66796875 50.8544921875 55.0615234375 35.7314453125 c 0,5,6
 66.908203125 23.095703125 66.908203125 23.095703125 86.798828125 18.7724609375 c 0,7,8
 91.734375 17.7138671875 91.734375 17.7138671875 98.9404296875 17.7138671875 c 128,-1,9
 106.145507812 17.7138671875 106.145507812 17.7138671875 116.466796875 19.759765625 c 0,10,11
 148.59375 27.8603515625 148.59375 27.8603515625 166.364257812 52.578125 c 1,12,13
 175.801757812 74.287109375 175.801757812 74.287109375 176.52734375 84.4033203125 c 0,14,15
 176.52734375 103.348632812 176.52734375 103.348632812 161.686523438 122.977539062 c 0,16,17
 141.845703125 149.129882812 141.845703125 149.129882812 110.295898438 157.282226562 c 0,18,19
 105.690429688 158.333007812 105.690429688 158.333007812 101.60546875 158.333007812 c 0,20,21
 88.0634765625 158.333007812 88.0634765625 158.333007812 78.626953125 145.947265625 c 2,22,-1
 77.2958984375 144.201171875 l 1,23,24
 62.8359375 136.489257812 62.8359375 136.489257812 54.3359375 123.970703125 c 0,25,26
 51.0888671875 117.412109375 51.0888671875 117.412109375 49.080078125 111.616210938 c 0,27,28
 41.5673828125 90.7490234375 41.5673828125 90.7490234375 41.5673828125 74.0498046875 c 0,0,1
51.54296875 348.76171875 m 0,29,30
 51.54296875 322.673828125 51.54296875 322.673828125 69.5048828125 303.12890625 c 0,31,32
 90.66796875 280.099609375 90.66796875 280.099609375 128.217773438 280.099609375 c 0,33,34
 168.625 280.099609375 168.625 280.099609375 183.568359375 311.153320312 c 0,35,36
 188.1796875 327.231445312 188.1796875 327.231445312 188.432617188 334.540039062 c 0,37,38
 188.432617188 352.642578125 188.432617188 352.642578125 177.712890625 373.545898438 c 0,39,40
 163.083984375 403.717773438 163.083984375 403.717773438 137.956054688 417.178710938 c 0,41,42
 121.766601562 426.083007812 121.766601562 426.083007812 106.840820312 426.083007812 c 0,43,44
 85.974609375 426.083007812 85.974609375 426.083007812 68.8837890625 409.076171875 c 0,45,46
 62.1083984375 397.594726562 62.1083984375 397.594726562 61.7451171875 393.30859375 c 128,-1,47
 61.3818359375 389.021484375 61.3818359375 389.021484375 62.056640625 383.28515625 c 1,48,-1
 59.759765625 380.126953125 l 2,49,50
 53.7880859375 371.915039062 53.7880859375 371.915039062 52.6650390625 363.415039062 c 128,-1,51
 51.54296875 354.915039062 51.54296875 354.915039062 51.54296875 348.76171875 c 0,29,30
EndSplineSet
EndChar

